<mxfile host="app.diagrams.net" modified="2024-07-02T11:40:34.000Z" agent="Mozilla/5.0 (Macintosh; Intel Mac OS X 10_15_7) AppleWebKit/605.1.15 (KHTML, like Gecko) Version/17.5 Safari/605.1.15" etag="5ZxQ-WeacvY3L3IE0PQa" version="24.6.4" type="github">
  <diagram id="JT8swF0UIjnUJqYRXIsN" name="Страница — 2">
    <mxGraphModel dx="921" dy="659" grid="1" gridSize="10" guides="1" tooltips="1" connect="1" arrows="1" fold="1" page="1" pageScale="1" pageWidth="827" pageHeight="1169" math="0" shadow="0">
      <root>
        <mxCell id="0" />
        <mxCell id="1" parent="0" />
        <mxCell id="pODZcevJCQdSYygOvRrI-1" value="" style="shape=image;verticalLabelPosition=bottom;labelBackgroundColor=default;verticalAlign=top;aspect=fixed;imageAspect=0;image=data:image/svg+xml,PHN2ZyB4bWxuczp4bGluaz0iaHR0cDovL3d3dy53My5vcmcvMTk5OS94bGluayIgeG1sbnM9Imh0dHA6Ly93d3cudzMub3JnLzIwMDAvc3ZnIiB2ZXJzaW9uPSIxLjEiIHZpZXdCb3g9IjE1NSA3NSAzMTEwIDEzMjAiIGhlaWdodD0iMTMyMCIgd2lkdGg9IjMxMTAiPjxkZWZzPjxwYXR0ZXJuIHBhdHRlcm5Vbml0cz0idXNlclNwYWNlT25Vc2UiIGhlaWdodD0iMTAiIHdpZHRoPSIxMCIgaWQ9ImRqcy1ncmlkLXBhdHRlcm4tNjQyNjI3Ij48Y2lyY2xlIHN0eWxlPSJmaWxsOiByZ2IoMjA0LCAyMDQsIDIwNCk7IiByPSIwLjUiIGN5PSIwLjUiIGN4PSIwLjUiLz48L3BhdHRlcm4+PG1hcmtlciBvcmllbnQ9ImF1dG8iIG1hcmtlckhlaWdodD0iMTAiIG1hcmtlcldpZHRoPSIxMCIgcmVmWT0iMTAiIHJlZlg9IjExIiB2aWV3Qm94PSIwIDAgMjAgMjAiIGlkPSJhc3NvY2lhdGlvbi1lbmQtd2hpdGUtaHNsXzIyNV8xMF8xNV8tZGV4YjFqamxhaGlmbXJlZjR4MTJrdXo5MCI+PHBhdGggc3R5bGU9ImZpbGw6IG5vbmU7IHN0cm9rZS1saW5lY2FwOiByb3VuZDsgc3Ryb2tlLWxpbmVqb2luOiByb3VuZDsgc3Ryb2tlOiByZ2IoMzQsIDM2LCA0Mik7IHN0cm9rZS13aWR0aDogMS41cHg7IHN0cm9rZS1kYXNoYXJyYXk6IDEwMDAwLCAxOyIgZD0iTSAxIDUgTCAxMSAxMCBMIDEgMTUiLz48L21hcmtlcj48bWFya2VyIG9yaWVudD0iYXV0byIgbWFya2VySGVpZ2h0PSIxMCIgbWFya2VyV2lkdGg9IjEwIiByZWZZPSIxMCIgcmVmWD0iMTEiIHZpZXdCb3g9IjAgMCAyMCAyMCIgaWQ9InNlcXVlbmNlZmxvdy1lbmQtd2hpdGUtaHNsXzIyNV8xMF8xNV8tZGV4YjFqamxhaGlmbXJlZjR4MTJrdXo5MCI+PHBhdGggc3R5bGU9InN0cm9rZS1saW5lY2FwOiByb3VuZDsgc3Ryb2tlLWxpbmVqb2luOiByb3VuZDsgc3Ryb2tlOiByZ2IoMzQsIDM2LCA0Mik7IHN0cm9rZS13aWR0aDogMXB4OyBmaWxsOiByZ2IoMzQsIDM2LCA0Mik7IiBkPSJNIDEgNSBMIDExIDEwIEwgMSAxNSBaIi8+PC9tYXJrZXI+PG1hcmtlciBvcmllbnQ9ImF1dG8iIG1hcmtlckhlaWdodD0iMTAiIG1hcmtlcldpZHRoPSIxMCIgcmVmWT0iMTAiIHJlZlg9IjExIiB2aWV3Qm94PSIwIDAgMjAgMjAiIGlkPSJzZXF1ZW5jZWZsb3ctZW5kLXdoaXRlLV8yMDUwMjItZGV4YjFqamxhaGlmbXJlZjR4MTJrdXo5MCI+PHBhdGggc3R5bGU9InN0cm9rZS1saW5lY2FwOiByb3VuZDsgc3Ryb2tlLWxpbmVqb2luOiByb3VuZDsgc3Ryb2tlOiByZ2IoMzIsIDgwLCAzNCk7IHN0cm9rZS13aWR0aDogMXB4OyBmaWxsOiByZ2IoMzIsIDgwLCAzNCk7IiBkPSJNIDEgNSBMIDExIDEwIEwgMSAxNSBaIi8+PC9tYXJrZXI+PG1hcmtlciBvcmllbnQ9ImF1dG8iIG1hcmtlckhlaWdodD0iMjAiIG1hcmtlcldpZHRoPSIyMCIgcmVmWT0iNSIgcmVmWD0iOC41IiB2aWV3Qm94PSIwIDAgMjAgMjAiIGlkPSJtZXNzYWdlZmxvdy1lbmQtd2hpdGUtaHNsXzIyNV8xMF8xNV8tZGV4YjFqamxhaGlmbXJlZjR4MTJrdXo5MCI+PHBhdGggc3R5bGU9InN0cm9rZS1saW5lY2FwOiByb3VuZDsgc3Ryb2tlLWxpbmVqb2luOiByb3VuZDsgc3Ryb2tlOiByZ2IoMzQsIDM2LCA0Mik7IHN0cm9rZS13aWR0aDogMXB4OyBmaWxsOiB3aGl0ZTsgc3Ryb2tlLWRhc2hhcnJheTogMTAwMDAsIDE7IiBkPSJtIDEgNSBsIDAgLTMgbCA3IDMgbCAtNyAzIHoiLz48L21hcmtlcj48bWFya2VyIG9yaWVudD0iYXV0byIgbWFya2VySGVpZ2h0PSIyMCIgbWFya2VyV2lkdGg9IjIwIiByZWZZPSI2IiByZWZYPSI2IiB2aWV3Qm94PSIwIDAgMjAgMjAiIGlkPSJtZXNzYWdlZmxvdy1zdGFydC13aGl0ZS1oc2xfMjI1XzEwXzE1Xy1kZXhiMWpqbGFoaWZtcmVmNHgxMmt1ejkwIj48Y2lyY2xlIHN0eWxlPSJzdHJva2UtbGluZWNhcDogcm91bmQ7IHN0cm9rZS1saW5lam9pbjogcm91bmQ7IHN0cm9rZTogcmdiKDM0LCAzNiwgNDIpOyBzdHJva2Utd2lkdGg6IDFweDsgZmlsbDogd2hpdGU7IHN0cm9rZS1kYXNoYXJyYXk6IDEwMDAwLCAxOyIgcj0iMy41IiBjeT0iNiIgY3g9IjYiLz48L21hcmtlcj48L2RlZnM+PGcgY2xhc3M9ImRqcy1ncm91cCI+PGcgc3R5bGU9ImRpc3BsYXk6IGJsb2NrOyIgdHJhbnNmb3JtPSJ0cmFuc2xhdGUoMTYwIDE3NSkiIGRhdGEtZWxlbWVudC1pZD0iUGFydGljaXBhbnRfMGx5YTF6ZiIgY2xhc3M9ImRqcy1lbGVtZW50IGRqcy1zaGFwZSI+PGcgY2xhc3M9ImRqcy12aXN1YWwiPjxyZWN0IHN0eWxlPSJzdHJva2UtbGluZWNhcDogcm91bmQ7IHN0cm9rZS1saW5lam9pbjogcm91bmQ7IHN0cm9rZTogcmdiKDM0LCAzNiwgNDIpOyBzdHJva2Utd2lkdGg6IDEuNXB4OyBmaWxsOiB3aGl0ZTsgZmlsbC1vcGFjaXR5OiAwLjk1OyIgcnk9IjAiIHJ4PSIwIiBoZWlnaHQ9IjEyMTUiIHdpZHRoPSIzMTAwIiB5PSIwIiB4PSIwIi8+PHBhdGggZD0iTTMwLDBMMzAsMTIxNSIgc3R5bGU9ImZpbGw6IG5vbmU7IHN0cm9rZS1saW5lY2FwOiByb3VuZDsgc3Ryb2tlLWxpbmVqb2luOiByb3VuZDsgc3Ryb2tlOiByZ2IoMzQsIDM2LCA0Mik7IHN0cm9rZS13aWR0aDogMS41cHg7Ii8+PHRleHQgc3R5bGU9ImZvbnQtZmFtaWx5OiBBcmlhbCwgc2Fucy1zZXJpZjsgZm9udC1zaXplOiAxMnB4OyBmb250LXdlaWdodDogbm9ybWFsOyBmaWxsOiByZ2IoMzQsIDM2LCA0Mik7IiB0cmFuc2Zvcm09Im1hdHJpeCgtMS44MzY5N2UtMTYgLTEgMSAtMS44MzY5N2UtMTYgMCAxMjE1KSIgY2xhc3M9ImRqcy1sYWJlbCI+PHRzcGFuIHk9IjE4LjYiIHg9IjQ0OC43MTA5Mzc1Ij7Qv9GA0L7RhtC10YHRgdCwINC30LDQv9C+0LvQvdC10L3QuNGPL9GA0LXQtNCw0LrRgtC40YDQvtCy0LDQvdC40Y8g0LTQsNC90L3Ri9GFINC+INC60LvQuNC10L3RgtC1PC90c3Bhbj48L3RleHQ+PC9nPjxyZWN0IHN0eWxlPSJmaWxsOiBub25lOyBzdHJva2Utb3BhY2l0eTogMDsgc3Ryb2tlOiB3aGl0ZTsgc3Ryb2tlLXdpZHRoOiAxNXB4OyIgaGVpZ2h0PSIxMjE1IiB3aWR0aD0iMzEwMCIgeT0iMCIgeD0iMCIgY2xhc3M9ImRqcy1oaXQgZGpzLWhpdC1uby1tb3ZlIi8+PHJlY3Qgc3R5bGU9ImZpbGw6IG5vbmU7IHN0cm9rZS1vcGFjaXR5OiAwOyBzdHJva2U6IHdoaXRlOyBzdHJva2Utd2lkdGg6IDE1cHg7IiBoZWlnaHQ9IjEyMTUiIHdpZHRoPSIzMTAwIiB5PSIwIiB4PSIwIiBjbGFzcz0iZGpzLWhpdCBkanMtaGl0LWNsaWNrLXN0cm9rZSIvPjxyZWN0IHN0eWxlPSJmaWxsOiBub25lOyBzdHJva2Utb3BhY2l0eTogMDsgc3Ryb2tlOiB3aGl0ZTsgc3Ryb2tlLXdpZHRoOiAxNXB4OyIgaGVpZ2h0PSIxMjE1IiB3aWR0aD0iMzAiIHk9IjAiIHg9IjAiIGNsYXNzPSJkanMtaGl0IGRqcy1oaXQtYWxsIi8+PHJlY3Qgc3R5bGU9ImZpbGw6IG5vbmU7IiBjbGFzcz0iZGpzLW91dGxpbmUiIGhlaWdodD0iMTIyNSIgd2lkdGg9IjMxMTAiIHJ4PSI0IiB5PSItNSIgeD0iLTUiLz48L2c+PGcgY2xhc3M9ImRqcy1jaGlsZHJlbiI+PGcgY2xhc3M9ImRqcy1ncm91cCI+PGcgc3R5bGU9ImRpc3BsYXk6IGJsb2NrOyIgdHJhbnNmb3JtPSJ0cmFuc2xhdGUoMTkwIDE3NSkiIGRhdGEtZWxlbWVudC1pZD0iTGFuZV8xNDRqeHRpIiBjbGFzcz0iZGpzLWVsZW1lbnQgZGpzLXNoYXBlIj48ZyBjbGFzcz0iZGpzLXZpc3VhbCI+PHJlY3Qgc3R5bGU9InN0cm9rZS1saW5lY2FwOiByb3VuZDsgc3Ryb2tlLWxpbmVqb2luOiByb3VuZDsgc3Ryb2tlOiByZ2IoMzQsIDM2LCA0Mik7IHN0cm9rZS13aWR0aDogMS41cHg7IGZpbGw6IHdoaXRlOyBmaWxsLW9wYWNpdHk6IDAuMjU7IiByeT0iMCIgcng9IjAiIGhlaWdodD0iNDE1IiB3aWR0aD0iMzA3MCIgeT0iMCIgeD0iMCIvPjx0ZXh0IHN0eWxlPSJmb250LWZhbWlseTogQXJpYWwsIHNhbnMtc2VyaWY7IGZvbnQtc2l6ZTogMTJweDsgZm9udC13ZWlnaHQ6IG5vcm1hbDsgZmlsbDogcmdiKDM0LCAzNiwgNDIpOyIgdHJhbnNmb3JtPSJtYXRyaXgoLTEuODM2OTdlLTE2IC0xIDEgLTEuODM2OTdlLTE2IDAgNDE1KSIgY2xhc3M9ImRqcy1sYWJlbCI+PHRzcGFuIHk9IjE4LjYiIHg9IjE3Ny41OTM3NSI+0KHQuNGB0YLQtdC80LAg0KU8L3RzcGFuPjwvdGV4dD48L2c+PHJlY3Qgc3R5bGU9ImZpbGw6IG5vbmU7IHN0cm9rZS1vcGFjaXR5OiAwOyBzdHJva2U6IHdoaXRlOyBzdHJva2Utd2lkdGg6IDE1cHg7IiBoZWlnaHQ9IjQxNSIgd2lkdGg9IjMwNzAiIHk9IjAiIHg9IjAiIGNsYXNzPSJkanMtaGl0IGRqcy1oaXQtbm8tbW92ZSIvPjxyZWN0IHN0eWxlPSJmaWxsOiBub25lOyBzdHJva2Utb3BhY2l0eTogMDsgc3Ryb2tlOiB3aGl0ZTsgc3Ryb2tlLXdpZHRoOiAxNXB4OyIgaGVpZ2h0PSI0MTUiIHdpZHRoPSIzMDcwIiB5PSIwIiB4PSIwIiBjbGFzcz0iZGpzLWhpdCBkanMtaGl0LWNsaWNrLXN0cm9rZSIvPjxyZWN0IHN0eWxlPSJmaWxsOiBub25lOyBzdHJva2Utb3BhY2l0eTogMDsgc3Ryb2tlOiB3aGl0ZTsgc3Ryb2tlLXdpZHRoOiAxNXB4OyIgaGVpZ2h0PSI0MTUiIHdpZHRoPSIzMCIgeT0iMCIgeD0iMCIgY2xhc3M9ImRqcy1oaXQgZGpzLWhpdC1hbGwiLz48cmVjdCBzdHlsZT0iZmlsbDogbm9uZTsiIGNsYXNzPSJkanMtb3V0bGluZSIgaGVpZ2h0PSI0MjUiIHdpZHRoPSIzMDgwIiByeD0iNCIgeT0iLTUiIHg9Ii01Ii8+PC9nPjwvZz48ZyBjbGFzcz0iZGpzLWdyb3VwIj48ZyBzdHlsZT0iZGlzcGxheTogYmxvY2s7IiB0cmFuc2Zvcm09InRyYW5zbGF0ZSgxOTAgNTkwKSIgZGF0YS1lbGVtZW50LWlkPSJMYW5lXzF2YmZ0Y2EiIGNsYXNzPSJkanMtZWxlbWVudCBkanMtc2hhcGUiPjxnIGNsYXNzPSJkanMtdmlzdWFsIj48cmVjdCBzdHlsZT0ic3Ryb2tlLWxpbmVjYXA6IHJvdW5kOyBzdHJva2UtbGluZWpvaW46IHJvdW5kOyBzdHJva2U6IHJnYigzNCwgMzYsIDQyKTsgc3Ryb2tlLXdpZHRoOiAxLjVweDsgZmlsbDogd2hpdGU7IGZpbGwtb3BhY2l0eTogMC4yNTsiIHJ5PSIwIiByeD0iMCIgaGVpZ2h0PSI4MDAiIHdpZHRoPSIzMDcwIiB5PSIwIiB4PSIwIi8+PHRleHQgc3R5bGU9ImZvbnQtZmFtaWx5OiBBcmlhbCwgc2Fucy1zZXJpZjsgZm9udC1zaXplOiAxMnB4OyBmb250LXdlaWdodDogbm9ybWFsOyBmaWxsOiByZ2IoMzQsIDM2LCA0Mik7IiB0cmFuc2Zvcm09Im1hdHJpeCgtMS44MzY5N2UtMTYgLTEgMSAtMS44MzY5N2UtMTYgMCA4MDApIiBjbGFzcz0iZGpzLWxhYmVsIj48dHNwYW4geT0iMTguNiIgeD0iMzcwLjA5Mzc1Ij7QodC40YHRgtC10LzQsCBZPC90c3Bhbj48L3RleHQ+PC9nPjxyZWN0IHN0eWxlPSJmaWxsOiBub25lOyBzdHJva2Utb3BhY2l0eTogMDsgc3Ryb2tlOiB3aGl0ZTsgc3Ryb2tlLXdpZHRoOiAxNXB4OyIgaGVpZ2h0PSI4MDAiIHdpZHRoPSIzMDcwIiB5PSIwIiB4PSIwIiBjbGFzcz0iZGpzLWhpdCBkanMtaGl0LW5vLW1vdmUiLz48cmVjdCBzdHlsZT0iZmlsbDogbm9uZTsgc3Ryb2tlLW9wYWNpdHk6IDA7IHN0cm9rZTogd2hpdGU7IHN0cm9rZS13aWR0aDogMTVweDsiIGhlaWdodD0iODAwIiB3aWR0aD0iMzA3MCIgeT0iMCIgeD0iMCIgY2xhc3M9ImRqcy1oaXQgZGpzLWhpdC1jbGljay1zdHJva2UiLz48cmVjdCBzdHlsZT0iZmlsbDogbm9uZTsgc3Ryb2tlLW9wYWNpdHk6IDA7IHN0cm9rZTogd2hpdGU7IHN0cm9rZS13aWR0aDogMTVweDsiIGhlaWdodD0iODAwIiB3aWR0aD0iMzAiIHk9IjAiIHg9IjAiIGNsYXNzPSJkanMtaGl0IGRqcy1oaXQtYWxsIi8+PHJlY3Qgc3R5bGU9ImZpbGw6IG5vbmU7IiBjbGFzcz0iZGpzLW91dGxpbmUiIGhlaWdodD0iODEwIiB3aWR0aD0iMzA4MCIgcng9IjQiIHk9Ii01IiB4PSItNSIvPjwvZz48L2c+PGcgY2xhc3M9ImRqcy1ncm91cCI+PGcgc3R5bGU9ImRpc3BsYXk6IGJsb2NrOyIgdHJhbnNmb3JtPSJ0cmFuc2xhdGUoMjI2IDM3NykiIGRhdGEtZWxlbWVudC1pZD0iRXZlbnRfMHM3amFmOCIgY2xhc3M9ImRqcy1lbGVtZW50IGRqcy1zaGFwZSI+PGcgY2xhc3M9ImRqcy12aXN1YWwiPjxjaXJjbGUgc3R5bGU9InN0cm9rZS1saW5lY2FwOiByb3VuZDsgc3Ryb2tlLWxpbmVqb2luOiByb3VuZDsgc3Ryb2tlOiByZ2IoMzQsIDM2LCA0Mik7IHN0cm9rZS13aWR0aDogMnB4OyBmaWxsOiB3aGl0ZTsgZmlsbC1vcGFjaXR5OiAwLjk1OyIgcj0iMTgiIGN5PSIxOCIgY3g9IjE4Ii8+PC9nPjxyZWN0IHN0eWxlPSJmaWxsOiBub25lOyBzdHJva2Utb3BhY2l0eTogMDsgc3Ryb2tlOiB3aGl0ZTsgc3Ryb2tlLXdpZHRoOiAxNXB4OyIgaGVpZ2h0PSIzNiIgd2lkdGg9IjM2IiB5PSIwIiB4PSIwIiBjbGFzcz0iZGpzLWhpdCBkanMtaGl0LWFsbCIvPjxjaXJjbGUgc3R5bGU9ImZpbGw6IG5vbmU7IiBjbGFzcz0iZGpzLW91dGxpbmUiIHI9IjIzIiBjeT0iMTgiIGN4PSIxOCIvPjwvZz48L2c+PGcgY2xhc3M9ImRqcy1ncm91cCI+PGcgc3R5bGU9ImRpc3BsYXk6IGJsb2NrOyIgdHJhbnNmb3JtPSJ0cmFuc2xhdGUoMjA0IDQyMCkiIGRhdGEtZWxlbWVudC1pZD0iRXZlbnRfMHM3amFmOF9sYWJlbCIgY2xhc3M9ImRqcy1lbGVtZW50IGRqcy1zaGFwZSI+PGcgY2xhc3M9ImRqcy12aXN1YWwiPjx0ZXh0IHN0eWxlPSJmb250LWZhbWlseTogQXJpYWwsIHNhbnMtc2VyaWY7IGZvbnQtc2l6ZTogMTFweDsgZm9udC13ZWlnaHQ6IG5vcm1hbDsgZmlsbDogcmdiKDM0LCAzNiwgNDIpOyIgY2xhc3M9ImRqcy1sYWJlbCI+PHRzcGFuIHk9IjkuODk5OTk5OTk5OTk5OTk5IiB4PSI2Ljc3MzQzNzUiPtC60LvQuNC10L3RgiDRhdC+0YfQtdGCIDwvdHNwYW4+PHRzcGFuIHk9IjIzLjA5OTk5OTk5OTk5OTk5OCIgeD0iMCI+0LLQvtC50YLQuCDQsiDQsNC60LrQsNGD0L3RgtC00LvRjzwvdHNwYW4+PHRzcGFuIHk9IjM2LjMiIHg9IjEuMzEyNSI+INC40LfQvNC10L3QtdC90LjRjyA8L3RzcGFuPjx0c3BhbiB5PSI0OS41IiB4PSIyMC44MTI1Ij7QtNCw0L3QvdGL0YU8L3RzcGFuPjwvdGV4dD48L2c+PHJlY3Qgc3R5bGU9ImZpbGw6IG5vbmU7IHN0cm9rZS1vcGFjaXR5OiAwOyBzdHJva2U6IHdoaXRlOyBzdHJva2Utd2lkdGg6IDE1cHg7IiBoZWlnaHQ9IjUzIiB3aWR0aD0iODAiIHk9IjAiIHg9IjAiIGNsYXNzPSJkanMtaGl0IGRqcy1oaXQtYWxsIi8+PHJlY3Qgc3R5bGU9ImZpbGw6IG5vbmU7IiBjbGFzcz0iZGpzLW91dGxpbmUiIGhlaWdodD0iNjMiIHdpZHRoPSI5MCIgcng9IjQiIHk9Ii01IiB4PSItNSIvPjwvZz48L2c+PGcgY2xhc3M9ImRqcy1ncm91cCI+PGcgc3R5bGU9ImRpc3BsYXk6IGJsb2NrOyIgdHJhbnNmb3JtPSJ0cmFuc2xhdGUoMzE0IDM1NSkiIGRhdGEtZWxlbWVudC1pZD0iQWN0aXZpdHlfMWtoZjV4OCIgY2xhc3M9ImRqcy1lbGVtZW50IGRqcy1zaGFwZSI+PGcgY2xhc3M9ImRqcy12aXN1YWwiPjxyZWN0IHN0eWxlPSJzdHJva2UtbGluZWNhcDogcm91bmQ7IHN0cm9rZS1saW5lam9pbjogcm91bmQ7IHN0cm9rZTogcmdiKDM0LCAzNiwgNDIpOyBzdHJva2Utd2lkdGg6IDJweDsgZmlsbDogd2hpdGU7IGZpbGwtb3BhY2l0eTogMC45NTsiIHJ5PSIxMCIgcng9IjEwIiBoZWlnaHQ9IjgwIiB3aWR0aD0iMTAwIiB5PSIwIiB4PSIwIi8+PHRleHQgc3R5bGU9ImZvbnQtZmFtaWx5OiBBcmlhbCwgc2Fucy1zZXJpZjsgZm9udC1zaXplOiAxMnB4OyBmb250LXdlaWdodDogbm9ybWFsOyBmaWxsOiByZ2IoMzQsIDM2LCA0Mik7IiBjbGFzcz0iZGpzLWxhYmVsIj48dHNwYW4geT0iMzYuNCIgeD0iMTkuMDA3ODEyNSI+0YTQvtGA0LzQsCDQtNC70Y8gPC90c3Bhbj48dHNwYW4geT0iNTAuOCIgeD0iMzMuNjMyODEyNSI+0LLRhdC+0LTQsDwvdHNwYW4+PC90ZXh0PjxjaXJjbGUgc3R5bGU9InN0cm9rZS1saW5lY2FwOiByb3VuZDsgc3Ryb2tlLWxpbmVqb2luOiByb3VuZDsgc3Ryb2tlOiBub25lOyBzdHJva2Utd2lkdGg6IDJweDsgZmlsbDogd2hpdGU7IiB0cmFuc2Zvcm09InRyYW5zbGF0ZSg2LCA2KSIgcj0iNSIgY3k9IjUiIGN4PSI1Ii8+PHBhdGggc3R5bGU9ImZpbGw6IHdoaXRlOyBzdHJva2UtbGluZWNhcDogcm91bmQ7IHN0cm9rZS1saW5lam9pbjogcm91bmQ7IHN0cm9rZTogcmdiKDM0LCAzNiwgNDIpOyBzdHJva2Utd2lkdGg6IDFweDsiIGQ9Im0gMTIsMTggdiAtMS43MTMzNSBjIDAuMzUyMzI2LC0wLjA3MDUgMC43MDM5MzIsLTAuMTc4MzggMS4wNDc2MjgsLTAuMzIxMzMgMC4zNDQ0MTYsLTAuMTQ0NjUgMC42NjU4MjIsLTAuMzIxMzMgMC45NjYzNzcsLTAuNTIxNDUgbCAxLjE5NDMxLDEuMTgwMDUgMS41Njc0ODcsLTEuNTc2ODggLTEuMTk1MDI4LC0xLjE4MDE0IGMgMC40MDMzNzYsLTAuNjEzOTQgMC42ODMwNzksLTEuMjk5MDggMC44MjU0NDcsLTIuMDE4MjQgbCAxLjYyMjEzMywtMC4wMSB2IC0yLjIxOTYgbCAtMS42MzY1MTQsMC4wMSBjIC0wLjA3MzMzLC0wLjM1MTUzIC0wLjE3ODMxOSwtMC43MDAyNCAtMC4zMjM1NjQsLTEuMDQzNzIgLTAuMTQ1MjQ0LC0wLjM0NDA2IC0wLjMyMTQwNywtMC42NjQ0IC0wLjUyMjczNSwtMC45NjIxNyBsIDEuMTMxMDM1LC0xLjEzNjMxIC0xLjU4MzMwNSwtMS41NjI5MyAtMS4xMjk1OTgsMS4xMzU4OSBjIC0wLjYxNDA1MiwtMC40MDEwOCAtMS4zMDI4ODMsLTAuNjgwOTMgLTIuMDIyNjMzLC0wLjgyMjQ3IGwgMC4wMDkzLC0xLjYxODUyIGggLTIuMjQxMTczIGwgMC4wMDQyLDEuNjMxMjQgYyAtMC4zNTM3NjMsMC4wNzM2IC0wLjcwNTM2OSwwLjE3OTc3IC0xLjA0OTc4NSwwLjMyMzcxIC0wLjM0NDQxNSwwLjE0NDM3IC0wLjY2NTEwMiwwLjMyMDkyIC0wLjk2MzUwMDYsMC41MjA0NiBsIC0xLjE2OTg2MjgsLTEuMTU4MjMgLTEuNTY2NzY5MSwxLjU3OTIgMS4xNjg0MjY1LDEuMTU2NjkgYyAtMC40MDI2NTczLDAuNjEyODMgLTAuNjgzMDgsMS4yOTc5NyAtMC44MjQ3Mjg3LDIuMDE3MTMgbCAtMS42NTg4MDQxLDAuMDAzIHYgMi4yMjE3NCBsIDEuNjcyNDY0OCwtMC4wMDYgYyAwLjA3MzMyNywwLjM1MDc3IDAuMTc5NzU5OCwwLjcwMjQzIDAuMzI0Mjg1MSwxLjA0NDcyIDAuMTQ1MjQyOCwwLjM0NDQ4IDAuMzIxNDA2NCwwLjY2NDQgMC41MjI3MzM5LDAuOTYwNjYgbCAtMS4xOTkzNDMxLDEuMTk3MjMgMS41ODQwMjU2LDEuNTYwMTEgMS4xOTY0NjY4LC0xLjE5MzQ4IGMgMC42MTQwNTE3LDAuNDAzNDYgMS4zMDI4ODI3LDAuNjgyMzIgMi4wMjMzNTE3LDAuODIzMzEgbCA3LjE5ZS00LDEuNjk4OTIgaCAyLjIyNjg0OCB6IG0gMC4yMjE0NjIsLTMuOTk1NyBjIC0xLjc4ODk0OCwwLjc1MDIgLTMuODU3NiwtMC4wOTI4IC00LjYwOTcwNTUsLTEuODc0MzggLTAuNzUyMTA2NSwtMS43ODMyMSAwLjA5MDU5OCwtMy44NDYyNyAxLjg4MDI2NDUsLTQuNTk2MDQgMS43ODgyMywtMC43NDkzNiAzLjg1Njg4MSwwLjA5MjkgNC42MDg5ODcsMS44NzQzNyAwLjc1MjEwNiwxLjc4MTY1IC0wLjA5MDYsMy44NDYxMiAtMS44Nzk1NDYsNC41OTYwNSB6Ii8+PGNpcmNsZSBzdHlsZT0ic3Ryb2tlLWxpbmVjYXA6IHJvdW5kOyBzdHJva2UtbGluZWpvaW46IHJvdW5kOyBzdHJva2U6IG5vbmU7IHN0cm9rZS13aWR0aDogMnB4OyBmaWxsOiB3aGl0ZTsiIHRyYW5zZm9ybT0idHJhbnNsYXRlKDExLCAxMCkiIHI9IjUiIGN5PSI1IiBjeD0iNSIvPjxwYXRoIHN0eWxlPSJmaWxsOiB3aGl0ZTsgc3Ryb2tlLWxpbmVjYXA6IHJvdW5kOyBzdHJva2UtbGluZWpvaW46IHJvdW5kOyBzdHJva2U6IHJnYigzNCwgMzYsIDQyKTsgc3Ryb2tlLXdpZHRoOiAxcHg7IiBkPSJtIDE3LDIyIHYgLTEuNzEzMzUgYyAwLjM1MjMyNiwtMC4wNzA1IDAuNzAzOTMyLC0wLjE3ODM4IDEuMDQ3NjI4LC0wLjMyMTMzIDAuMzQ0NDE2LC0wLjE0NDY1IDAuNjY1ODIyLC0wLjMyMTMzIDAuOTY2Mzc3LC0wLjUyMTQ1IGwgMS4xOTQzMSwxLjE4MDA1IDEuNTY3NDg3LC0xLjU3Njg4IC0xLjE5NTAyOCwtMS4xODAxNCBjIDAuNDAzMzc2LC0wLjYxMzk0IDAuNjgzMDc5LC0xLjI5OTA4IDAuODI1NDQ3LC0yLjAxODI0IGwgMS42MjIxMzMsLTAuMDEgdiAtMi4yMTk2IGwgLTEuNjM2NTE0LDAuMDEgYyAtMC4wNzMzMywtMC4zNTE1MyAtMC4xNzgzMTksLTAuNzAwMjQgLTAuMzIzNTY0LC0xLjA0MzcyIC0wLjE0NTI0NCwtMC4zNDQwNiAtMC4zMjE0MDcsLTAuNjY0NCAtMC41MjI3MzUsLTAuOTYyMTcgbCAxLjEzMTAzNSwtMS4xMzYzMSAtMS41ODMzMDUsLTEuNTYyOTMgLTEuMTI5NTk4LDEuMTM1ODkgYyAtMC42MTQwNTIsLTAuNDAxMDggLTEuMzAyODgzLC0wLjY4MDkzIC0yLjAyMjYzMywtMC44MjI0NyBsIDAuMDA5MywtMS42MTg1MiBoIC0yLjI0MTE3MyBsIDAuMDA0MiwxLjYzMTI0IGMgLTAuMzUzNzYzLDAuMDczNiAtMC43MDUzNjksMC4xNzk3NyAtMS4wNDk3ODUsMC4zMjM3MSAtMC4zNDQ0MTUsMC4xNDQzNyAtMC42NjUxMDIsMC4zMjA5MiAtMC45NjM1MDA2LDAuNTIwNDYgbCAtMS4xNjk4NjI4LC0xLjE1ODIzIC0xLjU2Njc2OTEsMS41NzkyIDEuMTY4NDI2NSwxLjE1NjY5IGMgLTAuNDAyNjU3MywwLjYxMjgzIC0wLjY4MzA4LDEuMjk3OTcgLTAuODI0NzI4NywyLjAxNzEzIGwgLTEuNjU4ODA0MSwwLjAwMyB2IDIuMjIxNzQgbCAxLjY3MjQ2NDgsLTAuMDA2IGMgMC4wNzMzMjcsMC4zNTA3NyAwLjE3OTc1OTgsMC43MDI0MyAwLjMyNDI4NTEsMS4wNDQ3MiAwLjE0NTI0MjgsMC4zNDQ0OCAwLjMyMTQwNjQsMC42NjQ0IDAuNTIyNzMzOSwwLjk2MDY2IGwgLTEuMTk5MzQzMSwxLjE5NzIzIDEuNTg0MDI1NiwxLjU2MDExIDEuMTk2NDY2OCwtMS4xOTM0OCBjIDAuNjE0MDUxNywwLjQwMzQ2IDEuMzAyODgyNywwLjY4MjMyIDIuMDIzMzUxNywwLjgyMzMxIGwgNy4xOWUtNCwxLjY5ODkyIGggMi4yMjY4NDggeiBtIDAuMjIxNDYyLC0zLjk5NTcgYyAtMS43ODg5NDgsMC43NTAyIC0zLjg1NzYsLTAuMDkyOCAtNC42MDk3MDU1LC0xLjg3NDM4IC0wLjc1MjEwNjUsLTEuNzgzMjEgMC4wOTA1OTgsLTMuODQ2MjcgMS44ODAyNjQ1LC00LjU5NjA0IDEuNzg4MjMsLTAuNzQ5MzYgMy44NTY4ODEsMC4wOTI5IDQuNjA4OTg3LDEuODc0MzcgMC43NTIxMDYsMS43ODE2NSAtMC4wOTA2LDMuODQ2MTIgLTEuODc5NTQ2LDQuNTk2MDUgeiIvPjwvZz48cmVjdCBzdHlsZT0iZmlsbDogbm9uZTsgc3Ryb2tlLW9wYWNpdHk6IDA7IHN0cm9rZTogd2hpdGU7IHN0cm9rZS13aWR0aDogMTVweDsiIGhlaWdodD0iODAiIHdpZHRoPSIxMDAiIHk9IjAiIHg9IjAiIGNsYXNzPSJkanMtaGl0IGRqcy1oaXQtYWxsIi8+PHJlY3Qgc3R5bGU9ImZpbGw6IG5vbmU7IiBjbGFzcz0iZGpzLW91dGxpbmUiIGhlaWdodD0iOTAiIHdpZHRoPSIxMTAiIHJ4PSIxNCIgeT0iLTUiIHg9Ii01Ii8+PC9nPjwvZz48ZyBjbGFzcz0iZGpzLWdyb3VwIj48ZyBzdHlsZT0iZGlzcGxheTogYmxvY2s7IiB0cmFuc2Zvcm09InRyYW5zbGF0ZSg0NzQgMzU1KSIgZGF0YS1lbGVtZW50LWlkPSJBY3Rpdml0eV8xN29oamNwIiBjbGFzcz0iZGpzLWVsZW1lbnQgZGpzLXNoYXBlIj48ZyBjbGFzcz0iZGpzLXZpc3VhbCI+PHJlY3Qgc3R5bGU9InN0cm9rZS1saW5lY2FwOiByb3VuZDsgc3Ryb2tlLWxpbmVqb2luOiByb3VuZDsgc3Ryb2tlOiByZ2IoMzQsIDM2LCA0Mik7IHN0cm9rZS13aWR0aDogMnB4OyBmaWxsOiB3aGl0ZTsgZmlsbC1vcGFjaXR5OiAwLjk1OyIgcnk9IjEwIiByeD0iMTAiIGhlaWdodD0iODAiIHdpZHRoPSIxMDAiIHk9IjAiIHg9IjAiLz48dGV4dCBzdHlsZT0iZm9udC1mYW1pbHk6IEFyaWFsLCBzYW5zLXNlcmlmOyBmb250LXNpemU6IDEycHg7IGZvbnQtd2VpZ2h0OiBub3JtYWw7IGZpbGw6IHJnYigzNCwgMzYsIDQyKTsiIGNsYXNzPSJkanMtbGFiZWwiPjx0c3BhbiB5PSIzNi40IiB4PSIxMC4xNDA2MjUiPtC60LvQuNC10L3RgiDQstCy0L7QtNC00LDQvdC90YvQtTwvdHNwYW4+PC90ZXh0PjxwYXRoIHN0eWxlPSJmaWxsOiB3aGl0ZTsgc3Ryb2tlLWxpbmVjYXA6IHJvdW5kOyBzdHJva2UtbGluZWpvaW46IHJvdW5kOyBzdHJva2U6IHJnYigzNCwgMzYsIDQyKTsgc3Ryb2tlLXdpZHRoOiAwLjVweDsiIGQ9Im0gMTUsMTIgYyAwLjkwOSwtMC44NDUgMS41OTQsLTIuMDQ5IDEuNTk0LC0zLjM4NSAwLC0yLjU1NCAtMS44MDUsLTQuNjIxOTk5OTkgLTQuMzU3LC00LjYyMTk5OTk5IC0yLjU1MTk5OTk4LDAgLTQuMjg3OTk5OTgsMi4wNjc5OTk5OSAtNC4yODc5OTk5OCw0LjYyMTk5OTk5IDAsMS4zNDggMC45NzQsMi41NjIgMS44OTU5OTk5OCwzLjQwNSAtMC41Mjg5OTk5OCwwLjE4NyAtNS42NjksMi4wOTcgLTUuNzk0LDQuNzU2MDAwNSB2IDYuNzE4IGggMTcgdiAtNi43MTggYyAwLC0yLjI5ODAwMDUgLTUuNTI3OTk5NiwtNC41OTUwMDA1IC02LjA1MDk5OTYsLTQuNzc2MDAwNSB6bSAtOCw2IGwgMCw1LjUgbSAxMSwwIGwgMCwtNSIvPjxwYXRoIHN0eWxlPSJmaWxsOiB3aGl0ZTsgc3Ryb2tlLWxpbmVjYXA6IHJvdW5kOyBzdHJva2UtbGluZWpvaW46IHJvdW5kOyBzdHJva2U6IHJnYigzNCwgMzYsIDQyKTsgc3Ryb2tlLXdpZHRoOiAwLjVweDsiIGQ9Im0gMTUsMTIgbSAyLjE2MiwxLjAwOSBjIDAsMi40NDcwMDA1IC0yLjE1OCw0LjQzMTAwMDUgLTQuODIxLDQuNDMxMDAwNSAtMi42NjQ5OTk5OCwwIC00LjgyMiwtMS45ODEgLTQuODIyLC00LjQzMTAwMDUiLz48cGF0aCBzdHlsZT0iZmlsbDogcmdiKDM0LCAzNiwgNDIpOyBzdHJva2UtbGluZWNhcDogcm91bmQ7IHN0cm9rZS1saW5lam9pbjogcm91bmQ7IHN0cm9rZTogcmdiKDM0LCAzNiwgNDIpOyBzdHJva2Utd2lkdGg6IDAuNXB4OyIgZD0ibSAxNSwxMiBtIC02LjksLTMuODAgYyAwLDAgMi4yNTA5OTk5OCwtMi4zNTggNC4yNzM5OTk5OCwtMS4xNzcgMi4wMjQsMS4xODEgNC4yMjEsMS41MzcgNC4xMjQsMC45NjUgLTAuMDk4LC0wLjU3IC0wLjExNywtMy43OTA5OTk5OSAtNC4xOTEsLTQuMTM1OTk5OTkgLTMuNTc0OTk5OTgsMC4wMDEgLTQuMjA3OTk5OTgsMy4zNjY5OTk5OSAtNC4yMDY5OTk5OCw0LjM0Nzk5OTk5IHoiLz48L2c+PHJlY3Qgc3R5bGU9ImZpbGw6IG5vbmU7IHN0cm9rZS1vcGFjaXR5OiAwOyBzdHJva2U6IHdoaXRlOyBzdHJva2Utd2lkdGg6IDE1cHg7IiBoZWlnaHQ9IjgwIiB3aWR0aD0iMTAwIiB5PSIwIiB4PSIwIiBjbGFzcz0iZGpzLWhpdCBkanMtaGl0LWFsbCIvPjxyZWN0IHN0eWxlPSJmaWxsOiBub25lOyIgY2xhc3M9ImRqcy1vdXRsaW5lIiBoZWlnaHQ9IjkwIiB3aWR0aD0iMTEwIiByeD0iMTQiIHk9Ii01IiB4PSItNSIvPjwvZz48L2c+PGcgY2xhc3M9ImRqcy1ncm91cCI+PGcgc3R5bGU9ImRpc3BsYXk6IGJsb2NrOyIgdHJhbnNmb3JtPSJ0cmFuc2xhdGUoMTM0NiA2OTUpIiBkYXRhLWVsZW1lbnQtaWQ9IkFjdGl2aXR5XzBranhnMjgiIGNsYXNzPSJkanMtZWxlbWVudCBkanMtc2hhcGUiPjxnIGNsYXNzPSJkanMtdmlzdWFsIj48cmVjdCBzdHlsZT0ic3Ryb2tlLWxpbmVjYXA6IHJvdW5kOyBzdHJva2UtbGluZWpvaW46IHJvdW5kOyBzdHJva2U6IHJnYigzNCwgMzYsIDQyKTsgc3Ryb2tlLXdpZHRoOiAycHg7IGZpbGw6IHdoaXRlOyBmaWxsLW9wYWNpdHk6IDAuOTU7IiByeT0iMTAiIHJ4PSIxMCIgaGVpZ2h0PSI4MCIgd2lkdGg9IjEwMCIgeT0iMCIgeD0iMCIvPjx0ZXh0IHN0eWxlPSJmb250LWZhbWlseTogQXJpYWwsIHNhbnMtc2VyaWY7IGZvbnQtc2l6ZTogMTJweDsgZm9udC13ZWlnaHQ6IG5vcm1hbDsgZmlsbDogcmdiKDM0LCAzNiwgNDIpOyIgY2xhc3M9ImRqcy1sYWJlbCI+PHRzcGFuIHk9IjI5LjIwMDAwMDAwMDAwMDAwMyIgeD0iMjcuOTQ1MzEyNSI+0LLQtdGA0L3Rg9GC0YwgPC90c3Bhbj48dHNwYW4geT0iNDMuNiIgeD0iMTguNjA5Mzc1Ij7RgdC+0L7QsdGJ0LXQvdC40LUgPC90c3Bhbj48dHNwYW4geT0iNTgiIHg9IjkuMjk2ODc1Ij7QutC70LjQtdC90YIg0L3QsNC50LTQtdC9PC90c3Bhbj48L3RleHQ+PC9nPjxyZWN0IHN0eWxlPSJmaWxsOiBub25lOyBzdHJva2Utb3BhY2l0eTogMDsgc3Ryb2tlOiB3aGl0ZTsgc3Ryb2tlLXdpZHRoOiAxNXB4OyIgaGVpZ2h0PSI4MCIgd2lkdGg9IjEwMCIgeT0iMCIgeD0iMCIgY2xhc3M9ImRqcy1oaXQgZGpzLWhpdC1hbGwiLz48cmVjdCBzdHlsZT0iZmlsbDogbm9uZTsiIGNsYXNzPSJkanMtb3V0bGluZSIgaGVpZ2h0PSI5MCIgd2lkdGg9IjExMCIgcng9IjE0IiB5PSItNSIgeD0iLTUiLz48L2c+PC9nPjxnIGNsYXNzPSJkanMtZ3JvdXAiPjxnIHN0eWxlPSJkaXNwbGF5OiBibG9jazsiIHRyYW5zZm9ybT0idHJhbnNsYXRlKDEzNDYgODQ1KSIgZGF0YS1lbGVtZW50LWlkPSJBY3Rpdml0eV8wNDlsODF2IiBjbGFzcz0iZGpzLWVsZW1lbnQgZGpzLXNoYXBlIj48ZyBjbGFzcz0iZGpzLXZpc3VhbCI+PHJlY3Qgc3R5bGU9InN0cm9rZS1saW5lY2FwOiByb3VuZDsgc3Ryb2tlLWxpbmVqb2luOiByb3VuZDsgc3Ryb2tlOiByZ2IoMzQsIDM2LCA0Mik7IHN0cm9rZS13aWR0aDogMnB4OyBmaWxsOiB3aGl0ZTsgZmlsbC1vcGFjaXR5OiAwLjk1OyIgcnk9IjEwIiByeD0iMTAiIGhlaWdodD0iODAiIHdpZHRoPSIxMDAiIHk9IjAiIHg9IjAiLz48dGV4dCBzdHlsZT0iZm9udC1mYW1pbHk6IEFyaWFsLCBzYW5zLXNlcmlmOyBmb250LXNpemU6IDEycHg7IGZvbnQtd2VpZ2h0OiBub3JtYWw7IGZpbGw6IHJnYigzNCwgMzYsIDQyKTsiIGNsYXNzPSJkanMtbGFiZWwiPjx0c3BhbiB5PSIyMiIgeD0iMjcuOTQ1MzEyNSI+0LLQtdGA0L3Rg9GC0YwgPC90c3Bhbj48dHNwYW4geT0iMzYuNCIgeD0iMTguNjA5Mzc1Ij7RgdC+0L7QsdGJ0LXQvdC40LUgPC90c3Bhbj48dHNwYW4geT0iNTAuOCIgeD0iMjIuODA0Njg3NSI+0LrQu9C40LXQvdGCINC90LUgPC90c3Bhbj48dHNwYW4geT0iNjUuMTk5OTk5OTk5OTk5OTkiIHg9IjI5Ljg0Mzc1Ij7QvdCw0LnQtNC10L08L3RzcGFuPjwvdGV4dD48L2c+PHJlY3Qgc3R5bGU9ImZpbGw6IG5vbmU7IHN0cm9rZS1vcGFjaXR5OiAwOyBzdHJva2U6IHdoaXRlOyBzdHJva2Utd2lkdGg6IDE1cHg7IiBoZWlnaHQ9IjgwIiB3aWR0aD0iMTAwIiB5PSIwIiB4PSIwIiBjbGFzcz0iZGpzLWhpdCBkanMtaGl0LWFsbCIvPjxyZWN0IHN0eWxlPSJmaWxsOiBub25lOyIgY2xhc3M9ImRqcy1vdXRsaW5lIiBoZWlnaHQ9IjkwIiB3aWR0aD0iMTEwIiByeD0iMTQiIHk9Ii01IiB4PSItNSIvPjwvZz48L2c+PGcgY2xhc3M9ImRqcy1ncm91cCI+PGcgc3R5bGU9ImRpc3BsYXk6IGJsb2NrOyIgdHJhbnNmb3JtPSJ0cmFuc2xhdGUoMTA2NiA3NzUpIiBkYXRhLWVsZW1lbnQtaWQ9IkFjdGl2aXR5XzBvaDRncTgiIGNsYXNzPSJkanMtZWxlbWVudCBkanMtc2hhcGUiPjxnIGNsYXNzPSJkanMtdmlzdWFsIj48cmVjdCBzdHlsZT0ic3Ryb2tlLWxpbmVjYXA6IHJvdW5kOyBzdHJva2UtbGluZWpvaW46IHJvdW5kOyBzdHJva2U6IHJnYigzNCwgMzYsIDQyKTsgc3Ryb2tlLXdpZHRoOiAycHg7IGZpbGw6IHdoaXRlOyBmaWxsLW9wYWNpdHk6IDAuOTU7IiByeT0iMTAiIHJ4PSIxMCIgaGVpZ2h0PSI4MCIgd2lkdGg9IjEwMCIgeT0iMCIgeD0iMCIvPjx0ZXh0IHN0eWxlPSJmb250LWZhbWlseTogQXJpYWwsIHNhbnMtc2VyaWY7IGZvbnQtc2l6ZTogMTJweDsgZm9udC13ZWlnaHQ6IG5vcm1hbDsgZmlsbDogcmdiKDM0LCAzNiwgNDIpOyIgY2xhc3M9ImRqcy1sYWJlbCI+PHRzcGFuIHk9IjM2LjQiIHg9IjEwLjU1NDY4NzUiPtC/0L7QuNGB0Log0LrQu9C40LXQvdGC0LAgPC90c3Bhbj48dHNwYW4geT0iNTAuOCIgeD0iMzcuMTQwNjI1Ij7QsiDQkdCUPC90c3Bhbj48L3RleHQ+PC9nPjxyZWN0IHN0eWxlPSJmaWxsOiBub25lOyBzdHJva2Utb3BhY2l0eTogMDsgc3Ryb2tlOiB3aGl0ZTsgc3Ryb2tlLXdpZHRoOiAxNXB4OyIgaGVpZ2h0PSI4MCIgd2lkdGg9IjEwMCIgeT0iMCIgeD0iMCIgY2xhc3M9ImRqcy1oaXQgZGpzLWhpdC1hbGwiLz48cmVjdCBzdHlsZT0iZmlsbDogbm9uZTsiIGNsYXNzPSJkanMtb3V0bGluZSIgaGVpZ2h0PSI5MCIgd2lkdGg9IjExMCIgcng9IjE0IiB5PSItNSIgeD0iLTUiLz48L2c+PC9nPjxnIGNsYXNzPSJkanMtZ3JvdXAiPjxnIHN0eWxlPSJkaXNwbGF5OiBibG9jazsiIHRyYW5zZm9ybT0idHJhbnNsYXRlKDEyMzEgNzkwKSIgZGF0YS1lbGVtZW50LWlkPSJHYXRld2F5XzF1c3F1YnYiIGNsYXNzPSJkanMtZWxlbWVudCBkanMtc2hhcGUiPjxnIGNsYXNzPSJkanMtdmlzdWFsIj48cG9seWdvbiBzdHlsZT0ic3Ryb2tlLWxpbmVjYXA6IHJvdW5kOyBzdHJva2UtbGluZWpvaW46IHJvdW5kOyBzdHJva2U6IHJnYigzNCwgMzYsIDQyKTsgc3Ryb2tlLXdpZHRoOiAycHg7IGZpbGw6IHdoaXRlOyBmaWxsLW9wYWNpdHk6IDAuOTU7IiBwb2ludHM9IjI1LDAgNTAsMjUgMjUsNTAgMCwyNSIvPjxwYXRoIHN0eWxlPSJmaWxsOiByZ2IoMzQsIDM2LCA0Mik7IHN0cm9rZS1saW5lY2FwOiByb3VuZDsgc3Ryb2tlLWxpbmVqb2luOiByb3VuZDsgc3Ryb2tlOiByZ2IoMzQsIDM2LCA0Mik7IHN0cm9rZS13aWR0aDogMXB4OyIgZD0ibSAxNiwxNSA3LjQyODU3MTQyODU3MTQzLDkuNzE0Mjg1NzE0Mjg1NzE1IC03LjQyODU3MTQyODU3MTQzLDkuNzE0Mjg1NzE0Mjg1NzE1IDMuNDI4NTcxNDI4NTcxNDI5LDAgNS43MTQyODU3MTQyODU3MTUsLTcuNDY0MjI4NTcxNDI4NTcyIDUuNzE0Mjg1NzE0Mjg1NzE1LDcuNDY0MjI4NTcxNDI4NTcyIDMuNDI4NTcxNDI4NTcxNDI5LDAgLTcuNDI4NTcxNDI4NTcxNDMsLTkuNzE0Mjg1NzE0Mjg1NzE1IDcuNDI4NTcxNDI4NTcxNDMsLTkuNzE0Mjg1NzE0Mjg1NzE1IC0zLjQyODU3MTQyODU3MTQyOSwwIC01LjcxNDI4NTcxNDI4NTcxNSw3LjQ2NDIyODU3MTQyODU3MiAtNS43MTQyODU3MTQyODU3MTUsLTcuNDY0MjI4NTcxNDI4NTcyIC0zLjQyODU3MTQyODU3MTQyOSwwIHoiLz48L2c+PHJlY3Qgc3R5bGU9ImZpbGw6IG5vbmU7IHN0cm9rZS1vcGFjaXR5OiAwOyBzdHJva2U6IHdoaXRlOyBzdHJva2Utd2lkdGg6IDE1cHg7IiBoZWlnaHQ9IjUwIiB3aWR0aD0iNTAiIHk9IjAiIHg9IjAiIGNsYXNzPSJkanMtaGl0IGRqcy1oaXQtYWxsIi8+PHJlY3Qgc3R5bGU9InRyYW5zZm9ybS1ib3g6IGZpbGwtYm94OyB0cmFuc2Zvcm06IHJvdGF0ZSg0NWRlZyk7IHRyYW5zZm9ybS1vcmlnaW46IGNlbnRlciBjZW50ZXI7IGZpbGw6IG5vbmU7IiBjbGFzcz0iZGpzLW91dGxpbmUiIGhlaWdodD0iNDYiIHdpZHRoPSI0NiIgcng9IjQiIHk9IjIiIHg9IjIiLz48L2c+PC9nPjxnIGNsYXNzPSJkanMtZ3JvdXAiPjxnIHN0eWxlPSJkaXNwbGF5OiBibG9jazsiIHRyYW5zZm9ybT0idHJhbnNsYXRlKDE1MTEgNzkwKSIgZGF0YS1lbGVtZW50LWlkPSJHYXRld2F5XzB0eHN3a2wiIGNsYXNzPSJkanMtZWxlbWVudCBkanMtc2hhcGUiPjxnIGNsYXNzPSJkanMtdmlzdWFsIj48cG9seWdvbiBzdHlsZT0ic3Ryb2tlLWxpbmVjYXA6IHJvdW5kOyBzdHJva2UtbGluZWpvaW46IHJvdW5kOyBzdHJva2U6IHJnYigzNCwgMzYsIDQyKTsgc3Ryb2tlLXdpZHRoOiAycHg7IGZpbGw6IHdoaXRlOyBmaWxsLW9wYWNpdHk6IDAuOTU7IiBwb2ludHM9IjI1LDAgNTAsMjUgMjUsNTAgMCwyNSIvPjxwYXRoIHN0eWxlPSJmaWxsOiByZ2IoMzQsIDM2LCA0Mik7IHN0cm9rZS1saW5lY2FwOiByb3VuZDsgc3Ryb2tlLWxpbmVqb2luOiByb3VuZDsgc3Ryb2tlOiByZ2IoMzQsIDM2LCA0Mik7IHN0cm9rZS13aWR0aDogMXB4OyIgZD0ibSAxNiwxNSA3LjQyODU3MTQyODU3MTQzLDkuNzE0Mjg1NzE0Mjg1NzE1IC03LjQyODU3MTQyODU3MTQzLDkuNzE0Mjg1NzE0Mjg1NzE1IDMuNDI4NTcxNDI4NTcxNDI5LDAgNS43MTQyODU3MTQyODU3MTUsLTcuNDY0MjI4NTcxNDI4NTcyIDUuNzE0Mjg1NzE0Mjg1NzE1LDcuNDY0MjI4NTcxNDI4NTcyIDMuNDI4NTcxNDI4NTcxNDI5LDAgLTcuNDI4NTcxNDI4NTcxNDMsLTkuNzE0Mjg1NzE0Mjg1NzE1IDcuNDI4NTcxNDI4NTcxNDMsLTkuNzE0Mjg1NzE0Mjg1NzE1IC0zLjQyODU3MTQyODU3MTQyOSwwIC01LjcxNDI4NTcxNDI4NTcxNSw3LjQ2NDIyODU3MTQyODU3MiAtNS43MTQyODU3MTQyODU3MTUsLTcuNDY0MjI4NTcxNDI4NTcyIC0zLjQyODU3MTQyODU3MTQyOSwwIHoiLz48L2c+PHJlY3Qgc3R5bGU9ImZpbGw6IG5vbmU7IHN0cm9rZS1vcGFjaXR5OiAwOyBzdHJva2U6IHdoaXRlOyBzdHJva2Utd2lkdGg6IDE1cHg7IiBoZWlnaHQ9IjUwIiB3aWR0aD0iNTAiIHk9IjAiIHg9IjAiIGNsYXNzPSJkanMtaGl0IGRqcy1oaXQtYWxsIi8+PHJlY3Qgc3R5bGU9InRyYW5zZm9ybS1ib3g6IGZpbGwtYm94OyB0cmFuc2Zvcm06IHJvdGF0ZSg0NWRlZyk7IHRyYW5zZm9ybS1vcmlnaW46IGNlbnRlciBjZW50ZXI7IGZpbGw6IG5vbmU7IiBjbGFzcz0iZGpzLW91dGxpbmUiIGhlaWdodD0iNDYiIHdpZHRoPSI0NiIgcng9IjQiIHk9IjIiIHg9IjIiLz48L2c+PC9nPjxnIGNsYXNzPSJkanMtZ3JvdXAiPjxnIHN0eWxlPSJkaXNwbGF5OiBibG9jazsiIHRyYW5zZm9ybT0idHJhbnNsYXRlKDEyNDMgMTA2NSkiIGRhdGEtZWxlbWVudC1pZD0iR2F0ZXdheV8wMzgwdGpiIiBjbGFzcz0iZGpzLWVsZW1lbnQgZGpzLXNoYXBlIj48ZyBjbGFzcz0iZGpzLXZpc3VhbCI+PHBvbHlnb24gc3R5bGU9InN0cm9rZS1saW5lY2FwOiByb3VuZDsgc3Ryb2tlLWxpbmVqb2luOiByb3VuZDsgc3Ryb2tlOiByZ2IoMzQsIDM2LCA0Mik7IHN0cm9rZS13aWR0aDogMnB4OyBmaWxsOiB3aGl0ZTsgZmlsbC1vcGFjaXR5OiAwLjk1OyIgcG9pbnRzPSIyNSwwIDUwLDI1IDI1LDUwIDAsMjUiLz48cGF0aCBzdHlsZT0iZmlsbDogcmdiKDM0LCAzNiwgNDIpOyBzdHJva2UtbGluZWNhcDogcm91bmQ7IHN0cm9rZS1saW5lam9pbjogcm91bmQ7IHN0cm9rZTogcmdiKDM0LCAzNiwgNDIpOyBzdHJva2Utd2lkdGg6IDFweDsiIGQ9Im0gMTYsMTUgNy40Mjg1NzE0Mjg1NzE0Myw5LjcxNDI4NTcxNDI4NTcxNSAtNy40Mjg1NzE0Mjg1NzE0Myw5LjcxNDI4NTcxNDI4NTcxNSAzLjQyODU3MTQyODU3MTQyOSwwIDUuNzE0Mjg1NzE0Mjg1NzE1LC03LjQ2NDIyODU3MTQyODU3MiA1LjcxNDI4NTcxNDI4NTcxNSw3LjQ2NDIyODU3MTQyODU3MiAzLjQyODU3MTQyODU3MTQyOSwwIC03LjQyODU3MTQyODU3MTQzLC05LjcxNDI4NTcxNDI4NTcxNSA3LjQyODU3MTQyODU3MTQzLC05LjcxNDI4NTcxNDI4NTcxNSAtMy40Mjg1NzE0Mjg1NzE0MjksMCAtNS43MTQyODU3MTQyODU3MTUsNy40NjQyMjg1NzE0Mjg1NzIgLTUuNzE0Mjg1NzE0Mjg1NzE1LC03LjQ2NDIyODU3MTQyODU3MiAtMy40Mjg1NzE0Mjg1NzE0MjksMCB6Ii8+PC9nPjxyZWN0IHN0eWxlPSJmaWxsOiBub25lOyBzdHJva2Utb3BhY2l0eTogMDsgc3Ryb2tlOiB3aGl0ZTsgc3Ryb2tlLXdpZHRoOiAxNXB4OyIgaGVpZ2h0PSI1MCIgd2lkdGg9IjUwIiB5PSIwIiB4PSIwIiBjbGFzcz0iZGpzLWhpdCBkanMtaGl0LWFsbCIvPjxyZWN0IHN0eWxlPSJ0cmFuc2Zvcm0tYm94OiBmaWxsLWJveDsgdHJhbnNmb3JtOiByb3RhdGUoNDVkZWcpOyB0cmFuc2Zvcm0tb3JpZ2luOiBjZW50ZXIgY2VudGVyOyBmaWxsOiBub25lOyIgY2xhc3M9ImRqcy1vdXRsaW5lIiBoZWlnaHQ9IjQ2IiB3aWR0aD0iNDYiIHJ4PSI0IiB5PSIyIiB4PSIyIi8+PC9nPjwvZz48ZyBjbGFzcz0iZGpzLWdyb3VwIj48ZyBzdHlsZT0iZGlzcGxheTogYmxvY2s7IiB0cmFuc2Zvcm09InRyYW5zbGF0ZSgxNzYzIDEwNjUpIiBkYXRhLWVsZW1lbnQtaWQ9IkdhdGV3YXlfMGYyMzlzbyIgY2xhc3M9ImRqcy1lbGVtZW50IGRqcy1zaGFwZSI+PGcgY2xhc3M9ImRqcy12aXN1YWwiPjxwb2x5Z29uIHN0eWxlPSJzdHJva2UtbGluZWNhcDogcm91bmQ7IHN0cm9rZS1saW5lam9pbjogcm91bmQ7IHN0cm9rZTogcmdiKDM0LCAzNiwgNDIpOyBzdHJva2Utd2lkdGg6IDJweDsgZmlsbDogd2hpdGU7IGZpbGwtb3BhY2l0eTogMC45NTsiIHBvaW50cz0iMjUsMCA1MCwyNSAyNSw1MCAwLDI1Ii8+PHBhdGggc3R5bGU9ImZpbGw6IHJnYigzNCwgMzYsIDQyKTsgc3Ryb2tlLWxpbmVjYXA6IHJvdW5kOyBzdHJva2UtbGluZWpvaW46IHJvdW5kOyBzdHJva2U6IHJnYigzNCwgMzYsIDQyKTsgc3Ryb2tlLXdpZHRoOiAxcHg7IiBkPSJtIDE2LDE1IDcuNDI4NTcxNDI4NTcxNDMsOS43MTQyODU3MTQyODU3MTUgLTcuNDI4NTcxNDI4NTcxNDMsOS43MTQyODU3MTQyODU3MTUgMy40Mjg1NzE0Mjg1NzE0MjksMCA1LjcxNDI4NTcxNDI4NTcxNSwtNy40NjQyMjg1NzE0Mjg1NzIgNS43MTQyODU3MTQyODU3MTUsNy40NjQyMjg1NzE0Mjg1NzIgMy40Mjg1NzE0Mjg1NzE0MjksMCAtNy40Mjg1NzE0Mjg1NzE0MywtOS43MTQyODU3MTQyODU3MTUgNy40Mjg1NzE0Mjg1NzE0MywtOS43MTQyODU3MTQyODU3MTUgLTMuNDI4NTcxNDI4NTcxNDI5LDAgLTUuNzE0Mjg1NzE0Mjg1NzE1LDcuNDY0MjI4NTcxNDI4NTcyIC01LjcxNDI4NTcxNDI4NTcxNSwtNy40NjQyMjg1NzE0Mjg1NzIgLTMuNDI4NTcxNDI4NTcxNDI5LDAgeiIvPjwvZz48cmVjdCBzdHlsZT0iZmlsbDogbm9uZTsgc3Ryb2tlLW9wYWNpdHk6IDA7IHN0cm9rZTogd2hpdGU7IHN0cm9rZS13aWR0aDogMTVweDsiIGhlaWdodD0iNTAiIHdpZHRoPSI1MCIgeT0iMCIgeD0iMCIgY2xhc3M9ImRqcy1oaXQgZGpzLWhpdC1hbGwiLz48cmVjdCBzdHlsZT0idHJhbnNmb3JtLWJveDogZmlsbC1ib3g7IHRyYW5zZm9ybTogcm90YXRlKDQ1ZGVnKTsgdHJhbnNmb3JtLW9yaWdpbjogY2VudGVyIGNlbnRlcjsgZmlsbDogbm9uZTsiIGNsYXNzPSJkanMtb3V0bGluZSIgaGVpZ2h0PSI0NiIgd2lkdGg9IjQ2IiByeD0iNCIgeT0iMiIgeD0iMiIvPjwvZz48L2c+PGcgY2xhc3M9ImRqcy1ncm91cCI+PGcgc3R5bGU9ImRpc3BsYXk6IGJsb2NrOyIgdHJhbnNmb3JtPSJ0cmFuc2xhdGUoMTM3OCAxMTYwKSIgZGF0YS1lbGVtZW50LWlkPSJBY3Rpdml0eV8wMXkwaHgwIiBjbGFzcz0iZGpzLWVsZW1lbnQgZGpzLXNoYXBlIj48ZyBjbGFzcz0iZGpzLXZpc3VhbCI+PHJlY3Qgc3R5bGU9InN0cm9rZS1saW5lY2FwOiByb3VuZDsgc3Ryb2tlLWxpbmVqb2luOiByb3VuZDsgc3Ryb2tlOiByZ2IoMzQsIDM2LCA0Mik7IHN0cm9rZS13aWR0aDogMnB4OyBmaWxsOiB3aGl0ZTsgZmlsbC1vcGFjaXR5OiAwLjk1OyIgcnk9IjEwIiByeD0iMTAiIGhlaWdodD0iODAiIHdpZHRoPSIxMDAiIHk9IjAiIHg9IjAiLz48dGV4dCBzdHlsZT0iZm9udC1mYW1pbHk6IEFyaWFsLCBzYW5zLXNlcmlmOyBmb250LXNpemU6IDEycHg7IGZvbnQtd2VpZ2h0OiBub3JtYWw7IGZpbGw6IHJnYigzNCwgMzYsIDQyKTsiIGNsYXNzPSJkanMtbGFiZWwiPjx0c3BhbiB5PSIyOS4yMDAwMDAwMDAwMDAwMDMiIHg9IjE4Ljg3NSI+0LjQt9C80LXQvdC40YLRjCDQuCA8L3RzcGFuPjx0c3BhbiB5PSI0My42IiB4PSIyMS40NDUzMTI1Ij7RgdC+0YXRgNCw0L3QuNGC0YwgPC90c3Bhbj48dHNwYW4geT0iNTgiIHg9IjE0LjM1OTM3NSI+0LTQsNC90L3Ri9C1INCyINCR0JQ8L3RzcGFuPjwvdGV4dD48Y2lyY2xlIHN0eWxlPSJzdHJva2UtbGluZWNhcDogcm91bmQ7IHN0cm9rZS1saW5lam9pbjogcm91bmQ7IHN0cm9rZTogbm9uZTsgc3Ryb2tlLXdpZHRoOiAycHg7IGZpbGw6IHdoaXRlOyIgdHJhbnNmb3JtPSJ0cmFuc2xhdGUoNiwgNikiIHI9IjUiIGN5PSI1IiBjeD0iNSIvPjxwYXRoIHN0eWxlPSJmaWxsOiB3aGl0ZTsgc3Ryb2tlLWxpbmVjYXA6IHJvdW5kOyBzdHJva2UtbGluZWpvaW46IHJvdW5kOyBzdHJva2U6IHJnYigzNCwgMzYsIDQyKTsgc3Ryb2tlLXdpZHRoOiAxcHg7IiBkPSJtIDEyLDE4IHYgLTEuNzEzMzUgYyAwLjM1MjMyNiwtMC4wNzA1IDAuNzAzOTMyLC0wLjE3ODM4IDEuMDQ3NjI4LC0wLjMyMTMzIDAuMzQ0NDE2LC0wLjE0NDY1IDAuNjY1ODIyLC0wLjMyMTMzIDAuOTY2Mzc3LC0wLjUyMTQ1IGwgMS4xOTQzMSwxLjE4MDA1IDEuNTY3NDg3LC0xLjU3Njg4IC0xLjE5NTAyOCwtMS4xODAxNCBjIDAuNDAzMzc2LC0wLjYxMzk0IDAuNjgzMDc5LC0xLjI5OTA4IDAuODI1NDQ3LC0yLjAxODI0IGwgMS42MjIxMzMsLTAuMDEgdiAtMi4yMTk2IGwgLTEuNjM2NTE0LDAuMDEgYyAtMC4wNzMzMywtMC4zNTE1MyAtMC4xNzgzMTksLTAuNzAwMjQgLTAuMzIzNTY0LC0xLjA0MzcyIC0wLjE0NTI0NCwtMC4zNDQwNiAtMC4zMjE0MDcsLTAuNjY0NCAtMC41MjI3MzUsLTAuOTYyMTcgbCAxLjEzMTAzNSwtMS4xMzYzMSAtMS41ODMzMDUsLTEuNTYyOTMgLTEuMTI5NTk4LDEuMTM1ODkgYyAtMC42MTQwNTIsLTAuNDAxMDggLTEuMzAyODgzLC0wLjY4MDkzIC0yLjAyMjYzMywtMC44MjI0NyBsIDAuMDA5MywtMS42MTg1MiBoIC0yLjI0MTE3MyBsIDAuMDA0MiwxLjYzMTI0IGMgLTAuMzUzNzYzLDAuMDczNiAtMC43MDUzNjksMC4xNzk3NyAtMS4wNDk3ODUsMC4zMjM3MSAtMC4zNDQ0MTUsMC4xNDQzNyAtMC42NjUxMDIsMC4zMjA5MiAtMC45NjM1MDA2LDAuNTIwNDYgbCAtMS4xNjk4NjI4LC0xLjE1ODIzIC0xLjU2Njc2OTEsMS41NzkyIDEuMTY4NDI2NSwxLjE1NjY5IGMgLTAuNDAyNjU3MywwLjYxMjgzIC0wLjY4MzA4LDEuMjk3OTcgLTAuODI0NzI4NywyLjAxNzEzIGwgLTEuNjU4ODA0MSwwLjAwMyB2IDIuMjIxNzQgbCAxLjY3MjQ2NDgsLTAuMDA2IGMgMC4wNzMzMjcsMC4zNTA3NyAwLjE3OTc1OTgsMC43MDI0MyAwLjMyNDI4NTEsMS4wNDQ3MiAwLjE0NTI0MjgsMC4zNDQ0OCAwLjMyMTQwNjQsMC42NjQ0IDAuNTIyNzMzOSwwLjk2MDY2IGwgLTEuMTk5MzQzMSwxLjE5NzIzIDEuNTg0MDI1NiwxLjU2MDExIDEuMTk2NDY2OCwtMS4xOTM0OCBjIDAuNjE0MDUxNywwLjQwMzQ2IDEuMzAyODgyNywwLjY4MjMyIDIuMDIzMzUxNywwLjgyMzMxIGwgNy4xOWUtNCwxLjY5ODkyIGggMi4yMjY4NDggeiBtIDAuMjIxNDYyLC0zLjk5NTcgYyAtMS43ODg5NDgsMC43NTAyIC0zLjg1NzYsLTAuMDkyOCAtNC42MDk3MDU1LC0xLjg3NDM4IC0wLjc1MjEwNjUsLTEuNzgzMjEgMC4wOTA1OTgsLTMuODQ2MjcgMS44ODAyNjQ1LC00LjU5NjA0IDEuNzg4MjMsLTAuNzQ5MzYgMy44NTY4ODEsMC4wOTI5IDQuNjA4OTg3LDEuODc0MzcgMC43NTIxMDYsMS43ODE2NSAtMC4wOTA2LDMuODQ2MTIgLTEuODc5NTQ2LDQuNTk2MDUgeiIvPjxjaXJjbGUgc3R5bGU9InN0cm9rZS1saW5lY2FwOiByb3VuZDsgc3Ryb2tlLWxpbmVqb2luOiByb3VuZDsgc3Ryb2tlOiBub25lOyBzdHJva2Utd2lkdGg6IDJweDsgZmlsbDogd2hpdGU7IiB0cmFuc2Zvcm09InRyYW5zbGF0ZSgxMSwgMTApIiByPSI1IiBjeT0iNSIgY3g9IjUiLz48cGF0aCBzdHlsZT0iZmlsbDogd2hpdGU7IHN0cm9rZS1saW5lY2FwOiByb3VuZDsgc3Ryb2tlLWxpbmVqb2luOiByb3VuZDsgc3Ryb2tlOiByZ2IoMzQsIDM2LCA0Mik7IHN0cm9rZS13aWR0aDogMXB4OyIgZD0ibSAxNywyMiB2IC0xLjcxMzM1IGMgMC4zNTIzMjYsLTAuMDcwNSAwLjcwMzkzMiwtMC4xNzgzOCAxLjA0NzYyOCwtMC4zMjEzMyAwLjM0NDQxNiwtMC4xNDQ2NSAwLjY2NTgyMiwtMC4zMjEzMyAwLjk2NjM3NywtMC41MjE0NSBsIDEuMTk0MzEsMS4xODAwNSAxLjU2NzQ4NywtMS41NzY4OCAtMS4xOTUwMjgsLTEuMTgwMTQgYyAwLjQwMzM3NiwtMC42MTM5NCAwLjY4MzA3OSwtMS4yOTkwOCAwLjgyNTQ0NywtMi4wMTgyNCBsIDEuNjIyMTMzLC0wLjAxIHYgLTIuMjE5NiBsIC0xLjYzNjUxNCwwLjAxIGMgLTAuMDczMzMsLTAuMzUxNTMgLTAuMTc4MzE5LC0wLjcwMDI0IC0wLjMyMzU2NCwtMS4wNDM3MiAtMC4xNDUyNDQsLTAuMzQ0MDYgLTAuMzIxNDA3LC0wLjY2NDQgLTAuNTIyNzM1LC0wLjk2MjE3IGwgMS4xMzEwMzUsLTEuMTM2MzEgLTEuNTgzMzA1LC0xLjU2MjkzIC0xLjEyOTU5OCwxLjEzNTg5IGMgLTAuNjE0MDUyLC0wLjQwMTA4IC0xLjMwMjg4MywtMC42ODA5MyAtMi4wMjI2MzMsLTAuODIyNDcgbCAwLjAwOTMsLTEuNjE4NTIgaCAtMi4yNDExNzMgbCAwLjAwNDIsMS42MzEyNCBjIC0wLjM1Mzc2MywwLjA3MzYgLTAuNzA1MzY5LDAuMTc5NzcgLTEuMDQ5Nzg1LDAuMzIzNzEgLTAuMzQ0NDE1LDAuMTQ0MzcgLTAuNjY1MTAyLDAuMzIwOTIgLTAuOTYzNTAwNiwwLjUyMDQ2IGwgLTEuMTY5ODYyOCwtMS4xNTgyMyAtMS41NjY3NjkxLDEuNTc5MiAxLjE2ODQyNjUsMS4xNTY2OSBjIC0wLjQwMjY1NzMsMC42MTI4MyAtMC42ODMwOCwxLjI5Nzk3IC0wLjgyNDcyODcsMi4wMTcxMyBsIC0xLjY1ODgwNDEsMC4wMDMgdiAyLjIyMTc0IGwgMS42NzI0NjQ4LC0wLjAwNiBjIDAuMDczMzI3LDAuMzUwNzcgMC4xNzk3NTk4LDAuNzAyNDMgMC4zMjQyODUxLDEuMDQ0NzIgMC4xNDUyNDI4LDAuMzQ0NDggMC4zMjE0MDY0LDAuNjY0NCAwLjUyMjczMzksMC45NjA2NiBsIC0xLjE5OTM0MzEsMS4xOTcyMyAxLjU4NDAyNTYsMS41NjAxMSAxLjE5NjQ2NjgsLTEuMTkzNDggYyAwLjYxNDA1MTcsMC40MDM0NiAxLjMwMjg4MjcsMC42ODIzMiAyLjAyMzM1MTcsMC44MjMzMSBsIDcuMTllLTQsMS42OTg5MiBoIDIuMjI2ODQ4IHogbSAwLjIyMTQ2MiwtMy45OTU3IGMgLTEuNzg4OTQ4LDAuNzUwMiAtMy44NTc2LC0wLjA5MjggLTQuNjA5NzA1NSwtMS44NzQzOCAtMC43NTIxMDY1LC0xLjc4MzIxIDAuMDkwNTk4LC0zLjg0NjI3IDEuODgwMjY0NSwtNC41OTYwNCAxLjc4ODIzLC0wLjc0OTM2IDMuODU2ODgxLDAuMDkyOSA0LjYwODk4NywxLjg3NDM3IDAuNzUyMTA2LDEuNzgxNjUgLTAuMDkwNiwzLjg0NjEyIC0xLjg3OTU0Niw0LjU5NjA1IHoiLz48L2c+PHJlY3Qgc3R5bGU9ImZpbGw6IG5vbmU7IHN0cm9rZS1vcGFjaXR5OiAwOyBzdHJva2U6IHdoaXRlOyBzdHJva2Utd2lkdGg6IDE1cHg7IiBoZWlnaHQ9IjgwIiB3aWR0aD0iMTAwIiB5PSIwIiB4PSIwIiBjbGFzcz0iZGpzLWhpdCBkanMtaGl0LWFsbCIvPjxyZWN0IHN0eWxlPSJmaWxsOiBub25lOyIgY2xhc3M9ImRqcy1vdXRsaW5lIiBoZWlnaHQ9IjkwIiB3aWR0aD0iMTEwIiByeD0iMTQiIHk9Ii01IiB4PSItNSIvPjwvZz48L2c+PGcgY2xhc3M9ImRqcy1ncm91cCI+PGcgc3R5bGU9ImRpc3BsYXk6IGJsb2NrOyIgdHJhbnNmb3JtPSJ0cmFuc2xhdGUoMTQ2OCA5NzApIiBkYXRhLWVsZW1lbnQtaWQ9IkFjdGl2aXR5XzFhanVpMXIiIGNsYXNzPSJkanMtZWxlbWVudCBkanMtc2hhcGUiPjxnIGNsYXNzPSJkanMtdmlzdWFsIj48cmVjdCBzdHlsZT0ic3Ryb2tlLWxpbmVjYXA6IHJvdW5kOyBzdHJva2UtbGluZWpvaW46IHJvdW5kOyBzdHJva2U6IHJnYigzNCwgMzYsIDQyKTsgc3Ryb2tlLXdpZHRoOiAycHg7IGZpbGw6IHdoaXRlOyBmaWxsLW9wYWNpdHk6IDAuOTU7IiByeT0iMTAiIHJ4PSIxMCIgaGVpZ2h0PSI4MCIgd2lkdGg9IjEwMCIgeT0iMCIgeD0iMCIvPjx0ZXh0IHN0eWxlPSJmb250LWZhbWlseTogQXJpYWwsIHNhbnMtc2VyaWY7IGZvbnQtc2l6ZTogMTJweDsgZm9udC13ZWlnaHQ6IG5vcm1hbDsgZmlsbDogcmdiKDM0LCAzNiwgNDIpOyIgY2xhc3M9ImRqcy1sYWJlbCI+PHRzcGFuIHk9IjIyIiB4PSIyNy45NDUzMTI1Ij7QstC10YDQvdGD0YLRjCA8L3RzcGFuPjx0c3BhbiB5PSIzNi40IiB4PSIxOC42MDkzNzUiPtGB0L7QvtCx0YnQtdC90LjQtSA8L3RzcGFuPjx0c3BhbiB5PSI1MC44IiB4PSIyMi44MDQ2ODc1Ij7QutC70LjQtdC90YIg0L3QtSA8L3RzcGFuPjx0c3BhbiB5PSI2NS4xOTk5OTk5OTk5OTk5OSIgeD0iMjkuODQzNzUiPtC90LDQudC00LXQvTwvdHNwYW4+PC90ZXh0PjwvZz48cmVjdCBzdHlsZT0iZmlsbDogbm9uZTsgc3Ryb2tlLW9wYWNpdHk6IDA7IHN0cm9rZTogd2hpdGU7IHN0cm9rZS13aWR0aDogMTVweDsiIGhlaWdodD0iODAiIHdpZHRoPSIxMDAiIHk9IjAiIHg9IjAiIGNsYXNzPSJkanMtaGl0IGRqcy1oaXQtYWxsIi8+PHJlY3Qgc3R5bGU9ImZpbGw6IG5vbmU7IiBjbGFzcz0iZGpzLW91dGxpbmUiIGhlaWdodD0iOTAiIHdpZHRoPSIxMTAiIHJ4PSIxNCIgeT0iLTUiIHg9Ii01Ii8+PC9nPjwvZz48ZyBjbGFzcz0iZGpzLWdyb3VwIj48ZyBzdHlsZT0iZGlzcGxheTogYmxvY2s7IiB0cmFuc2Zvcm09InRyYW5zbGF0ZSgxNTY4IDExNjApIiBkYXRhLWVsZW1lbnQtaWQ9IkFjdGl2aXR5XzBuaXF3dTciIGNsYXNzPSJkanMtZWxlbWVudCBkanMtc2hhcGUiPjxnIGNsYXNzPSJkanMtdmlzdWFsIj48cmVjdCBzdHlsZT0ic3Ryb2tlLWxpbmVjYXA6IHJvdW5kOyBzdHJva2UtbGluZWpvaW46IHJvdW5kOyBzdHJva2U6IHJnYigzNCwgMzYsIDQyKTsgc3Ryb2tlLXdpZHRoOiAycHg7IGZpbGw6IHdoaXRlOyBmaWxsLW9wYWNpdHk6IDAuOTU7IiByeT0iMTAiIHJ4PSIxMCIgaGVpZ2h0PSI4MCIgd2lkdGg9IjEwMCIgeT0iMCIgeD0iMCIvPjx0ZXh0IHN0eWxlPSJmb250LWZhbWlseTogQXJpYWwsIHNhbnMtc2VyaWY7IGZvbnQtc2l6ZTogMTJweDsgZm9udC13ZWlnaHQ6IG5vcm1hbDsgZmlsbDogcmdiKDM0LCAzNiwgNDIpOyIgY2xhc3M9ImRqcy1sYWJlbCI+PHRzcGFuIHk9IjE0Ljc5OTk5OTk5OTk5OTk5OSIgeD0iMjcuOTQ1MzEyNSI+0LLQtdGA0L3Rg9GC0YwgPC90c3Bhbj48dHNwYW4geT0iMjkuMTk5OTk5OTk5OTk5OTk2IiB4PSIxMC4xNzE4NzUiPtGB0L7QvtCx0YnQtdC90LjQtSDQvtCxIDwvdHNwYW4+PHRzcGFuIHk9IjQzLjU5OTk5OTk5OTk5OTk5NCIgeD0iMjEuODIwMzEyNSI+0YPRgdC/0LXRiNC90L7QvCA8L3RzcGFuPjx0c3BhbiB5PSI1Ny45OTk5OTk5OTk5OTk5OSIgeD0iMTkuNzY1NjI1Ij7QuNC30LzQtdC90LXQvdC40LggPC90c3Bhbj48dHNwYW4geT0iNzIuMzk5OTk5OTk5OTk5OTkiIHg9IjI5LjIxODc1Ij7QtNCw0L3QvdGL0YU8L3RzcGFuPjwvdGV4dD48L2c+PHJlY3Qgc3R5bGU9ImZpbGw6IG5vbmU7IHN0cm9rZS1vcGFjaXR5OiAwOyBzdHJva2U6IHdoaXRlOyBzdHJva2Utd2lkdGg6IDE1cHg7IiBoZWlnaHQ9IjgwIiB3aWR0aD0iMTAwIiB5PSIwIiB4PSIwIiBjbGFzcz0iZGpzLWhpdCBkanMtaGl0LWFsbCIvPjxyZWN0IHN0eWxlPSJmaWxsOiBub25lOyIgY2xhc3M9ImRqcy1vdXRsaW5lIiBoZWlnaHQ9IjkwIiB3aWR0aD0iMTEwIiByeD0iMTQiIHk9Ii01IiB4PSItNSIvPjwvZz48L2c+PGcgY2xhc3M9ImRqcy1ncm91cCI+PGcgc3R5bGU9ImRpc3BsYXk6IGJsb2NrOyIgdHJhbnNmb3JtPSJ0cmFuc2xhdGUoMTA5MSA5MjUpIiBkYXRhLWVsZW1lbnQtaWQ9IkRhdGFTdG9yZVJlZmVyZW5jZV8xOXpibm82IiBjbGFzcz0iZGpzLWVsZW1lbnQgZGpzLXNoYXBlIj48ZyBjbGFzcz0iZGpzLXZpc3VhbCI+PHBhdGggc3R5bGU9ImZpbGw6IHdoaXRlOyBzdHJva2UtbGluZWNhcDogcm91bmQ7IHN0cm9rZS1saW5lam9pbjogcm91bmQ7IHN0cm9rZTogcmdiKDM0LCAzNiwgNDIpOyBzdHJva2Utd2lkdGg6IDJweDsgZmlsbC1vcGFjaXR5OiAwLjk1OyIgZD0ibSAgMCw2LjY1IGwgIDAsMzYuODg1MjQ1OTAxNjM5MzQ0IGMgIDEuNjM5MzQ0MjYyMjk1MDgyLDguMTk2NzIxMzExNDc1NDExIDQ3LjU0MDk4MzYwNjU1NzM3Niw4LjE5NjcyMTMxMTQ3NTQxMSAgNDkuMTgwMzI3ODY4ODUyNDYsMCBsICAwLC0zNi44ODUyNDU5MDE2MzkzNDQgYyAtMS42MzkzNDQyNjIyOTUwODIsLTguMTk2NzIxMzExNDc1NDExIC00Ny41NDA5ODM2MDY1NTczNzYsLTguMTk2NzIxMzExNDc1NDExIC00OS4xODAzMjc4Njg4NTI0NiwwYyAgMS42MzkzNDQyNjIyOTUwODIsOC4xOTY3MjEzMTE0NzU0MTEgNDcuNTQwOTgzNjA2NTU3Mzc2LDguMTk2NzIxMzExNDc1NDExICA0OS4xODAzMjc4Njg4NTI0NiwwIG0gIC00OS4xODAzMjc4Njg4NTI0Niw1LjczNzcwNDkxODAzMjc4N2MgIDEuNjM5MzQ0MjYyMjk1MDgyLDguMTk2NzIxMzExNDc1NDExIDQ3LjU0MDk4MzYwNjU1NzM3Niw4LjE5NjcyMTMxMTQ3NTQxMSA0OS4xODAzMjc4Njg4NTI0NiwwbSAgLTQ5LjE4MDMyNzg2ODg1MjQ2LDUuNzM3NzA0OTE4MDMyNzg3YyAgMS42MzkzNDQyNjIyOTUwODIsOC4xOTY3MjEzMTE0NzU0MTEgNDcuNTQwOTgzNjA2NTU3Mzc2LDguMTk2NzIxMzExNDc1NDExICA0OS4xODAzMjc4Njg4NTI0NiwwIi8+PC9nPjxyZWN0IHN0eWxlPSJmaWxsOiBub25lOyBzdHJva2Utb3BhY2l0eTogMDsgc3Ryb2tlOiB3aGl0ZTsgc3Ryb2tlLXdpZHRoOiAxNXB4OyIgaGVpZ2h0PSI1MCIgd2lkdGg9IjUwIiB5PSIwIiB4PSIwIiBjbGFzcz0iZGpzLWhpdCBkanMtaGl0LWFsbCIvPjxwYXRoIHN0eWxlPSJzdHJva2Utd2lkdGg6IDJweDsgZmlsbDogbm9uZTsiIGNsYXNzPSJkanMtb3V0bGluZSIgdHJhbnNmb3JtPSJ0cmFuc2xhdGUoLTYsIC02KSIgZD0iTTEuMDM4NDUgNDguMTM0N0MxLjAzODQ1IDQ5LjM1MTEgMS4wNzI5NSA1MC43NTggMS4zODM0MiA1Mi4wNjRDMS42OTk0OSA1My4zOTM4IDIuMzI0MjggNTQuNzE1NCAzLjU2MzgzIDU1LjY0MjhDNi4wMjUzMyA1Ny40ODQxIDEwLjExNjEgNTguNzY4NSAxNC44MjEyIDU5LjYwNjdDMTkuNTc3MiA2MC40NTM4IDI1LjEzODggNjAuODczOCAzMC42ODMxIDYwLjg3MzhDMzYuMjI3NiA2MC44NzM4IDQxLjc4OTEgNjAuNDUzOCA0Ni41NDUgNTkuNjA2N0M1MS4yNTA0IDU4Ljc2ODcgNTUuMzQxMiA1Ny40ODQyIDU3LjgwMjggNTUuNjQyOUM1OS4wNDI0IDU0LjcxNTYgNTkuNjY3MyA1My4zOTM4IDU5Ljk4MzQgNTIuMDY0QzYwLjI5MzggNTAuNzU3OSA2MC4zMjg1IDQ5LjM1MSA2MC4zMjg1IDQ4LjEzNDRWMTMuODQxNUM2MC4zMjg1IDEyLjYyNDkgNjAuMjkzOCAxMS4yMTggNTkuOTgzNCA5LjkxMTcxQzU5LjY2NzMgOC41ODE5NCA1OS4wNDIzIDcuMjYwMiA1Ny44MDI3IDYuMzMyOTRDNTUuMzQxIDQuNDkxNjggNTEuMjUwMyAzLjIwNzIzIDQ2LjU0NSAyLjM2OTE0QzQxLjc4OTEgMS41MjIgMzYuMjI3NiAxLjEwMjA0IDMwLjY4MzEgMS4xMDIwNUMyNS4xMzg4IDEuMTAyMDYgMTkuNTc3MiAxLjUyMjA2IDE0LjgyMTMgMi4zNjkyM0MxMC4xMTYyIDMuMjA3MzQgNi4wMjU0MyA0LjQ5MTgzIDMuNTYzOSA2LjMzMzE0QzIuMzI0MzMgNy4yNjAzOCAxLjY5OTUxIDguNTgyMDYgMS4zODM0MyA5LjkxMTgxQzEuMDcyOTUgMTEuMjE3OSAxLjAzODQ1IDEyLjYyNDcgMS4wMzg0NSAxMy44NDExVjQ4LjEzNDdaIi8+PC9nPjwvZz48ZyBjbGFzcz0iZGpzLWdyb3VwIj48ZyBzdHlsZT0iZGlzcGxheTogYmxvY2s7IiB0cmFuc2Zvcm09InRyYW5zbGF0ZSgxMDY2IDk0MykiIGRhdGEtZWxlbWVudC1pZD0iRGF0YVN0b3JlUmVmZXJlbmNlXzE5emJubzZfbGFiZWwiIGNsYXNzPSJkanMtZWxlbWVudCBkanMtc2hhcGUiPjxnIGNsYXNzPSJkanMtdmlzdWFsIj48dGV4dCBzdHlsZT0iZm9udC1mYW1pbHk6IEFyaWFsLCBzYW5zLXNlcmlmOyBmb250LXNpemU6IDExcHg7IGZvbnQtd2VpZ2h0OiBub3JtYWw7IGZpbGw6IHJnYigzNCwgMzYsIDQyKTsiIGNsYXNzPSJkanMtbGFiZWwiPjx0c3BhbiB5PSI5Ljg5OTk5OTk5OTk5OTk5OSIgeD0iMCI+0JHQlDwvdHNwYW4+PC90ZXh0PjwvZz48cmVjdCBzdHlsZT0iZmlsbDogbm9uZTsgc3Ryb2tlLW9wYWNpdHk6IDA7IHN0cm9rZTogd2hpdGU7IHN0cm9rZS13aWR0aDogMTVweDsiIGhlaWdodD0iMTQiIHdpZHRoPSIxNSIgeT0iMCIgeD0iMCIgY2xhc3M9ImRqcy1oaXQgZGpzLWhpdC1hbGwiLz48cmVjdCBzdHlsZT0iZmlsbDogbm9uZTsiIGNsYXNzPSJkanMtb3V0bGluZSIgaGVpZ2h0PSIyNCIgd2lkdGg9IjI1IiByeD0iNCIgeT0iLTUiIHg9Ii01Ii8+PC9nPjwvZz48ZyBjbGFzcz0iZGpzLWdyb3VwIj48ZyBzdHlsZT0iZGlzcGxheTogYmxvY2s7IiB0cmFuc2Zvcm09InRyYW5zbGF0ZSg3MDYgNzc1KSIgZGF0YS1lbGVtZW50LWlkPSJBY3Rpdml0eV8xMWFxdXUzIiBjbGFzcz0iZGpzLWVsZW1lbnQgZGpzLXNoYXBlIj48ZyBjbGFzcz0iZGpzLXZpc3VhbCI+PHJlY3Qgc3R5bGU9InN0cm9rZS1saW5lY2FwOiByb3VuZDsgc3Ryb2tlLWxpbmVqb2luOiByb3VuZDsgc3Ryb2tlOiByZ2IoMzQsIDM2LCA0Mik7IHN0cm9rZS13aWR0aDogMnB4OyBmaWxsOiB3aGl0ZTsgZmlsbC1vcGFjaXR5OiAwLjk1OyIgcnk9IjEwIiByeD0iMTAiIGhlaWdodD0iODAiIHdpZHRoPSIxMDAiIHk9IjAiIHg9IjAiLz48dGV4dCBzdHlsZT0iZm9udC1mYW1pbHk6IEFyaWFsLCBzYW5zLXNlcmlmOyBmb250LXNpemU6IDEycHg7IGZvbnQtd2VpZ2h0OiBub3JtYWw7IGZpbGw6IHJnYigzNCwgMzYsIDQyKTsiIGNsYXNzPSJkanMtbGFiZWwiPjx0c3BhbiB5PSIzNi40IiB4PSIyMS4wNjI1Ij7QvtCx0YDQsNCx0L7RgtC60LAgPC90c3Bhbj48dHNwYW4geT0iNTAuOCIgeD0iMjcuNjQ4NDM3NSI+0LfQsNC/0YDQvtGB0LA8L3RzcGFuPjwvdGV4dD48L2c+PHJlY3Qgc3R5bGU9ImZpbGw6IG5vbmU7IHN0cm9rZS1vcGFjaXR5OiAwOyBzdHJva2U6IHdoaXRlOyBzdHJva2Utd2lkdGg6IDE1cHg7IiBoZWlnaHQ9IjgwIiB3aWR0aD0iMTAwIiB5PSIwIiB4PSIwIiBjbGFzcz0iZGpzLWhpdCBkanMtaGl0LWFsbCIvPjxyZWN0IHN0eWxlPSJmaWxsOiBub25lOyIgY2xhc3M9ImRqcy1vdXRsaW5lIiBoZWlnaHQ9IjkwIiB3aWR0aD0iMTEwIiByeD0iMTQiIHk9Ii01IiB4PSItNSIvPjwvZz48L2c+PGcgY2xhc3M9ImRqcy1ncm91cCI+PGcgc3R5bGU9ImRpc3BsYXk6IGJsb2NrOyIgdHJhbnNmb3JtPSJ0cmFuc2xhdGUoODYzIDkyNSkiIGRhdGEtZWxlbWVudC1pZD0iR2F0ZXdheV8xeWVxY3N3IiBjbGFzcz0iZGpzLWVsZW1lbnQgZGpzLXNoYXBlIj48ZyBjbGFzcz0iZGpzLXZpc3VhbCI+PHBvbHlnb24gc3R5bGU9InN0cm9rZS1saW5lY2FwOiByb3VuZDsgc3Ryb2tlLWxpbmVqb2luOiByb3VuZDsgc3Ryb2tlOiByZ2IoMzQsIDM2LCA0Mik7IHN0cm9rZS13aWR0aDogMnB4OyBmaWxsOiB3aGl0ZTsgZmlsbC1vcGFjaXR5OiAwLjk1OyIgcG9pbnRzPSIyNSwwIDUwLDI1IDI1LDUwIDAsMjUiLz48cGF0aCBzdHlsZT0iZmlsbDogcmdiKDM0LCAzNiwgNDIpOyBzdHJva2UtbGluZWNhcDogcm91bmQ7IHN0cm9rZS1saW5lam9pbjogcm91bmQ7IHN0cm9rZTogcmdiKDM0LCAzNiwgNDIpOyBzdHJva2Utd2lkdGg6IDFweDsiIGQ9Im0gMTYsMTUgNy40Mjg1NzE0Mjg1NzE0Myw5LjcxNDI4NTcxNDI4NTcxNSAtNy40Mjg1NzE0Mjg1NzE0Myw5LjcxNDI4NTcxNDI4NTcxNSAzLjQyODU3MTQyODU3MTQyOSwwIDUuNzE0Mjg1NzE0Mjg1NzE1LC03LjQ2NDIyODU3MTQyODU3MiA1LjcxNDI4NTcxNDI4NTcxNSw3LjQ2NDIyODU3MTQyODU3MiAzLjQyODU3MTQyODU3MTQyOSwwIC03LjQyODU3MTQyODU3MTQzLC05LjcxNDI4NTcxNDI4NTcxNSA3LjQyODU3MTQyODU3MTQzLC05LjcxNDI4NTcxNDI4NTcxNSAtMy40Mjg1NzE0Mjg1NzE0MjksMCAtNS43MTQyODU3MTQyODU3MTUsNy40NjQyMjg1NzE0Mjg1NzIgLTUuNzE0Mjg1NzE0Mjg1NzE1LC03LjQ2NDIyODU3MTQyODU3MiAtMy40Mjg1NzE0Mjg1NzE0MjksMCB6Ii8+PC9nPjxyZWN0IHN0eWxlPSJmaWxsOiBub25lOyBzdHJva2Utb3BhY2l0eTogMDsgc3Ryb2tlOiB3aGl0ZTsgc3Ryb2tlLXdpZHRoOiAxNXB4OyIgaGVpZ2h0PSI1MCIgd2lkdGg9IjUwIiB5PSIwIiB4PSIwIiBjbGFzcz0iZGpzLWhpdCBkanMtaGl0LWFsbCIvPjxyZWN0IHN0eWxlPSJ0cmFuc2Zvcm0tYm94OiBmaWxsLWJveDsgdHJhbnNmb3JtOiByb3RhdGUoNDVkZWcpOyB0cmFuc2Zvcm0tb3JpZ2luOiBjZW50ZXIgY2VudGVyOyBmaWxsOiBub25lOyIgY2xhc3M9ImRqcy1vdXRsaW5lIiBoZWlnaHQ9IjQ2IiB3aWR0aD0iNDYiIHJ4PSI0IiB5PSIyIiB4PSIyIi8+PC9nPjwvZz48ZyBjbGFzcz0iZGpzLWdyb3VwIj48ZyBzdHlsZT0iZGlzcGxheTogYmxvY2s7IiB0cmFuc2Zvcm09InRyYW5zbGF0ZSgyNzk1IDMxMCkiIGRhdGEtZWxlbWVudC1pZD0iR2F0ZXdheV8xZTY0NnQwIiBjbGFzcz0iZGpzLWVsZW1lbnQgZGpzLXNoYXBlIj48ZyBjbGFzcz0iZGpzLXZpc3VhbCI+PHBvbHlnb24gc3R5bGU9InN0cm9rZS1saW5lY2FwOiByb3VuZDsgc3Ryb2tlLWxpbmVqb2luOiByb3VuZDsgc3Ryb2tlOiByZ2IoMzQsIDM2LCA0Mik7IHN0cm9rZS13aWR0aDogMnB4OyBmaWxsOiB3aGl0ZTsgZmlsbC1vcGFjaXR5OiAwLjk1OyIgcG9pbnRzPSIyNSwwIDUwLDI1IDI1LDUwIDAsMjUiLz48cGF0aCBzdHlsZT0iZmlsbDogcmdiKDM0LCAzNiwgNDIpOyBzdHJva2UtbGluZWNhcDogcm91bmQ7IHN0cm9rZS1saW5lam9pbjogcm91bmQ7IHN0cm9rZTogcmdiKDM0LCAzNiwgNDIpOyBzdHJva2Utd2lkdGg6IDFweDsiIGQ9Im0gMTYsMTUgNy40Mjg1NzE0Mjg1NzE0Myw5LjcxNDI4NTcxNDI4NTcxNSAtNy40Mjg1NzE0Mjg1NzE0Myw5LjcxNDI4NTcxNDI4NTcxNSAzLjQyODU3MTQyODU3MTQyOSwwIDUuNzE0Mjg1NzE0Mjg1NzE1LC03LjQ2NDIyODU3MTQyODU3MiA1LjcxNDI4NTcxNDI4NTcxNSw3LjQ2NDIyODU3MTQyODU3MiAzLjQyODU3MTQyODU3MTQyOSwwIC03LjQyODU3MTQyODU3MTQzLC05LjcxNDI4NTcxNDI4NTcxNSA3LjQyODU3MTQyODU3MTQzLC05LjcxNDI4NTcxNDI4NTcxNSAtMy40Mjg1NzE0Mjg1NzE0MjksMCAtNS43MTQyODU3MTQyODU3MTUsNy40NjQyMjg1NzE0Mjg1NzIgLTUuNzE0Mjg1NzE0Mjg1NzE1LC03LjQ2NDIyODU3MTQyODU3MiAtMy40Mjg1NzE0Mjg1NzE0MjksMCB6Ii8+PC9nPjxyZWN0IHN0eWxlPSJmaWxsOiBub25lOyBzdHJva2Utb3BhY2l0eTogMDsgc3Ryb2tlOiB3aGl0ZTsgc3Ryb2tlLXdpZHRoOiAxNXB4OyIgaGVpZ2h0PSI1MCIgd2lkdGg9IjUwIiB5PSIwIiB4PSIwIiBjbGFzcz0iZGpzLWhpdCBkanMtaGl0LWFsbCIvPjxyZWN0IHN0eWxlPSJ0cmFuc2Zvcm0tYm94OiBmaWxsLWJveDsgdHJhbnNmb3JtOiByb3RhdGUoNDVkZWcpOyB0cmFuc2Zvcm0tb3JpZ2luOiBjZW50ZXIgY2VudGVyOyBmaWxsOiBub25lOyIgY2xhc3M9ImRqcy1vdXRsaW5lIiBoZWlnaHQ9IjQ2IiB3aWR0aD0iNDYiIHJ4PSI0IiB5PSIyIiB4PSIyIi8+PC9nPjwvZz48ZyBjbGFzcz0iZGpzLWdyb3VwIj48ZyBzdHlsZT0iZGlzcGxheTogYmxvY2s7IiB0cmFuc2Zvcm09InRyYW5zbGF0ZSgyNjMwIDI5NSkiIGRhdGEtZWxlbWVudC1pZD0iQWN0aXZpdHlfMGNnNTFxYSIgY2xhc3M9ImRqcy1lbGVtZW50IGRqcy1zaGFwZSI+PGcgY2xhc3M9ImRqcy12aXN1YWwiPjxyZWN0IHN0eWxlPSJzdHJva2UtbGluZWNhcDogcm91bmQ7IHN0cm9rZS1saW5lam9pbjogcm91bmQ7IHN0cm9rZTogcmdiKDM0LCAzNiwgNDIpOyBzdHJva2Utd2lkdGg6IDJweDsgZmlsbDogd2hpdGU7IGZpbGwtb3BhY2l0eTogMC45NTsiIHJ5PSIxMCIgcng9IjEwIiBoZWlnaHQ9IjgwIiB3aWR0aD0iMTAwIiB5PSIwIiB4PSIwIi8+PHRleHQgc3R5bGU9ImZvbnQtZmFtaWx5OiBBcmlhbCwgc2Fucy1zZXJpZjsgZm9udC1zaXplOiAxMnB4OyBmb250LXdlaWdodDogbm9ybWFsOyBmaWxsOiByZ2IoMzQsIDM2LCA0Mik7IiBjbGFzcz0iZGpzLWxhYmVsIj48dHNwYW4geT0iMzYuNCIgeD0iMjEuMDYyNSI+0L7QsdGA0LDQsdC+0YLQutCwIDwvdHNwYW4+PHRzcGFuIHk9IjUwLjgiIHg9IjMxLjMwNDY4NzUiPtC+0YLQstC10YLQsDwvdHNwYW4+PC90ZXh0PjwvZz48cmVjdCBzdHlsZT0iZmlsbDogbm9uZTsgc3Ryb2tlLW9wYWNpdHk6IDA7IHN0cm9rZTogd2hpdGU7IHN0cm9rZS13aWR0aDogMTVweDsiIGhlaWdodD0iODAiIHdpZHRoPSIxMDAiIHk9IjAiIHg9IjAiIGNsYXNzPSJkanMtaGl0IGRqcy1oaXQtYWxsIi8+PHJlY3Qgc3R5bGU9ImZpbGw6IG5vbmU7IiBjbGFzcz0iZGpzLW91dGxpbmUiIGhlaWdodD0iOTAiIHdpZHRoPSIxMTAiIHJ4PSIxNCIgeT0iLTUiIHg9Ii01Ii8+PC9nPjwvZz48ZyBjbGFzcz0iZGpzLWdyb3VwIj48ZyBzdHlsZT0iZGlzcGxheTogYmxvY2s7IiB0cmFuc2Zvcm09InRyYW5zbGF0ZSgzMTAyIDI3NSkiIGRhdGEtZWxlbWVudC1pZD0iRGF0YU9iamVjdFJlZmVyZW5jZV8xZHJvaTE0IiBjbGFzcz0iZGpzLWVsZW1lbnQgZGpzLXNoYXBlIj48ZyBjbGFzcz0iZGpzLXZpc3VhbCI+PHBhdGggc3R5bGU9ImZpbGw6IHdoaXRlOyBzdHJva2UtbGluZWNhcDogcm91bmQ7IHN0cm9rZS1saW5lam9pbjogcm91bmQ7IHN0cm9rZTogcmdiKDM0LCAzNiwgNDIpOyBzdHJva2Utd2lkdGg6IDJweDsgZmlsbC1vcGFjaXR5OiAwLjk1OyIgZD0ibSAwLDAgMjguMjM1Mjk0MTE3NjQ3MDYsMCA3LjA1ODgyMzUyOTQxMTc2NSw4LjE5NjcyMTMxMTQ3NTQxMSAwLDQwLjk4MzYwNjU1NzM3NzA1IC0zNS4yOTQxMTc2NDcwNTg4MjYsMCAwLC00OS4xODAzMjc4Njg4NTI0NiAyOC4yMzUyOTQxMTc2NDcwNiwwIDAsOC4xOTY3MjEzMTE0NzU0MTEgNy4wNTg4MjM1Mjk0MTE3NjUsMCIvPjwvZz48cmVjdCBzdHlsZT0iZmlsbDogbm9uZTsgc3Ryb2tlLW9wYWNpdHk6IDA7IHN0cm9rZTogd2hpdGU7IHN0cm9rZS13aWR0aDogMTVweDsiIGhlaWdodD0iNTAiIHdpZHRoPSIzNiIgeT0iMCIgeD0iMCIgY2xhc3M9ImRqcy1oaXQgZGpzLWhpdC1hbGwiLz48cGF0aCBzdHlsZT0ic3Ryb2tlLXdpZHRoOiAycHg7IGZpbGw6IG5vbmU7IiBjbGFzcz0iZGpzLW91dGxpbmUiIHRyYW5zZm9ybT0idHJhbnNsYXRlKC02LCAtNikiIGQ9Ik00NC43NjQ4IDExLjMyNjNMMzYuOTg5MiAyLjY0MDc0QzM2LjA0NTEgMS41ODYyOCAzNC41NjUxIDAuOTg4NzA4IDMzLjE5MDQgMC45ODg3MDhINS45ODY2N0MzLjIyNjg4IDAuOTg4NzA4IDAuOTg5NjI0IDMuMzQ4OTIgMC45ODk2MjQgNi4yNjAzOVY1NS4wMjM1QzAuOTg5NjI0IDU3LjkzNDkgMy4yMjY4OCA2MC4yOTUyIDUuOTg2NjcgNjAuMjk1Mkg0MC45NjZDNDMuNzI1NyA2MC4yOTUyIDQ1Ljk2MyA1Ny45MzQ5IDQ1Ljk2MyA1NS4wMjM1VjE0Ljk0NTlDNDUuOTYzIDEzLjU5OTggNDUuNjQwNyAxMi4zMDQ4IDQ0Ljc2NDggMTEuMzI2M1oiLz48L2c+PC9nPjxnIGNsYXNzPSJkanMtZ3JvdXAiPjxnIHN0eWxlPSJkaXNwbGF5OiBibG9jazsiIHRyYW5zZm9ybT0idHJhbnNsYXRlKDMwNzggMzMyKSIgZGF0YS1lbGVtZW50LWlkPSJEYXRhT2JqZWN0UmVmZXJlbmNlXzFkcm9pMTRfbGFiZWwiIGNsYXNzPSJkanMtZWxlbWVudCBkanMtc2hhcGUiPjxnIGNsYXNzPSJkanMtdmlzdWFsIj48dGV4dCBzdHlsZT0iZm9udC1mYW1pbHk6IEFyaWFsLCBzYW5zLXNlcmlmOyBmb250LXNpemU6IDExcHg7IGZvbnQtd2VpZ2h0OiBub3JtYWw7IGZpbGw6IHJnYigzNCwgMzYsIDQyKTsiIGNsYXNzPSJkanMtbGFiZWwiPjx0c3BhbiB5PSI5Ljg5OTk5OTk5OTk5OTk5OSIgeD0iMTguNjQ4NDM3NSI+0LTQvtC60YPQvNC10L3RgiA8L3RzcGFuPjx0c3BhbiB5PSIyMy4wOTk5OTk5OTk5OTk5OTgiIHg9IjAiPtC/0L7QtNGC0LLQtdGA0LbQtNCw0Y7RidC40LkgPC90c3Bhbj48dHNwYW4geT0iMzYuMyIgeD0iMTAuMTcxODc1Ij7QuNC30LzQtdC90LXQvdC40LUgPC90c3Bhbj48dHNwYW4geT0iNDkuNSIgeD0iMjMuNDI5Njg3NSI+0LTQsNC90L3Ri9GFPC90c3Bhbj48L3RleHQ+PC9nPjxyZWN0IHN0eWxlPSJmaWxsOiBub25lOyBzdHJva2Utb3BhY2l0eTogMDsgc3Ryb2tlOiB3aGl0ZTsgc3Ryb2tlLXdpZHRoOiAxNXB4OyIgaGVpZ2h0PSI1MyIgd2lkdGg9Ijg1IiB5PSIwIiB4PSIwIiBjbGFzcz0iZGpzLWhpdCBkanMtaGl0LWFsbCIvPjxyZWN0IHN0eWxlPSJmaWxsOiBub25lOyIgY2xhc3M9ImRqcy1vdXRsaW5lIiBoZWlnaHQ9IjYzIiB3aWR0aD0iOTUiIHJ4PSI0IiB5PSItNSIgeD0iLTUiLz48L2c+PC9nPjxnIGNsYXNzPSJkanMtZ3JvdXAiPjxnIHN0eWxlPSJkaXNwbGF5OiBibG9jazsiIHRyYW5zZm9ybT0idHJhbnNsYXRlKDMxNDIgNDMyKSIgZGF0YS1lbGVtZW50LWlkPSJFdmVudF8wYXF5dng5IiBjbGFzcz0iZGpzLWVsZW1lbnQgZGpzLXNoYXBlIj48ZyBjbGFzcz0iZGpzLXZpc3VhbCI+PGNpcmNsZSBzdHlsZT0ic3Ryb2tlLWxpbmVjYXA6IHJvdW5kOyBzdHJva2UtbGluZWpvaW46IHJvdW5kOyBzdHJva2U6IHJnYigzNCwgMzYsIDQyKTsgc3Ryb2tlLXdpZHRoOiA0cHg7IGZpbGw6IHdoaXRlOyBmaWxsLW9wYWNpdHk6IDAuOTU7IiByPSIxOCIgY3k9IjE4IiBjeD0iMTgiLz48cGF0aCBzdHlsZT0iZmlsbDogcmdiKDM0LCAzNiwgNDIpOyBzdHJva2UtbGluZWNhcDogcm91bmQ7IHN0cm9rZS1saW5lam9pbjogcm91bmQ7IHN0cm9rZTogcmdiKDM0LCAzNiwgNDIpOyBzdHJva2Utd2lkdGg6IDFweDsiIGQ9Im0gNy4yLDI1Ljk5MTk5OTk5OTk5OTk5NyAwLjA5MzUwMDAwMDAwMDAwMDAxLC0wLjAyNTMwMDAwMDAwMDAwMDAwMyA3LjMzOTIsLTkuNjEwNzAwMDAwMDAwMDAxIDcuNjY3MDAwMDAwMDAwMDAxLDguOTY2MSA0LjcwMDMsLTE4LjIyMDQgLTUuODcwNywxMS42NTAxIC03LjI5OTYwMDAwMDAwMDAwMSwtOS41ODU0MDAwMDAwMDAwMDIgeiIvPjwvZz48cmVjdCBzdHlsZT0iZmlsbDogbm9uZTsgc3Ryb2tlLW9wYWNpdHk6IDA7IHN0cm9rZTogd2hpdGU7IHN0cm9rZS13aWR0aDogMTVweDsiIGhlaWdodD0iMzYiIHdpZHRoPSIzNiIgeT0iMCIgeD0iMCIgY2xhc3M9ImRqcy1oaXQgZGpzLWhpdC1hbGwiLz48Y2lyY2xlIHN0eWxlPSJmaWxsOiBub25lOyIgY2xhc3M9ImRqcy1vdXRsaW5lIiByPSIyNCIgY3k9IjE4IiBjeD0iMTgiLz48L2c+PC9nPjxnIGNsYXNzPSJkanMtZ3JvdXAiPjxnIHN0eWxlPSJkaXNwbGF5OiBibG9jazsiIHRyYW5zZm9ybT0idHJhbnNsYXRlKDMxMjMgNDc1KSIgZGF0YS1lbGVtZW50LWlkPSJFdmVudF8wYXF5dng5X2xhYmVsIiBjbGFzcz0iZGpzLWVsZW1lbnQgZGpzLXNoYXBlIj48ZyBjbGFzcz0iZGpzLXZpc3VhbCI+PHRleHQgc3R5bGU9ImZvbnQtZmFtaWx5OiBBcmlhbCwgc2Fucy1zZXJpZjsgZm9udC1zaXplOiAxMXB4OyBmb250LXdlaWdodDogbm9ybWFsOyBmaWxsOiByZ2IoMzQsIDM2LCA0Mik7IiBjbGFzcz0iZGpzLWxhYmVsIj48dHNwYW4geT0iOS44OTk5OTk5OTk5OTk5OTkiIHg9IjAiPtC90LUg0LrQvtGA0YDQtdC60YLQvdGL0LUgPC90c3Bhbj48dHNwYW4geT0iMjMuMDk5OTk5OTk5OTk5OTk4IiB4PSIxNy44ODI4MTI1Ij7QtNCw0L3QvdGL0LU8L3RzcGFuPjwvdGV4dD48L2c+PHJlY3Qgc3R5bGU9ImZpbGw6IG5vbmU7IHN0cm9rZS1vcGFjaXR5OiAwOyBzdHJva2U6IHdoaXRlOyBzdHJva2Utd2lkdGg6IDE1cHg7IiBoZWlnaHQ9IjI3IiB3aWR0aD0iNzUiIHk9IjAiIHg9IjAiIGNsYXNzPSJkanMtaGl0IGRqcy1oaXQtYWxsIi8+PHJlY3Qgc3R5bGU9ImZpbGw6IG5vbmU7IiBjbGFzcz0iZGpzLW91dGxpbmUiIGhlaWdodD0iMzciIHdpZHRoPSI4NSIgcng9IjQiIHk9Ii01IiB4PSItNSIvPjwvZz48L2c+PGcgY2xhc3M9ImRqcy1ncm91cCI+PGcgc3R5bGU9ImRpc3BsYXk6IGJsb2NrOyIgdHJhbnNmb3JtPSJ0cmFuc2xhdGUoMTY0MCAzNTUpIiBkYXRhLWVsZW1lbnQtaWQ9IkFjdGl2aXR5XzA2bHhlYW0iIGNsYXNzPSJkanMtZWxlbWVudCBkanMtc2hhcGUiPjxnIGNsYXNzPSJkanMtdmlzdWFsIj48cmVjdCBzdHlsZT0ic3Ryb2tlLWxpbmVjYXA6IHJvdW5kOyBzdHJva2UtbGluZWpvaW46IHJvdW5kOyBzdHJva2U6IHJnYigzNCwgMzYsIDQyKTsgc3Ryb2tlLXdpZHRoOiAycHg7IGZpbGw6IHdoaXRlOyBmaWxsLW9wYWNpdHk6IDAuOTU7IiByeT0iMTAiIHJ4PSIxMCIgaGVpZ2h0PSI4MCIgd2lkdGg9IjEwMCIgeT0iMCIgeD0iMCIvPjx0ZXh0IHN0eWxlPSJmb250LWZhbWlseTogQXJpYWwsIHNhbnMtc2VyaWY7IGZvbnQtc2l6ZTogMTJweDsgZm9udC13ZWlnaHQ6IG5vcm1hbDsgZmlsbDogcmdiKDM0LCAzNiwgNDIpOyIgY2xhc3M9ImRqcy1sYWJlbCI+PHRzcGFuIHk9IjM2LjQiIHg9IjIxLjA2MjUiPtC+0LHRgNCw0LHQvtGC0LrQsCA8L3RzcGFuPjx0c3BhbiB5PSI1MC44IiB4PSIzMS4zMDQ2ODc1Ij7QvtGC0LLQtdGC0LA8L3RzcGFuPjwvdGV4dD48L2c+PHJlY3Qgc3R5bGU9ImZpbGw6IG5vbmU7IHN0cm9rZS1vcGFjaXR5OiAwOyBzdHJva2U6IHdoaXRlOyBzdHJva2Utd2lkdGg6IDE1cHg7IiBoZWlnaHQ9IjgwIiB3aWR0aD0iMTAwIiB5PSIwIiB4PSIwIiBjbGFzcz0iZGpzLWhpdCBkanMtaGl0LWFsbCIvPjxyZWN0IHN0eWxlPSJmaWxsOiBub25lOyIgY2xhc3M9ImRqcy1vdXRsaW5lIiBoZWlnaHQ9IjkwIiB3aWR0aD0iMTEwIiByeD0iMTQiIHk9Ii01IiB4PSItNSIvPjwvZz48L2c+PGcgY2xhc3M9ImRqcy1ncm91cCI+PGcgc3R5bGU9ImRpc3BsYXk6IGJsb2NrOyIgdHJhbnNmb3JtPSJ0cmFuc2xhdGUoMTc2NSAzNzApIiBkYXRhLWVsZW1lbnQtaWQ9IkdhdGV3YXlfMTZnbG5sYiIgY2xhc3M9ImRqcy1lbGVtZW50IGRqcy1zaGFwZSI+PGcgY2xhc3M9ImRqcy12aXN1YWwiPjxwb2x5Z29uIHN0eWxlPSJzdHJva2UtbGluZWNhcDogcm91bmQ7IHN0cm9rZS1saW5lam9pbjogcm91bmQ7IHN0cm9rZTogcmdiKDM0LCAzNiwgNDIpOyBzdHJva2Utd2lkdGg6IDJweDsgZmlsbDogd2hpdGU7IGZpbGwtb3BhY2l0eTogMC45NTsiIHBvaW50cz0iMjUsMCA1MCwyNSAyNSw1MCAwLDI1Ii8+PHBhdGggc3R5bGU9ImZpbGw6IHJnYigzNCwgMzYsIDQyKTsgc3Ryb2tlLWxpbmVjYXA6IHJvdW5kOyBzdHJva2UtbGluZWpvaW46IHJvdW5kOyBzdHJva2U6IHJnYigzNCwgMzYsIDQyKTsgc3Ryb2tlLXdpZHRoOiAxcHg7IiBkPSJtIDE2LDE1IDcuNDI4NTcxNDI4NTcxNDMsOS43MTQyODU3MTQyODU3MTUgLTcuNDI4NTcxNDI4NTcxNDMsOS43MTQyODU3MTQyODU3MTUgMy40Mjg1NzE0Mjg1NzE0MjksMCA1LjcxNDI4NTcxNDI4NTcxNSwtNy40NjQyMjg1NzE0Mjg1NzIgNS43MTQyODU3MTQyODU3MTUsNy40NjQyMjg1NzE0Mjg1NzIgMy40Mjg1NzE0Mjg1NzE0MjksMCAtNy40Mjg1NzE0Mjg1NzE0MywtOS43MTQyODU3MTQyODU3MTUgNy40Mjg1NzE0Mjg1NzE0MywtOS43MTQyODU3MTQyODU3MTUgLTMuNDI4NTcxNDI4NTcxNDI5LDAgLTUuNzE0Mjg1NzE0Mjg1NzE1LDcuNDY0MjI4NTcxNDI4NTcyIC01LjcxNDI4NTcxNDI4NTcxNSwtNy40NjQyMjg1NzE0Mjg1NzIgLTMuNDI4NTcxNDI4NTcxNDI5LDAgeiIvPjwvZz48cmVjdCBzdHlsZT0iZmlsbDogbm9uZTsgc3Ryb2tlLW9wYWNpdHk6IDA7IHN0cm9rZTogd2hpdGU7IHN0cm9rZS13aWR0aDogMTVweDsiIGhlaWdodD0iNTAiIHdpZHRoPSI1MCIgeT0iMCIgeD0iMCIgY2xhc3M9ImRqcy1oaXQgZGpzLWhpdC1hbGwiLz48cmVjdCBzdHlsZT0idHJhbnNmb3JtLWJveDogZmlsbC1ib3g7IHRyYW5zZm9ybTogcm90YXRlKDQ1ZGVnKTsgdHJhbnNmb3JtLW9yaWdpbjogY2VudGVyIGNlbnRlcjsgZmlsbDogbm9uZTsiIGNsYXNzPSJkanMtb3V0bGluZSIgaGVpZ2h0PSI0NiIgd2lkdGg9IjQ2IiByeD0iNCIgeT0iMiIgeD0iMiIvPjwvZz48L2c+PGcgY2xhc3M9ImRqcy1ncm91cCI+PGcgc3R5bGU9ImRpc3BsYXk6IGJsb2NrOyIgdHJhbnNmb3JtPSJ0cmFuc2xhdGUoMTkyMCA0MjUpIiBkYXRhLWVsZW1lbnQtaWQ9IkFjdGl2aXR5XzFzZWZpOGIiIGNsYXNzPSJkanMtZWxlbWVudCBkanMtc2hhcGUiPjxnIGNsYXNzPSJkanMtdmlzdWFsIj48cmVjdCBzdHlsZT0ic3Ryb2tlLWxpbmVjYXA6IHJvdW5kOyBzdHJva2UtbGluZWpvaW46IHJvdW5kOyBzdHJva2U6IHJnYigzNCwgMzYsIDQyKTsgc3Ryb2tlLXdpZHRoOiAycHg7IGZpbGw6IHdoaXRlOyBmaWxsLW9wYWNpdHk6IDAuOTU7IiByeT0iMTAiIHJ4PSIxMCIgaGVpZ2h0PSI4MCIgd2lkdGg9IjEwMCIgeT0iMCIgeD0iMCIvPjx0ZXh0IHN0eWxlPSJmb250LWZhbWlseTogQXJpYWwsIHNhbnMtc2VyaWY7IGZvbnQtc2l6ZTogMTJweDsgZm9udC13ZWlnaHQ6IG5vcm1hbDsgZmlsbDogcmdiKDM0LCAzNiwgNDIpOyIgY2xhc3M9ImRqcy1sYWJlbCI+PHRzcGFuIHk9IjE0Ljc5OTk5OTk5OTk5OTk5OSIgeD0iMTQuNzgxMjUiPtC+0YLQutGA0YvQstCw0LXRgtGB0Y8gPC90c3Bhbj48dHNwYW4geT0iMjkuMTk5OTk5OTk5OTk5OTk2IiB4PSIxOS4wMDc4MTI1Ij7RhNC+0YDQvNCwINC00LvRjyDRgNC10LTQsNC60YLQuNGA0L7QstCw0L3QuNGPIDwvdHNwYW4+PHRzcGFuIHk9IjU3Ljk5OTk5OTk5OTk5OTk5IiB4PSIyNC4zMDQ2ODc1Ij7QtNCw0L3QvdGL0YUgPC90c3Bhbj48dHNwYW4geT0iNzIuMzk5OTk5OTk5OTk5OTkiIHg9IjI3Ljc4MTI1Ij7QutC70LjQtdC90YLQsDwvdHNwYW4+PC90ZXh0PjxjaXJjbGUgc3R5bGU9InN0cm9rZS1saW5lY2FwOiByb3VuZDsgc3Ryb2tlLWxpbmVqb2luOiByb3VuZDsgc3Ryb2tlOiBub25lOyBzdHJva2Utd2lkdGg6IDJweDsgZmlsbDogd2hpdGU7IiB0cmFuc2Zvcm09InRyYW5zbGF0ZSg2LCA2KSIgcj0iNSIgY3k9IjUiIGN4PSI1Ii8+PHBhdGggc3R5bGU9ImZpbGw6IHdoaXRlOyBzdHJva2UtbGluZWNhcDogcm91bmQ7IHN0cm9rZS1saW5lam9pbjogcm91bmQ7IHN0cm9rZTogcmdiKDM0LCAzNiwgNDIpOyBzdHJva2Utd2lkdGg6IDFweDsiIGQ9Im0gMTIsMTggdiAtMS43MTMzNSBjIDAuMzUyMzI2LC0wLjA3MDUgMC43MDM5MzIsLTAuMTc4MzggMS4wNDc2MjgsLTAuMzIxMzMgMC4zNDQ0MTYsLTAuMTQ0NjUgMC42NjU4MjIsLTAuMzIxMzMgMC45NjYzNzcsLTAuNTIxNDUgbCAxLjE5NDMxLDEuMTgwMDUgMS41Njc0ODcsLTEuNTc2ODggLTEuMTk1MDI4LC0xLjE4MDE0IGMgMC40MDMzNzYsLTAuNjEzOTQgMC42ODMwNzksLTEuMjk5MDggMC44MjU0NDcsLTIuMDE4MjQgbCAxLjYyMjEzMywtMC4wMSB2IC0yLjIxOTYgbCAtMS42MzY1MTQsMC4wMSBjIC0wLjA3MzMzLC0wLjM1MTUzIC0wLjE3ODMxOSwtMC43MDAyNCAtMC4zMjM1NjQsLTEuMDQzNzIgLTAuMTQ1MjQ0LC0wLjM0NDA2IC0wLjMyMTQwNywtMC42NjQ0IC0wLjUyMjczNSwtMC45NjIxNyBsIDEuMTMxMDM1LC0xLjEzNjMxIC0xLjU4MzMwNSwtMS41NjI5MyAtMS4xMjk1OTgsMS4xMzU4OSBjIC0wLjYxNDA1MiwtMC40MDEwOCAtMS4zMDI4ODMsLTAuNjgwOTMgLTIuMDIyNjMzLC0wLjgyMjQ3IGwgMC4wMDkzLC0xLjYxODUyIGggLTIuMjQxMTczIGwgMC4wMDQyLDEuNjMxMjQgYyAtMC4zNTM3NjMsMC4wNzM2IC0wLjcwNTM2OSwwLjE3OTc3IC0xLjA0OTc4NSwwLjMyMzcxIC0wLjM0NDQxNSwwLjE0NDM3IC0wLjY2NTEwMiwwLjMyMDkyIC0wLjk2MzUwMDYsMC41MjA0NiBsIC0xLjE2OTg2MjgsLTEuMTU4MjMgLTEuNTY2NzY5MSwxLjU3OTIgMS4xNjg0MjY1LDEuMTU2NjkgYyAtMC40MDI2NTczLDAuNjEyODMgLTAuNjgzMDgsMS4yOTc5NyAtMC44MjQ3Mjg3LDIuMDE3MTMgbCAtMS42NTg4MDQxLDAuMDAzIHYgMi4yMjE3NCBsIDEuNjcyNDY0OCwtMC4wMDYgYyAwLjA3MzMyNywwLjM1MDc3IDAuMTc5NzU5OCwwLjcwMjQzIDAuMzI0Mjg1MSwxLjA0NDcyIDAuMTQ1MjQyOCwwLjM0NDQ4IDAuMzIxNDA2NCwwLjY2NDQgMC41MjI3MzM5LDAuOTYwNjYgbCAtMS4xOTkzNDMxLDEuMTk3MjMgMS41ODQwMjU2LDEuNTYwMTEgMS4xOTY0NjY4LC0xLjE5MzQ4IGMgMC42MTQwNTE3LDAuNDAzNDYgMS4zMDI4ODI3LDAuNjgyMzIgMi4wMjMzNTE3LDAuODIzMzEgbCA3LjE5ZS00LDEuNjk4OTIgaCAyLjIyNjg0OCB6IG0gMC4yMjE0NjIsLTMuOTk1NyBjIC0xLjc4ODk0OCwwLjc1MDIgLTMuODU3NiwtMC4wOTI4IC00LjYwOTcwNTUsLTEuODc0MzggLTAuNzUyMTA2NSwtMS43ODMyMSAwLjA5MDU5OCwtMy44NDYyNyAxLjg4MDI2NDUsLTQuNTk2MDQgMS43ODgyMywtMC43NDkzNiAzLjg1Njg4MSwwLjA5MjkgNC42MDg5ODcsMS44NzQzNyAwLjc1MjEwNiwxLjc4MTY1IC0wLjA5MDYsMy44NDYxMiAtMS44Nzk1NDYsNC41OTYwNSB6Ii8+PGNpcmNsZSBzdHlsZT0ic3Ryb2tlLWxpbmVjYXA6IHJvdW5kOyBzdHJva2UtbGluZWpvaW46IHJvdW5kOyBzdHJva2U6IG5vbmU7IHN0cm9rZS13aWR0aDogMnB4OyBmaWxsOiB3aGl0ZTsiIHRyYW5zZm9ybT0idHJhbnNsYXRlKDExLCAxMCkiIHI9IjUiIGN5PSI1IiBjeD0iNSIvPjxwYXRoIHN0eWxlPSJmaWxsOiB3aGl0ZTsgc3Ryb2tlLWxpbmVjYXA6IHJvdW5kOyBzdHJva2UtbGluZWpvaW46IHJvdW5kOyBzdHJva2U6IHJnYigzNCwgMzYsIDQyKTsgc3Ryb2tlLXdpZHRoOiAxcHg7IiBkPSJtIDE3LDIyIHYgLTEuNzEzMzUgYyAwLjM1MjMyNiwtMC4wNzA1IDAuNzAzOTMyLC0wLjE3ODM4IDEuMDQ3NjI4LC0wLjMyMTMzIDAuMzQ0NDE2LC0wLjE0NDY1IDAuNjY1ODIyLC0wLjMyMTMzIDAuOTY2Mzc3LC0wLjUyMTQ1IGwgMS4xOTQzMSwxLjE4MDA1IDEuNTY3NDg3LC0xLjU3Njg4IC0xLjE5NTAyOCwtMS4xODAxNCBjIDAuNDAzMzc2LC0wLjYxMzk0IDAuNjgzMDc5LC0xLjI5OTA4IDAuODI1NDQ3LC0yLjAxODI0IGwgMS42MjIxMzMsLTAuMDEgdiAtMi4yMTk2IGwgLTEuNjM2NTE0LDAuMDEgYyAtMC4wNzMzMywtMC4zNTE1MyAtMC4xNzgzMTksLTAuNzAwMjQgLTAuMzIzNTY0LC0xLjA0MzcyIC0wLjE0NTI0NCwtMC4zNDQwNiAtMC4zMjE0MDcsLTAuNjY0NCAtMC41MjI3MzUsLTAuOTYyMTcgbCAxLjEzMTAzNSwtMS4xMzYzMSAtMS41ODMzMDUsLTEuNTYyOTMgLTEuMTI5NTk4LDEuMTM1ODkgYyAtMC42MTQwNTIsLTAuNDAxMDggLTEuMzAyODgzLC0wLjY4MDkzIC0yLjAyMjYzMywtMC44MjI0NyBsIDAuMDA5MywtMS42MTg1MiBoIC0yLjI0MTE3MyBsIDAuMDA0MiwxLjYzMTI0IGMgLTAuMzUzNzYzLDAuMDczNiAtMC43MDUzNjksMC4xNzk3NyAtMS4wNDk3ODUsMC4zMjM3MSAtMC4zNDQ0MTUsMC4xNDQzNyAtMC42NjUxMDIsMC4zMjA5MiAtMC45NjM1MDA2LDAuNTIwNDYgbCAtMS4xNjk4NjI4LC0xLjE1ODIzIC0xLjU2Njc2OTEsMS41NzkyIDEuMTY4NDI2NSwxLjE1NjY5IGMgLTAuNDAyNjU3MywwLjYxMjgzIC0wLjY4MzA4LDEuMjk3OTcgLTAuODI0NzI4NywyLjAxNzEzIGwgLTEuNjU4ODA0MSwwLjAwMyB2IDIuMjIxNzQgbCAxLjY3MjQ2NDgsLTAuMDA2IGMgMC4wNzMzMjcsMC4zNTA3NyAwLjE3OTc1OTgsMC43MDI0MyAwLjMyNDI4NTEsMS4wNDQ3MiAwLjE0NTI0MjgsMC4zNDQ0OCAwLjMyMTQwNjQsMC42NjQ0IDAuNTIyNzMzOSwwLjk2MDY2IGwgLTEuMTk5MzQzMSwxLjE5NzIzIDEuNTg0MDI1NiwxLjU2MDExIDEuMTk2NDY2OCwtMS4xOTM0OCBjIDAuNjE0MDUxNywwLjQwMzQ2IDEuMzAyODgyNywwLjY4MjMyIDIuMDIzMzUxNywwLjgyMzMxIGwgNy4xOWUtNCwxLjY5ODkyIGggMi4yMjY4NDggeiBtIDAuMjIxNDYyLC0zLjk5NTcgYyAtMS43ODg5NDgsMC43NTAyIC0zLjg1NzYsLTAuMDkyOCAtNC42MDk3MDU1LC0xLjg3NDM4IC0wLjc1MjEwNjUsLTEuNzgzMjEgMC4wOTA1OTgsLTMuODQ2MjcgMS44ODAyNjQ1LC00LjU5NjA0IDEuNzg4MjMsLTAuNzQ5MzYgMy44NTY4ODEsMC4wOTI5IDQuNjA4OTg3LDEuODc0MzcgMC43NTIxMDYsMS43ODE2NSAtMC4wOTA2LDMuODQ2MTIgLTEuODc5NTQ2LDQuNTk2MDUgeiIvPjwvZz48cmVjdCBzdHlsZT0iZmlsbDogbm9uZTsgc3Ryb2tlLW9wYWNpdHk6IDA7IHN0cm9rZTogd2hpdGU7IHN0cm9rZS13aWR0aDogMTVweDsiIGhlaWdodD0iODAiIHdpZHRoPSIxMDAiIHk9IjAiIHg9IjAiIGNsYXNzPSJkanMtaGl0IGRqcy1oaXQtYWxsIi8+PHJlY3Qgc3R5bGU9ImZpbGw6IG5vbmU7IiBjbGFzcz0iZGpzLW91dGxpbmUiIGhlaWdodD0iOTAiIHdpZHRoPSIxMTAiIHJ4PSIxNCIgeT0iLTUiIHg9Ii01Ii8+PC9nPjwvZz48ZyBjbGFzcz0iZGpzLWdyb3VwIj48ZyBzdHlsZT0iZGlzcGxheTogYmxvY2s7IiB0cmFuc2Zvcm09InRyYW5zbGF0ZSgxOTIwIDI4NSkiIGRhdGEtZWxlbWVudC1pZD0iQWN0aXZpdHlfMXRseWVmdyIgY2xhc3M9ImRqcy1lbGVtZW50IGRqcy1zaGFwZSI+PGcgY2xhc3M9ImRqcy12aXN1YWwiPjxyZWN0IHN0eWxlPSJzdHJva2UtbGluZWNhcDogcm91bmQ7IHN0cm9rZS1saW5lam9pbjogcm91bmQ7IHN0cm9rZTogcmdiKDM0LCAzNiwgNDIpOyBzdHJva2Utd2lkdGg6IDJweDsgZmlsbDogd2hpdGU7IGZpbGwtb3BhY2l0eTogMC45NTsiIHJ5PSIxMCIgcng9IjEwIiBoZWlnaHQ9IjgwIiB3aWR0aD0iMTAwIiB5PSIwIiB4PSIwIi8+PHRleHQgc3R5bGU9ImZvbnQtZmFtaWx5OiBBcmlhbCwgc2Fucy1zZXJpZjsgZm9udC1zaXplOiAxMnB4OyBmb250LXdlaWdodDogbm9ybWFsOyBmaWxsOiByZ2IoMzQsIDM2LCA0Mik7IiBjbGFzcz0iZGpzLWxhYmVsIj48dHNwYW4geT0iMjIiIHg9IjExLjg0Mzc1Ij7RgdC+0L7QsdGJ0LjRgtGMINC+IDwvdHNwYW4+PHRzcGFuIHk9IjM2LjQiIHg9IjMyLjQyMTg3NSI+0YLQsNC60L7QvCA8L3RzcGFuPjx0c3BhbiB5PSI1MC44IiB4PSIxMS4zMzU5Mzc1Ij7Qv9C+0LvRjNC30L7QstCw0YLQtdC70Y8gPC90c3Bhbj48dHNwYW4geT0iNjUuMTk5OTk5OTk5OTk5OTkiIHg9IjQwLjYwMTU2MjUiPtC90LXRgjwvdHNwYW4+PC90ZXh0PjxwYXRoIHN0eWxlPSJmaWxsOiByZ2IoMzQsIDM2LCA0Mik7IHN0cm9rZS1saW5lY2FwOiByb3VuZDsgc3Ryb2tlLWxpbmVqb2luOiByb3VuZDsgc3Ryb2tlOiB3aGl0ZTsgc3Ryb2tlLXdpZHRoOiAxcHg7IiBkPSJtIDUuOTg0OTk5OTk5OTk5OTk5LDQuOTk3OTk5OTk5OTk5OTk5IGwgMCwxNCBsIDIxLDAgbCAwLC0xNCB6IGwgMTAuNSw2IGwgMTAuNSwtNiIvPjwvZz48cmVjdCBzdHlsZT0iZmlsbDogbm9uZTsgc3Ryb2tlLW9wYWNpdHk6IDA7IHN0cm9rZTogd2hpdGU7IHN0cm9rZS13aWR0aDogMTVweDsiIGhlaWdodD0iODAiIHdpZHRoPSIxMDAiIHk9IjAiIHg9IjAiIGNsYXNzPSJkanMtaGl0IGRqcy1oaXQtYWxsIi8+PHJlY3Qgc3R5bGU9ImZpbGw6IG5vbmU7IiBjbGFzcz0iZGpzLW91dGxpbmUiIGhlaWdodD0iOTAiIHdpZHRoPSIxMTAiIHJ4PSIxNCIgeT0iLTUiIHg9Ii01Ii8+PC9nPjwvZz48ZyBjbGFzcz0iZGpzLWdyb3VwIj48ZyBzdHlsZT0iZGlzcGxheTogYmxvY2s7IiB0cmFuc2Zvcm09InRyYW5zbGF0ZSgyMTMwIDQyNSkiIGRhdGEtZWxlbWVudC1pZD0iQWN0aXZpdHlfMDJnbnE4MSIgY2xhc3M9ImRqcy1lbGVtZW50IGRqcy1zaGFwZSI+PGcgY2xhc3M9ImRqcy12aXN1YWwiPjxyZWN0IHN0eWxlPSJzdHJva2UtbGluZWNhcDogcm91bmQ7IHN0cm9rZS1saW5lam9pbjogcm91bmQ7IHN0cm9rZTogcmdiKDM0LCAzNiwgNDIpOyBzdHJva2Utd2lkdGg6IDJweDsgZmlsbDogd2hpdGU7IGZpbGwtb3BhY2l0eTogMC45NTsiIHJ5PSIxMCIgcng9IjEwIiBoZWlnaHQ9IjgwIiB3aWR0aD0iMTAwIiB5PSIwIiB4PSIwIi8+PHRleHQgc3R5bGU9ImZvbnQtZmFtaWx5OiBBcmlhbCwgc2Fucy1zZXJpZjsgZm9udC1zaXplOiAxMnB4OyBmb250LXdlaWdodDogbm9ybWFsOyBmaWxsOiByZ2IoMzQsIDM2LCA0Mik7IiBjbGFzcz0iZGpzLWxhYmVsIj48dHNwYW4geT0iMjkuMjAwMDAwMDAwMDAwMDAzIiB4PSIzMy44ODI4MTI1Ij7QutC70LXQtdC9IDwvdHNwYW4+PHRzcGFuIHk9IjQzLjYiIHg9IjguODkwNjI1Ij7QstCy0L7QtNC40YIv0LjQt9C80LXQvdGP0LXRgiA8L3RzcGFuPjx0c3BhbiB5PSI1OCIgeD0iMjEuMTMyODEyNSI+0LTQsNC90L3Ri9C1PC90c3Bhbj48L3RleHQ+PHBhdGggc3R5bGU9ImZpbGw6IHdoaXRlOyBzdHJva2UtbGluZWNhcDogcm91bmQ7IHN0cm9rZS1saW5lam9pbjogcm91bmQ7IHN0cm9rZTogcmdiKDM0LCAzNiwgNDIpOyBzdHJva2Utd2lkdGg6IDAuNXB4OyIgZD0ibSAxNSwxMiBjIDAuOTA5LC0wLjg0NSAxLjU5NCwtMi4wNDkgMS41OTQsLTMuMzg1IDAsLTIuNTU0IC0xLjgwNSwtNC42MjE5OTk5OSAtNC4zNTcsLTQuNjIxOTk5OTkgLTIuNTUxOTk5OTgsMCAtNC4yODc5OTk5OCwyLjA2Nzk5OTk5IC00LjI4Nzk5OTk4LDQuNjIxOTk5OTkgMCwxLjM0OCAwLjk3NCwyLjU2MiAxLjg5NTk5OTk4LDMuNDA1IC0wLjUyODk5OTk4LDAuMTg3IC01LjY2OSwyLjA5NyAtNS43OTQsNC43NTYwMDA1IHYgNi43MTggaCAxNyB2IC02LjcxOCBjIDAsLTIuMjk4MDAwNSAtNS41Mjc5OTk2LC00LjU5NTAwMDUgLTYuMDUwOTk5NiwtNC43NzYwMDA1IHptIC04LDYgbCAwLDUuNSBtIDExLDAgbCAwLC01Ii8+PHBhdGggc3R5bGU9ImZpbGw6IHdoaXRlOyBzdHJva2UtbGluZWNhcDogcm91bmQ7IHN0cm9rZS1saW5lam9pbjogcm91bmQ7IHN0cm9rZTogcmdiKDM0LCAzNiwgNDIpOyBzdHJva2Utd2lkdGg6IDAuNXB4OyIgZD0ibSAxNSwxMiBtIDIuMTYyLDEuMDA5IGMgMCwyLjQ0NzAwMDUgLTIuMTU4LDQuNDMxMDAwNSAtNC44MjEsNC40MzEwMDA1IC0yLjY2NDk5OTk4LDAgLTQuODIyLC0xLjk4MSAtNC44MjIsLTQuNDMxMDAwNSIvPjxwYXRoIHN0eWxlPSJmaWxsOiByZ2IoMzQsIDM2LCA0Mik7IHN0cm9rZS1saW5lY2FwOiByb3VuZDsgc3Ryb2tlLWxpbmVqb2luOiByb3VuZDsgc3Ryb2tlOiByZ2IoMzQsIDM2LCA0Mik7IHN0cm9rZS13aWR0aDogMC41cHg7IiBkPSJtIDE1LDEyIG0gLTYuOSwtMy44MCBjIDAsMCAyLjI1MDk5OTk4LC0yLjM1OCA0LjI3Mzk5OTk4LC0xLjE3NyAyLjAyNCwxLjE4MSA0LjIyMSwxLjUzNyA0LjEyNCwwLjk2NSAtMC4wOTgsLTAuNTcgLTAuMTE3LC0zLjc5MDk5OTk5IC00LjE5MSwtNC4xMzU5OTk5OSAtMy41NzQ5OTk5OCwwLjAwMSAtNC4yMDc5OTk5OCwzLjM2Njk5OTk5IC00LjIwNjk5OTk4LDQuMzQ3OTk5OTkgeiIvPjwvZz48cmVjdCBzdHlsZT0iZmlsbDogbm9uZTsgc3Ryb2tlLW9wYWNpdHk6IDA7IHN0cm9rZTogd2hpdGU7IHN0cm9rZS13aWR0aDogMTVweDsiIGhlaWdodD0iODAiIHdpZHRoPSIxMDAiIHk9IjAiIHg9IjAiIGNsYXNzPSJkanMtaGl0IGRqcy1oaXQtYWxsIi8+PHJlY3Qgc3R5bGU9ImZpbGw6IG5vbmU7IiBjbGFzcz0iZGpzLW91dGxpbmUiIGhlaWdodD0iOTAiIHdpZHRoPSIxMTAiIHJ4PSIxNCIgeT0iLTUiIHg9Ii01Ii8+PC9nPjwvZz48ZyBjbGFzcz0iZGpzLWdyb3VwIj48ZyBzdHlsZT0iZGlzcGxheTogYmxvY2s7IiB0cmFuc2Zvcm09InRyYW5zbGF0ZSgyMDg0IDMwNykiIGRhdGEtZWxlbWVudC1pZD0iRXZlbnRfMTNqdjd0aSIgY2xhc3M9ImRqcy1lbGVtZW50IGRqcy1zaGFwZSI+PGcgY2xhc3M9ImRqcy12aXN1YWwiPjxjaXJjbGUgc3R5bGU9InN0cm9rZS1saW5lY2FwOiByb3VuZDsgc3Ryb2tlLWxpbmVqb2luOiByb3VuZDsgc3Ryb2tlOiByZ2IoMzQsIDM2LCA0Mik7IHN0cm9rZS13aWR0aDogNHB4OyBmaWxsOiB3aGl0ZTsgZmlsbC1vcGFjaXR5OiAwLjk1OyIgcj0iMTgiIGN5PSIxOCIgY3g9IjE4Ii8+PHBhdGggc3R5bGU9ImZpbGw6IHJnYigzNCwgMzYsIDQyKTsgc3Ryb2tlLWxpbmVjYXA6IHJvdW5kOyBzdHJva2UtbGluZWpvaW46IHJvdW5kOyBzdHJva2U6IHJnYigzNCwgMzYsIDQyKTsgc3Ryb2tlLXdpZHRoOiAxcHg7IiBkPSJtIDcuMiwyNS45OTE5OTk5OTk5OTk5OTcgMC4wOTM1MDAwMDAwMDAwMDAwMSwtMC4wMjUzMDAwMDAwMDAwMDAwMDMgNy4zMzkyLC05LjYxMDcwMDAwMDAwMDAwMSA3LjY2NzAwMDAwMDAwMDAwMSw4Ljk2NjEgNC43MDAzLC0xOC4yMjA0IC01Ljg3MDcsMTEuNjUwMSAtNy4yOTk2MDAwMDAwMDAwMDEsLTkuNTg1NDAwMDAwMDAwMDAyIHoiLz48L2c+PHJlY3Qgc3R5bGU9ImZpbGw6IG5vbmU7IHN0cm9rZS1vcGFjaXR5OiAwOyBzdHJva2U6IHdoaXRlOyBzdHJva2Utd2lkdGg6IDE1cHg7IiBoZWlnaHQ9IjM2IiB3aWR0aD0iMzYiIHk9IjAiIHg9IjAiIGNsYXNzPSJkanMtaGl0IGRqcy1oaXQtYWxsIi8+PGNpcmNsZSBzdHlsZT0iZmlsbDogbm9uZTsiIGNsYXNzPSJkanMtb3V0bGluZSIgcj0iMjQiIGN5PSIxOCIgY3g9IjE4Ii8+PC9nPjwvZz48ZyBjbGFzcz0iZGpzLWdyb3VwIj48ZyBzdHlsZT0iZGlzcGxheTogYmxvY2s7IiB0cmFuc2Zvcm09InRyYW5zbGF0ZSgyMDY2IDM1MCkiIGRhdGEtZWxlbWVudC1pZD0iRXZlbnRfMTNqdjd0aV9sYWJlbCIgY2xhc3M9ImRqcy1lbGVtZW50IGRqcy1zaGFwZSI+PGcgY2xhc3M9ImRqcy12aXN1YWwiPjx0ZXh0IHN0eWxlPSJmb250LWZhbWlseTogQXJpYWwsIHNhbnMtc2VyaWY7IGZvbnQtc2l6ZTogMTFweDsgZm9udC13ZWlnaHQ6IG5vcm1hbDsgZmlsbDogcmdiKDM0LCAzNiwgNDIpOyIgY2xhc3M9ImRqcy1sYWJlbCI+PHRzcGFuIHk9IjkuODk5OTk5OTk5OTk5OTk5IiB4PSIwIj7QvtGI0LjQsdC60LAg0LLRhdC+0LTQsDwvdHNwYW4+PC90ZXh0PjwvZz48cmVjdCBzdHlsZT0iZmlsbDogbm9uZTsgc3Ryb2tlLW9wYWNpdHk6IDA7IHN0cm9rZTogd2hpdGU7IHN0cm9rZS13aWR0aDogMTVweDsiIGhlaWdodD0iMTQiIHdpZHRoPSI3MiIgeT0iMCIgeD0iMCIgY2xhc3M9ImRqcy1oaXQgZGpzLWhpdC1hbGwiLz48cmVjdCBzdHlsZT0iZmlsbDogbm9uZTsiIGNsYXNzPSJkanMtb3V0bGluZSIgaGVpZ2h0PSIyNCIgd2lkdGg9IjgyIiByeD0iNCIgeT0iLTUiIHg9Ii01Ii8+PC9nPjwvZz48ZyBjbGFzcz0iZGpzLWdyb3VwIj48ZyBzdHlsZT0iZGlzcGxheTogYmxvY2s7IiB0cmFuc2Zvcm09InRyYW5zbGF0ZSgyOTQwIDE5MCkiIGRhdGEtZWxlbWVudC1pZD0iQWN0aXZpdHlfMWd6Yms0YyIgY2xhc3M9ImRqcy1lbGVtZW50IGRqcy1zaGFwZSI+PGcgY2xhc3M9ImRqcy12aXN1YWwiPjxyZWN0IHN0eWxlPSJzdHJva2UtbGluZWNhcDogcm91bmQ7IHN0cm9rZS1saW5lam9pbjogcm91bmQ7IHN0cm9rZTogcmdiKDM0LCAzNiwgNDIpOyBzdHJva2Utd2lkdGg6IDJweDsgZmlsbDogd2hpdGU7IGZpbGwtb3BhY2l0eTogMC45NTsiIHJ5PSIxMCIgcng9IjEwIiBoZWlnaHQ9IjgwIiB3aWR0aD0iMTAwIiB5PSIwIiB4PSIwIi8+PHRleHQgc3R5bGU9ImZvbnQtZmFtaWx5OiBBcmlhbCwgc2Fucy1zZXJpZjsgZm9udC1zaXplOiAxMnB4OyBmb250LXdlaWdodDogbm9ybWFsOyBmaWxsOiByZ2IoMzQsIDM2LCA0Mik7IiBjbGFzcz0iZGpzLWxhYmVsIj48dHNwYW4geT0iMjkuMjAwMDAwMDAwMDAwMDAzIiB4PSIyMS4wMDc4MTI1Ij7QvtGC0L/RgNCw0LLQuNGC0YwgPC90c3Bhbj48dHNwYW4geT0iNDMuNiIgeD0iMjguMTE3MTg3NSI+0LrQu9C40LXQvdGC0YMgPC90c3Bhbj48dHNwYW4geT0iNTgiIHg9IjI0LjAwNzgxMjUiPtC00L7QutGD0LzQtdC90YI8L3RzcGFuPjwvdGV4dD48L2c+PHJlY3Qgc3R5bGU9ImZpbGw6IG5vbmU7IHN0cm9rZS1vcGFjaXR5OiAwOyBzdHJva2U6IHdoaXRlOyBzdHJva2Utd2lkdGg6IDE1cHg7IiBoZWlnaHQ9IjgwIiB3aWR0aD0iMTAwIiB5PSIwIiB4PSIwIiBjbGFzcz0iZGpzLWhpdCBkanMtaGl0LWFsbCIvPjxyZWN0IHN0eWxlPSJmaWxsOiBub25lOyIgY2xhc3M9ImRqcy1vdXRsaW5lIiBoZWlnaHQ9IjkwIiB3aWR0aD0iMTEwIiByeD0iMTQiIHk9Ii01IiB4PSItNSIvPjwvZz48L2c+PGcgY2xhc3M9ImRqcy1ncm91cCI+PGcgc3R5bGU9ImRpc3BsYXk6IGJsb2NrOyIgdHJhbnNmb3JtPSJ0cmFuc2xhdGUoNjI2IDM3NykiIGRhdGEtZWxlbWVudC1pZD0iRXZlbnRfMTZ6Z2dwOSIgY2xhc3M9ImRqcy1lbGVtZW50IGRqcy1zaGFwZSI+PGcgY2xhc3M9ImRqcy12aXN1YWwiPjxjaXJjbGUgc3R5bGU9InN0cm9rZS1saW5lY2FwOiByb3VuZDsgc3Ryb2tlLWxpbmVqb2luOiByb3VuZDsgc3Ryb2tlOiByZ2IoMzQsIDM2LCA0Mik7IHN0cm9rZS13aWR0aDogMS41cHg7IGZpbGw6IHdoaXRlOyBmaWxsLW9wYWNpdHk6IDAuOTU7IiByPSIxOCIgY3k9IjE4IiBjeD0iMTgiLz48Y2lyY2xlIHN0eWxlPSJzdHJva2UtbGluZWNhcDogcm91bmQ7IHN0cm9rZS1saW5lam9pbjogcm91bmQ7IHN0cm9rZTogcmdiKDM0LCAzNiwgNDIpOyBzdHJva2Utd2lkdGg6IDEuNXB4OyBmaWxsOiBub25lOyIgcj0iMTUiIGN5PSIxOCIgY3g9IjE4Ii8+PHBhdGggc3R5bGU9ImZpbGw6IHdoaXRlOyBzdHJva2UtbGluZWNhcDogcm91bmQ7IHN0cm9rZS1saW5lam9pbjogcm91bmQ7IHN0cm9rZTogcmdiKDM0LCAzNiwgNDIpOyBzdHJva2Utd2lkdGg6IDFweDsiIGQ9Im0gOC40NTk5OTk5OTk5OTk5OTksMTEuMzQgbCAwLDEyLjYgbCAxOC45MDAwMDAwMDAwMDAwMDIsMCBsIDAsLTEyLjYgeiBsIDkuNDUwMDAwMDAwMDAwMDAxLDUuNCBsIDkuNDUwMDAwMDAwMDAwMDAxLC01LjQiLz48L2c+PHJlY3Qgc3R5bGU9ImZpbGw6IG5vbmU7IHN0cm9rZS1vcGFjaXR5OiAwOyBzdHJva2U6IHdoaXRlOyBzdHJva2Utd2lkdGg6IDE1cHg7IiBoZWlnaHQ9IjM2IiB3aWR0aD0iMzYiIHk9IjAiIHg9IjAiIGNsYXNzPSJkanMtaGl0IGRqcy1oaXQtYWxsIi8+PGNpcmNsZSBzdHlsZT0iZmlsbDogbm9uZTsiIGNsYXNzPSJkanMtb3V0bGluZSIgcj0iMjMiIGN5PSIxOCIgY3g9IjE4Ii8+PC9nPjwvZz48ZyBjbGFzcz0iZGpzLWdyb3VwIj48ZyBzdHlsZT0iZGlzcGxheTogYmxvY2s7IiB0cmFuc2Zvcm09InRyYW5zbGF0ZSgyMzAyIDQ0NykiIGRhdGEtZWxlbWVudC1pZD0iRXZlbnRfMTZ0NHA5eiIgY2xhc3M9ImRqcy1lbGVtZW50IGRqcy1zaGFwZSI+PGcgY2xhc3M9ImRqcy12aXN1YWwiPjxjaXJjbGUgc3R5bGU9InN0cm9rZS1saW5lY2FwOiByb3VuZDsgc3Ryb2tlLWxpbmVqb2luOiByb3VuZDsgc3Ryb2tlOiByZ2IoMzQsIDM2LCA0Mik7IHN0cm9rZS13aWR0aDogMS41cHg7IGZpbGw6IHdoaXRlOyBmaWxsLW9wYWNpdHk6IDAuOTU7IiByPSIxOCIgY3k9IjE4IiBjeD0iMTgiLz48Y2lyY2xlIHN0eWxlPSJzdHJva2UtbGluZWNhcDogcm91bmQ7IHN0cm9rZS1saW5lam9pbjogcm91bmQ7IHN0cm9rZTogcmdiKDM0LCAzNiwgNDIpOyBzdHJva2Utd2lkdGg6IDEuNXB4OyBmaWxsOiBub25lOyIgcj0iMTUiIGN5PSIxOCIgY3g9IjE4Ii8+PHBhdGggc3R5bGU9ImZpbGw6IHdoaXRlOyBzdHJva2UtbGluZWNhcDogcm91bmQ7IHN0cm9rZS1saW5lam9pbjogcm91bmQ7IHN0cm9rZTogcmdiKDM0LCAzNiwgNDIpOyBzdHJva2Utd2lkdGg6IDFweDsiIGQ9Im0gOC40NTk5OTk5OTk5OTk5OTksMTEuMzQgbCAwLDEyLjYgbCAxOC45MDAwMDAwMDAwMDAwMDIsMCBsIDAsLTEyLjYgeiBsIDkuNDUwMDAwMDAwMDAwMDAxLDUuNCBsIDkuNDUwMDAwMDAwMDAwMDAxLC01LjQiLz48L2c+PHJlY3Qgc3R5bGU9ImZpbGw6IG5vbmU7IHN0cm9rZS1vcGFjaXR5OiAwOyBzdHJva2U6IHdoaXRlOyBzdHJva2Utd2lkdGg6IDE1cHg7IiBoZWlnaHQ9IjM2IiB3aWR0aD0iMzYiIHk9IjAiIHg9IjAiIGNsYXNzPSJkanMtaGl0IGRqcy1oaXQtYWxsIi8+PGNpcmNsZSBzdHlsZT0iZmlsbDogbm9uZTsiIGNsYXNzPSJkanMtb3V0bGluZSIgcj0iMjMiIGN5PSIxOCIgY3g9IjE4Ii8+PC9nPjwvZz48ZyBjbGFzcz0iZGpzLWdyb3VwIj48ZyBzdHlsZT0iZGlzcGxheTogYmxvY2s7IiB0cmFuc2Zvcm09InRyYW5zbGF0ZSgyOTQwIDQxMCkiIGRhdGEtZWxlbWVudC1pZD0iQWN0aXZpdHlfMHYweGQ0ZSIgY2xhc3M9ImRqcy1lbGVtZW50IGRqcy1zaGFwZSI+PGcgY2xhc3M9ImRqcy12aXN1YWwiPjxyZWN0IHN0eWxlPSJzdHJva2UtbGluZWNhcDogcm91bmQ7IHN0cm9rZS1saW5lam9pbjogcm91bmQ7IHN0cm9rZTogcmdiKDM0LCAzNiwgNDIpOyBzdHJva2Utd2lkdGg6IDJweDsgZmlsbDogd2hpdGU7IGZpbGwtb3BhY2l0eTogMC45NTsiIHJ5PSIxMCIgcng9IjEwIiBoZWlnaHQ9IjgwIiB3aWR0aD0iMTAwIiB5PSIwIiB4PSIwIi8+PHRleHQgc3R5bGU9ImZvbnQtZmFtaWx5OiBBcmlhbCwgc2Fucy1zZXJpZjsgZm9udC1zaXplOiAxMnB4OyBmb250LXdlaWdodDogbm9ybWFsOyBmaWxsOiByZ2IoMzQsIDM2LCA0Mik7IiBjbGFzcz0iZGpzLWxhYmVsIj48dHNwYW4geT0iMzYuNCIgeD0iOS4zNjcxODc1Ij7QvdC1INC60L7RgNGA0LXQutGC0L3Ri9C10LTQsNC90L3Ri9C1PC90c3Bhbj48L3RleHQ+PHBhdGggc3R5bGU9ImZpbGw6IHJnYigzNCwgMzYsIDQyKTsgc3Ryb2tlLWxpbmVjYXA6IHJvdW5kOyBzdHJva2UtbGluZWpvaW46IHJvdW5kOyBzdHJva2U6IHdoaXRlOyBzdHJva2Utd2lkdGg6IDFweDsiIGQ9Im0gNS45ODQ5OTk5OTk5OTk5OTksNC45OTc5OTk5OTk5OTk5OTkgbCAwLDE0IGwgMjEsMCBsIDAsLTE0IHogbCAxMC41LDYgbCAxMC41LC02Ii8+PC9nPjxyZWN0IHN0eWxlPSJmaWxsOiBub25lOyBzdHJva2Utb3BhY2l0eTogMDsgc3Ryb2tlOiB3aGl0ZTsgc3Ryb2tlLXdpZHRoOiAxNXB4OyIgaGVpZ2h0PSI4MCIgd2lkdGg9IjEwMCIgeT0iMCIgeD0iMCIgY2xhc3M9ImRqcy1oaXQgZGpzLWhpdC1hbGwiLz48cmVjdCBzdHlsZT0iZmlsbDogbm9uZTsiIGNsYXNzPSJkanMtb3V0bGluZSIgaGVpZ2h0PSI5MCIgd2lkdGg9IjExMCIgcng9IjE0IiB5PSItNSIgeD0iLTUiLz48L2c+PC9nPjxnIGNsYXNzPSJkanMtZ3JvdXAiPjxnIHN0eWxlPSJkaXNwbGF5OiBibG9jazsiIHRyYW5zZm9ybT0idHJhbnNsYXRlKDMxMDIgMjEyKSIgZGF0YS1lbGVtZW50LWlkPSJFdmVudF8xdHBremNmIiBjbGFzcz0iZGpzLWVsZW1lbnQgZGpzLXNoYXBlIj48ZyBjbGFzcz0iZGpzLXZpc3VhbCI+PGNpcmNsZSBzdHlsZT0ic3Ryb2tlLWxpbmVjYXA6IHJvdW5kOyBzdHJva2UtbGluZWpvaW46IHJvdW5kOyBzdHJva2U6IHJnYigzNCwgMzYsIDQyKTsgc3Ryb2tlLXdpZHRoOiA0cHg7IGZpbGw6IHdoaXRlOyBmaWxsLW9wYWNpdHk6IDAuOTU7IiByPSIxOCIgY3k9IjE4IiBjeD0iMTgiLz48L2c+PHJlY3Qgc3R5bGU9ImZpbGw6IG5vbmU7IHN0cm9rZS1vcGFjaXR5OiAwOyBzdHJva2U6IHdoaXRlOyBzdHJva2Utd2lkdGg6IDE1cHg7IiBoZWlnaHQ9IjM2IiB3aWR0aD0iMzYiIHk9IjAiIHg9IjAiIGNsYXNzPSJkanMtaGl0IGRqcy1oaXQtYWxsIi8+PGNpcmNsZSBzdHlsZT0iZmlsbDogbm9uZTsiIGNsYXNzPSJkanMtb3V0bGluZSIgcj0iMjQiIGN5PSIxOCIgY3g9IjE4Ii8+PC9nPjwvZz48ZyBjbGFzcz0iZGpzLWdyb3VwIj48ZyBzdHlsZT0iZGlzcGxheTogYmxvY2s7IiB0cmFuc2Zvcm09InRyYW5zbGF0ZSgxMDY2IDEwNTApIiBkYXRhLWVsZW1lbnQtaWQ9IkFjdGl2aXR5XzE2ZzVsM3EiIGNsYXNzPSJkanMtZWxlbWVudCBkanMtc2hhcGUiPjxnIGNsYXNzPSJkanMtdmlzdWFsIj48cmVjdCBzdHlsZT0ic3Ryb2tlLWxpbmVjYXA6IHJvdW5kOyBzdHJva2UtbGluZWpvaW46IHJvdW5kOyBzdHJva2U6IHJnYigzNCwgMzYsIDQyKTsgc3Ryb2tlLXdpZHRoOiAycHg7IGZpbGw6IHdoaXRlOyBmaWxsLW9wYWNpdHk6IDAuOTU7IiByeT0iMTAiIHJ4PSIxMCIgaGVpZ2h0PSI4MCIgd2lkdGg9IjEwMCIgeT0iMCIgeD0iMCIvPjx0ZXh0IHN0eWxlPSJmb250LWZhbWlseTogQXJpYWwsIHNhbnMtc2VyaWY7IGZvbnQtc2l6ZTogMTJweDsgZm9udC13ZWlnaHQ6IG5vcm1hbDsgZmlsbDogcmdiKDM0LCAzNiwgNDIpOyIgY2xhc3M9ImRqcy1sYWJlbCI+PHRzcGFuIHk9IjM2LjQiIHg9IjEwLjU1NDY4NzUiPtC/0L7QuNGB0Log0LrQu9C40LXQvdGC0LAgPC90c3Bhbj48dHNwYW4geT0iNTAuOCIgeD0iMzcuMTQwNjI1Ij7QsiDQkdCUPC90c3Bhbj48L3RleHQ+PC9nPjxyZWN0IHN0eWxlPSJmaWxsOiBub25lOyBzdHJva2Utb3BhY2l0eTogMDsgc3Ryb2tlOiB3aGl0ZTsgc3Ryb2tlLXdpZHRoOiAxNXB4OyIgaGVpZ2h0PSI4MCIgd2lkdGg9IjEwMCIgeT0iMCIgeD0iMCIgY2xhc3M9ImRqcy1oaXQgZGpzLWhpdC1hbGwiLz48cmVjdCBzdHlsZT0iZmlsbDogbm9uZTsiIGNsYXNzPSJkanMtb3V0bGluZSIgaGVpZ2h0PSI5MCIgd2lkdGg9IjExMCIgcng9IjE0IiB5PSItNSIgeD0iLTUiLz48L2c+PC9nPjxnIGNsYXNzPSJkanMtZ3JvdXAiPjxnIHN0eWxlPSJkaXNwbGF5OiBibG9jazsiIHRyYW5zZm9ybT0idHJhbnNsYXRlKDE1ODIgNjkyKSIgZGF0YS1lbGVtZW50LWlkPSJFdmVudF8xbHU2MDU5IiBjbGFzcz0iZGpzLWVsZW1lbnQgZGpzLXNoYXBlIj48ZyBjbGFzcz0iZGpzLXZpc3VhbCI+PGNpcmNsZSBzdHlsZT0ic3Ryb2tlLWxpbmVjYXA6IHJvdW5kOyBzdHJva2UtbGluZWpvaW46IHJvdW5kOyBzdHJva2U6IHJnYigzNCwgMzYsIDQyKTsgc3Ryb2tlLXdpZHRoOiAxLjVweDsgZmlsbDogd2hpdGU7IGZpbGwtb3BhY2l0eTogMC45NTsiIHI9IjE4IiBjeT0iMTgiIGN4PSIxOCIvPjxjaXJjbGUgc3R5bGU9InN0cm9rZS1saW5lY2FwOiByb3VuZDsgc3Ryb2tlLWxpbmVqb2luOiByb3VuZDsgc3Ryb2tlOiByZ2IoMzQsIDM2LCA0Mik7IHN0cm9rZS13aWR0aDogMS41cHg7IGZpbGw6IG5vbmU7IiByPSIxNSIgY3k9IjE4IiBjeD0iMTgiLz48cGF0aCBzdHlsZT0iZmlsbDogcmdiKDM0LCAzNiwgNDIpOyBzdHJva2UtbGluZWNhcDogcm91bmQ7IHN0cm9rZS1saW5lam9pbjogcm91bmQ7IHN0cm9rZTogd2hpdGU7IHN0cm9rZS13aWR0aDogMXB4OyIgZD0ibSA4LjQ1OTk5OTk5OTk5OTk5OSwxMS4zNCBsIDAsMTIuNiBsIDE4LjkwMDAwMDAwMDAwMDAwMiwwIGwgMCwtMTIuNiB6IGwgOS40NTAwMDAwMDAwMDAwMDEsNS40IGwgOS40NTAwMDAwMDAwMDAwMDEsLTUuNCIvPjwvZz48cmVjdCBzdHlsZT0iZmlsbDogbm9uZTsgc3Ryb2tlLW9wYWNpdHk6IDA7IHN0cm9rZTogd2hpdGU7IHN0cm9rZS13aWR0aDogMTVweDsiIGhlaWdodD0iMzYiIHdpZHRoPSIzNiIgeT0iMCIgeD0iMCIgY2xhc3M9ImRqcy1oaXQgZGpzLWhpdC1hbGwiLz48Y2lyY2xlIHN0eWxlPSJmaWxsOiBub25lOyIgY2xhc3M9ImRqcy1vdXRsaW5lIiByPSIyMyIgY3k9IjE4IiBjeD0iMTgiLz48L2c+PC9nPjxnIGNsYXNzPSJkanMtZ3JvdXAiPjxnIHN0eWxlPSJkaXNwbGF5OiBibG9jazsiIHRyYW5zZm9ybT0idHJhbnNsYXRlKDI1MTIgODIyKSIgZGF0YS1lbGVtZW50LWlkPSJFdmVudF8wOXVuem1zIiBjbGFzcz0iZGpzLWVsZW1lbnQgZGpzLXNoYXBlIj48ZyBjbGFzcz0iZGpzLXZpc3VhbCI+PGNpcmNsZSBzdHlsZT0ic3Ryb2tlLWxpbmVjYXA6IHJvdW5kOyBzdHJva2UtbGluZWpvaW46IHJvdW5kOyBzdHJva2U6IHJnYigzNCwgMzYsIDQyKTsgc3Ryb2tlLXdpZHRoOiAxLjVweDsgZmlsbDogd2hpdGU7IGZpbGwtb3BhY2l0eTogMC45NTsiIHI9IjE4IiBjeT0iMTgiIGN4PSIxOCIvPjxjaXJjbGUgc3R5bGU9InN0cm9rZS1saW5lY2FwOiByb3VuZDsgc3Ryb2tlLWxpbmVqb2luOiByb3VuZDsgc3Ryb2tlOiByZ2IoMzQsIDM2LCA0Mik7IHN0cm9rZS13aWR0aDogMS41cHg7IGZpbGw6IG5vbmU7IiByPSIxNSIgY3k9IjE4IiBjeD0iMTgiLz48cGF0aCBzdHlsZT0iZmlsbDogcmdiKDM0LCAzNiwgNDIpOyBzdHJva2UtbGluZWNhcDogcm91bmQ7IHN0cm9rZS1saW5lam9pbjogcm91bmQ7IHN0cm9rZTogd2hpdGU7IHN0cm9rZS13aWR0aDogMXB4OyIgZD0ibSA4LjQ1OTk5OTk5OTk5OTk5OSwxMS4zNCBsIDAsMTIuNiBsIDE4LjkwMDAwMDAwMDAwMDAwMiwwIGwgMCwtMTIuNiB6IGwgOS40NTAwMDAwMDAwMDAwMDEsNS40IGwgOS40NTAwMDAwMDAwMDAwMDEsLTUuNCIvPjwvZz48cmVjdCBzdHlsZT0iZmlsbDogbm9uZTsgc3Ryb2tlLW9wYWNpdHk6IDA7IHN0cm9rZTogd2hpdGU7IHN0cm9rZS13aWR0aDogMTVweDsiIGhlaWdodD0iMzYiIHdpZHRoPSIzNiIgeT0iMCIgeD0iMCIgY2xhc3M9ImRqcy1oaXQgZGpzLWhpdC1hbGwiLz48Y2lyY2xlIHN0eWxlPSJmaWxsOiBub25lOyIgY2xhc3M9ImRqcy1vdXRsaW5lIiByPSIyMyIgY3k9IjE4IiBjeD0iMTgiLz48L2c+PC9nPjxnIGNsYXNzPSJkanMtZ3JvdXAiPjxnIHN0eWxlPSJkaXNwbGF5OiBibG9jazsiIHRyYW5zZm9ybT0idHJhbnNsYXRlKDE5NzIgNDg3KSIgZGF0YS1lbGVtZW50LWlkPSJFdmVudF8xYjNnMGNnIiBjbGFzcz0iZGpzLWVsZW1lbnQgZGpzLXNoYXBlIj48ZyBjbGFzcz0iZGpzLXZpc3VhbCI+PGNpcmNsZSBzdHlsZT0ic3Ryb2tlLWxpbmVjYXA6IHJvdW5kOyBzdHJva2UtbGluZWpvaW46IHJvdW5kOyBzdHJva2U6IHJnYigzNCwgMzYsIDQyKTsgc3Ryb2tlLXdpZHRoOiAxLjVweDsgZmlsbDogd2hpdGU7IGZpbGwtb3BhY2l0eTogMTsiIHI9IjE4IiBjeT0iMTgiIGN4PSIxOCIvPjxjaXJjbGUgc3R5bGU9InN0cm9rZS1saW5lY2FwOiByb3VuZDsgc3Ryb2tlLWxpbmVqb2luOiByb3VuZDsgc3Ryb2tlOiByZ2IoMzQsIDM2LCA0Mik7IHN0cm9rZS13aWR0aDogMS41cHg7IGZpbGw6IG5vbmU7IGZpbGwtb3BhY2l0eTogMTsiIHI9IjE1IiBjeT0iMTgiIGN4PSIxOCIvPjxwYXRoIHN0eWxlPSJmaWxsOiB3aGl0ZTsgc3Ryb2tlLWxpbmVjYXA6IHJvdW5kOyBzdHJva2UtbGluZWpvaW46IHJvdW5kOyBzdHJva2U6IHJnYigzNCwgMzYsIDQyKTsgc3Ryb2tlLXdpZHRoOiAxcHg7IiBkPSJtIDcuMiwyNS45OTE5OTk5OTk5OTk5OTcgMC4wOTM1MDAwMDAwMDAwMDAwMSwtMC4wMjUzMDAwMDAwMDAwMDAwMDMgNy4zMzkyLC05LjYxMDcwMDAwMDAwMDAwMSA3LjY2NzAwMDAwMDAwMDAwMSw4Ljk2NjEgNC43MDAzLC0xOC4yMjA0IC01Ljg3MDcsMTEuNjUwMSAtNy4yOTk2MDAwMDAwMDAwMDEsLTkuNTg1NDAwMDAwMDAwMDAyIHoiLz48L2c+PHJlY3Qgc3R5bGU9ImZpbGw6IG5vbmU7IHN0cm9rZS1vcGFjaXR5OiAwOyBzdHJva2U6IHdoaXRlOyBzdHJva2Utd2lkdGg6IDE1cHg7IiBoZWlnaHQ9IjM2IiB3aWR0aD0iMzYiIHk9IjAiIHg9IjAiIGNsYXNzPSJkanMtaGl0IGRqcy1oaXQtYWxsIi8+PGNpcmNsZSBzdHlsZT0iZmlsbDogbm9uZTsiIGNsYXNzPSJkanMtb3V0bGluZSIgcj0iMjMiIGN5PSIxOCIgY3g9IjE4Ii8+PC9nPjwvZz48ZyBjbGFzcz0iZGpzLWdyb3VwIj48ZyBzdHlsZT0iZGlzcGxheTogYmxvY2s7IiB0cmFuc2Zvcm09InRyYW5zbGF0ZSgxOTUzIDUzMCkiIGRhdGEtZWxlbWVudC1pZD0iRXZlbnRfMWIzZzBjZ19sYWJlbCIgY2xhc3M9ImRqcy1lbGVtZW50IGRqcy1zaGFwZSI+PGcgY2xhc3M9ImRqcy12aXN1YWwiPjx0ZXh0IHN0eWxlPSJmb250LWZhbWlseTogQXJpYWwsIHNhbnMtc2VyaWY7IGZvbnQtc2l6ZTogMTFweDsgZm9udC13ZWlnaHQ6IG5vcm1hbDsgZmlsbDogcmdiKDM0LCAzNiwgNDIpOyIgY2xhc3M9ImRqcy1sYWJlbCI+PHRzcGFuIHk9IjkuODk5OTk5OTk5OTk5OTk5IiB4PSIwIj7QvdC1INC60L7RgNGA0LXQutGC0L3Ri9C1IDwvdHNwYW4+PHRzcGFuIHk9IjIzLjA5OTk5OTk5OTk5OTk5OCIgeD0iMTcuODgyODEyNSI+0LTQsNC90L3Ri9C1PC90c3Bhbj48L3RleHQ+PC9nPjxyZWN0IHN0eWxlPSJmaWxsOiBub25lOyBzdHJva2Utb3BhY2l0eTogMDsgc3Ryb2tlOiB3aGl0ZTsgc3Ryb2tlLXdpZHRoOiAxNXB4OyIgaGVpZ2h0PSIyNyIgd2lkdGg9Ijc1IiB5PSIwIiB4PSIwIiBjbGFzcz0iZGpzLWhpdCBkanMtaGl0LWFsbCIvPjxyZWN0IHN0eWxlPSJmaWxsOiBub25lOyIgY2xhc3M9ImRqcy1vdXRsaW5lIiBoZWlnaHQ9IjM3IiB3aWR0aD0iODUiIHJ4PSI0IiB5PSItNSIgeD0iLTUiLz48L2c+PC9nPjxnIGNsYXNzPSJkanMtZ3JvdXAiPjxnIHN0eWxlPSJkaXNwbGF5OiBibG9jazsiIHRyYW5zZm9ybT0idHJhbnNsYXRlKDM1OCA0MTcpIiBkYXRhLWVsZW1lbnQtaWQ9IkV2ZW50XzBmYWthZDQiIGNsYXNzPSJkanMtZWxlbWVudCBkanMtc2hhcGUiPjxnIGNsYXNzPSJkanMtdmlzdWFsIj48Y2lyY2xlIHN0eWxlPSJzdHJva2UtbGluZWNhcDogcm91bmQ7IHN0cm9rZS1saW5lam9pbjogcm91bmQ7IHN0cm9rZTogcmdiKDM0LCAzNiwgNDIpOyBzdHJva2Utd2lkdGg6IDEuNXB4OyBmaWxsOiB3aGl0ZTsgZmlsbC1vcGFjaXR5OiAxOyIgcj0iMTgiIGN5PSIxOCIgY3g9IjE4Ii8+PGNpcmNsZSBzdHlsZT0ic3Ryb2tlLWxpbmVjYXA6IHJvdW5kOyBzdHJva2UtbGluZWpvaW46IHJvdW5kOyBzdHJva2U6IHJnYigzNCwgMzYsIDQyKTsgc3Ryb2tlLXdpZHRoOiAxLjVweDsgZmlsbDogbm9uZTsgZmlsbC1vcGFjaXR5OiAxOyIgcj0iMTUiIGN5PSIxOCIgY3g9IjE4Ii8+PHBhdGggc3R5bGU9ImZpbGw6IHdoaXRlOyBzdHJva2UtbGluZWNhcDogcm91bmQ7IHN0cm9rZS1saW5lam9pbjogcm91bmQ7IHN0cm9rZTogcmdiKDM0LCAzNiwgNDIpOyBzdHJva2Utd2lkdGg6IDFweDsiIGQ9Im0gNy4yLDI1Ljk5MTk5OTk5OTk5OTk5NyAwLjA5MzUwMDAwMDAwMDAwMDAxLC0wLjAyNTMwMDAwMDAwMDAwMDAwMyA3LjMzOTIsLTkuNjEwNzAwMDAwMDAwMDAxIDcuNjY3MDAwMDAwMDAwMDAxLDguOTY2MSA0LjcwMDMsLTE4LjIyMDQgLTUuODcwNywxMS42NTAxIC03LjI5OTYwMDAwMDAwMDAwMSwtOS41ODU0MDAwMDAwMDAwMDIgeiIvPjwvZz48cmVjdCBzdHlsZT0iZmlsbDogbm9uZTsgc3Ryb2tlLW9wYWNpdHk6IDA7IHN0cm9rZTogd2hpdGU7IHN0cm9rZS13aWR0aDogMTVweDsiIGhlaWdodD0iMzYiIHdpZHRoPSIzNiIgeT0iMCIgeD0iMCIgY2xhc3M9ImRqcy1oaXQgZGpzLWhpdC1hbGwiLz48Y2lyY2xlIHN0eWxlPSJmaWxsOiBub25lOyIgY2xhc3M9ImRqcy1vdXRsaW5lIiByPSIyMyIgY3k9IjE4IiBjeD0iMTgiLz48L2c+PC9nPjxnIGNsYXNzPSJkanMtZ3JvdXAiPjxnIHN0eWxlPSJkaXNwbGF5OiBibG9jazsiIHRyYW5zZm9ybT0idHJhbnNsYXRlKDM0MCA0NjApIiBkYXRhLWVsZW1lbnQtaWQ9IkV2ZW50XzBmYWthZDRfbGFiZWwiIGNsYXNzPSJkanMtZWxlbWVudCBkanMtc2hhcGUiPjxnIGNsYXNzPSJkanMtdmlzdWFsIj48dGV4dCBzdHlsZT0iZm9udC1mYW1pbHk6IEFyaWFsLCBzYW5zLXNlcmlmOyBmb250LXNpemU6IDExcHg7IGZvbnQtd2VpZ2h0OiBub3JtYWw7IGZpbGw6IHJnYigzNCwgMzYsIDQyKTsiIGNsYXNzPSJkanMtbGFiZWwiPjx0c3BhbiB5PSI5Ljg5OTk5OTk5OTk5OTk5OSIgeD0iMCI+0L7RiNC40LHQutCwINCy0YXQvtC00LA8L3RzcGFuPjwvdGV4dD48L2c+PHJlY3Qgc3R5bGU9ImZpbGw6IG5vbmU7IHN0cm9rZS1vcGFjaXR5OiAwOyBzdHJva2U6IHdoaXRlOyBzdHJva2Utd2lkdGg6IDE1cHg7IiBoZWlnaHQ9IjE0IiB3aWR0aD0iNzIiIHk9IjAiIHg9IjAiIGNsYXNzPSJkanMtaGl0IGRqcy1oaXQtYWxsIi8+PHJlY3Qgc3R5bGU9ImZpbGw6IG5vbmU7IiBjbGFzcz0iZGpzLW91dGxpbmUiIGhlaWdodD0iMjQiIHdpZHRoPSI4MiIgcng9IjQiIHk9Ii01IiB4PSItNSIvPjwvZz48L2c+PGcgY2xhc3M9ImRqcy1ncm91cCI+PGcgc3R5bGU9ImRpc3BsYXk6IGJsb2NrOyIgZGF0YS1lbGVtZW50LWlkPSJGbG93XzEyMHZwbzciIGNsYXNzPSJkanMtZWxlbWVudCBkanMtY29ubmVjdGlvbiI+PGcgY2xhc3M9ImRqcy12aXN1YWwiPjxwYXRoIGQ9Ik0yNjIsMzk1TDMxNCwzOTUiIHN0eWxlPSJmaWxsOiBub25lOyBzdHJva2UtbGluZWNhcDogcm91bmQ7IHN0cm9rZS1saW5lam9pbjogcm91bmQ7IHN0cm9rZTogcmdiKDM0LCAzNiwgNDIpOyBzdHJva2Utd2lkdGg6IDJweDsgbWFya2VyLWVuZDogdXJsKCcjc2VxdWVuY2VmbG93LWVuZC13aGl0ZS1oc2xfMjI1XzEwXzE1Xy1kZXhiMWpqbGFoaWZtcmVmNHgxMmt1ejkwJyk7IiBkYXRhLWNvcm5lci1yYWRpdXM9IjUiLz48L2c+PHJlY3Qgc3R5bGU9ImZpbGw6IG5vbmU7IiBjbGFzcz0iZGpzLW91dGxpbmUiIGhlaWdodD0iMTAiIHdpZHRoPSI2MiIgcng9IjQiIHk9IjM5MCIgeD0iMjU3Ii8+PHBhdGggc3R5bGU9ImZpbGw6IG5vbmU7IHN0cm9rZS1vcGFjaXR5OiAwOyBzdHJva2U6IHdoaXRlOyBzdHJva2Utd2lkdGg6IDE1cHg7IiBjbGFzcz0iZGpzLWhpdCBkanMtaGl0LXN0cm9rZSIgZD0iTTI2MiwzOTVMMzE0LDM5NSIvPjwvZz48L2c+PGcgY2xhc3M9ImRqcy1ncm91cCI+PGcgc3R5bGU9ImRpc3BsYXk6IGJsb2NrOyIgZGF0YS1lbGVtZW50LWlkPSJGbG93XzBraGN2bXciIGNsYXNzPSJkanMtZWxlbWVudCBkanMtY29ubmVjdGlvbiI+PGcgY2xhc3M9ImRqcy12aXN1YWwiPjxwYXRoIGQ9Ik00MTQsMzk1TDQ3NCwzOTUiIHN0eWxlPSJmaWxsOiBub25lOyBzdHJva2UtbGluZWNhcDogcm91bmQ7IHN0cm9rZS1saW5lam9pbjogcm91bmQ7IHN0cm9rZTogcmdiKDM0LCAzNiwgNDIpOyBzdHJva2Utd2lkdGg6IDJweDsgbWFya2VyLWVuZDogdXJsKCcjc2VxdWVuY2VmbG93LWVuZC13aGl0ZS1oc2xfMjI1XzEwXzE1Xy1kZXhiMWpqbGFoaWZtcmVmNHgxMmt1ejkwJyk7IiBkYXRhLWNvcm5lci1yYWRpdXM9IjUiLz48L2c+PHJlY3Qgc3R5bGU9ImZpbGw6IG5vbmU7IiBjbGFzcz0iZGpzLW91dGxpbmUiIGhlaWdodD0iMTAiIHdpZHRoPSI3MCIgcng9IjQiIHk9IjM5MCIgeD0iNDA5Ii8+PHBhdGggc3R5bGU9ImZpbGw6IG5vbmU7IHN0cm9rZS1vcGFjaXR5OiAwOyBzdHJva2U6IHdoaXRlOyBzdHJva2Utd2lkdGg6IDE1cHg7IiBjbGFzcz0iZGpzLWhpdCBkanMtaGl0LXN0cm9rZSIgZD0iTTQxNCwzOTVMNDc0LDM5NSIvPjwvZz48L2c+PGcgY2xhc3M9ImRqcy1ncm91cCI+PGcgc3R5bGU9ImRpc3BsYXk6IGJsb2NrOyIgZGF0YS1lbGVtZW50LWlkPSJGbG93XzFxcWpkNTQiIGNsYXNzPSJkanMtZWxlbWVudCBkanMtY29ubmVjdGlvbiI+PGcgY2xhc3M9ImRqcy12aXN1YWwiPjxwYXRoIGQ9Ik01NzQsMzk1TDYyNiwzOTUiIHN0eWxlPSJmaWxsOiBub25lOyBzdHJva2UtbGluZWNhcDogcm91bmQ7IHN0cm9rZS1saW5lam9pbjogcm91bmQ7IHN0cm9rZTogcmdiKDM0LCAzNiwgNDIpOyBzdHJva2Utd2lkdGg6IDJweDsgbWFya2VyLWVuZDogdXJsKCcjc2VxdWVuY2VmbG93LWVuZC13aGl0ZS1oc2xfMjI1XzEwXzE1Xy1kZXhiMWpqbGFoaWZtcmVmNHgxMmt1ejkwJyk7IiBkYXRhLWNvcm5lci1yYWRpdXM9IjUiLz48L2c+PHJlY3Qgc3R5bGU9ImZpbGw6IG5vbmU7IiBjbGFzcz0iZGpzLW91dGxpbmUiIGhlaWdodD0iMTAiIHdpZHRoPSI2MiIgcng9IjQiIHk9IjM5MCIgeD0iNTY5Ii8+PHBhdGggc3R5bGU9ImZpbGw6IG5vbmU7IHN0cm9rZS1vcGFjaXR5OiAwOyBzdHJva2U6IHdoaXRlOyBzdHJva2Utd2lkdGg6IDE1cHg7IiBjbGFzcz0iZGpzLWhpdCBkanMtaGl0LXN0cm9rZSIgZD0iTTU3NCwzOTVMNjI2LDM5NSIvPjwvZz48L2c+PGcgY2xhc3M9ImRqcy1ncm91cCI+PGcgc3R5bGU9ImRpc3BsYXk6IGJsb2NrOyIgZGF0YS1lbGVtZW50LWlkPSJGbG93XzFhdGRjZTciIGNsYXNzPSJkanMtZWxlbWVudCBkanMtY29ubmVjdGlvbiI+PGcgY2xhc3M9ImRqcy12aXN1YWwiPjxwYXRoIGQ9Ik02NjIsMzk1TDY3OSwzOTVDNjgxLjUsMzk1LDY4NCwzOTcuNSw2ODQsNDAwTDY4NCw4MTBDNjg0LDgxMi41LDY4Ni41LDgxNSw2ODksODE1TDcwNiw4MTUiIHN0eWxlPSJmaWxsOiBub25lOyBzdHJva2UtbGluZWNhcDogcm91bmQ7IHN0cm9rZS1saW5lam9pbjogcm91bmQ7IHN0cm9rZTogcmdiKDM0LCAzNiwgNDIpOyBzdHJva2Utd2lkdGg6IDJweDsgbWFya2VyLWVuZDogdXJsKCcjc2VxdWVuY2VmbG93LWVuZC13aGl0ZS1oc2xfMjI1XzEwXzE1Xy1kZXhiMWpqbGFoaWZtcmVmNHgxMmt1ejkwJyk7IiBkYXRhLWNvcm5lci1yYWRpdXM9IjUiLz48L2c+PHJlY3Qgc3R5bGU9ImZpbGw6IG5vbmU7IiBjbGFzcz0iZGpzLW91dGxpbmUiIGhlaWdodD0iNDMwIiB3aWR0aD0iNTQiIHJ4PSI0IiB5PSIzOTAiIHg9IjY1NyIvPjxwYXRoIHN0eWxlPSJmaWxsOiBub25lOyBzdHJva2Utb3BhY2l0eTogMDsgc3Ryb2tlOiB3aGl0ZTsgc3Ryb2tlLXdpZHRoOiAxNXB4OyIgY2xhc3M9ImRqcy1oaXQgZGpzLWhpdC1zdHJva2UiIGQ9Ik02NjIsMzk1TDY4NCwzOTVMNjg0LDgxNUw3MDYsODE1Ii8+PC9nPjwvZz48ZyBjbGFzcz0iZGpzLWdyb3VwIj48ZyBzdHlsZT0iZGlzcGxheTogYmxvY2s7IiBkYXRhLWVsZW1lbnQtaWQ9IkZsb3dfMWdsNjB6aSIgY2xhc3M9ImRqcy1lbGVtZW50IGRqcy1jb25uZWN0aW9uIj48ZyBjbGFzcz0iZGpzLXZpc3VhbCI+PHBhdGggZD0iTTIzMjAsNDgzTDIzMjAsNjQ1QzIzMjAsNjQ3LjUsMjMxNy41LDY1MCwyMzE1LDY1MEw3NjEsNjUwQzc1OC41LDY1MCw3NTYsNjUyLjUsNzU2LDY1NUw3NTYsNzc1IiBzdHlsZT0iZmlsbDogbm9uZTsgc3Ryb2tlLWxpbmVjYXA6IHJvdW5kOyBzdHJva2UtbGluZWpvaW46IHJvdW5kOyBzdHJva2U6IHJnYigzMiwgODAsIDM0KTsgc3Ryb2tlLXdpZHRoOiAycHg7IG1hcmtlci1lbmQ6IHVybCgnI3NlcXVlbmNlZmxvdy1lbmQtd2hpdGUtXzIwNTAyMi1kZXhiMWpqbGFoaWZtcmVmNHgxMmt1ejkwJyk7IiBkYXRhLWNvcm5lci1yYWRpdXM9IjUiLz48L2c+PHJlY3Qgc3R5bGU9ImZpbGw6IG5vbmU7IiBjbGFzcz0iZGpzLW91dGxpbmUiIGhlaWdodD0iMzAyIiB3aWR0aD0iMTU3NCIgcng9IjQiIHk9IjQ3OCIgeD0iNzUxIi8+PHBhdGggc3R5bGU9ImZpbGw6IG5vbmU7IHN0cm9rZS1vcGFjaXR5OiAwOyBzdHJva2U6IHdoaXRlOyBzdHJva2Utd2lkdGg6IDE1cHg7IiBjbGFzcz0iZGpzLWhpdCBkanMtaGl0LXN0cm9rZSIgZD0iTTIzMjAsNDgzTDIzMjAsNjUwTDc1Niw2NTBMNzU2LDc3NSIvPjwvZz48L2c+PGcgY2xhc3M9ImRqcy1ncm91cCI+PGcgc3R5bGU9ImRpc3BsYXk6IGJsb2NrOyIgZGF0YS1lbGVtZW50LWlkPSJGbG93XzBibzhjY3MiIGNsYXNzPSJkanMtZWxlbWVudCBkanMtY29ubmVjdGlvbiI+PGcgY2xhc3M9ImRqcy12aXN1YWwiPjxwYXRoIGQ9Ik0xNTYxLDgxNUwxNTk1LDgxNUMxNTk3LjUsODE1LDE2MDAsODEyLjUsMTYwMCw4MTBMMTYwMCw3MjgiIHN0eWxlPSJmaWxsOiBub25lOyBzdHJva2UtbGluZWNhcDogcm91bmQ7IHN0cm9rZS1saW5lam9pbjogcm91bmQ7IHN0cm9rZTogcmdiKDM0LCAzNiwgNDIpOyBzdHJva2Utd2lkdGg6IDJweDsgbWFya2VyLWVuZDogdXJsKCcjc2VxdWVuY2VmbG93LWVuZC13aGl0ZS1oc2xfMjI1XzEwXzE1Xy1kZXhiMWpqbGFoaWZtcmVmNHgxMmt1ejkwJyk7IiBkYXRhLWNvcm5lci1yYWRpdXM9IjUiLz48L2c+PHJlY3Qgc3R5bGU9ImZpbGw6IG5vbmU7IiBjbGFzcz0iZGpzLW91dGxpbmUiIGhlaWdodD0iOTciIHdpZHRoPSI0OSIgcng9IjQiIHk9IjcyMyIgeD0iMTU1NiIvPjxwYXRoIHN0eWxlPSJmaWxsOiBub25lOyBzdHJva2Utb3BhY2l0eTogMDsgc3Ryb2tlOiB3aGl0ZTsgc3Ryb2tlLXdpZHRoOiAxNXB4OyIgY2xhc3M9ImRqcy1oaXQgZGpzLWhpdC1zdHJva2UiIGQ9Ik0xNTYxLDgxNUwxNjAwLDgxNUwxNjAwLDcyOCIvPjwvZz48L2c+PGcgY2xhc3M9ImRqcy1ncm91cCI+PGcgc3R5bGU9ImRpc3BsYXk6IGJsb2NrOyIgZGF0YS1lbGVtZW50LWlkPSJGbG93XzAyaXhtdHgiIGNsYXNzPSJkanMtZWxlbWVudCBkanMtY29ubmVjdGlvbiI+PGcgY2xhc3M9ImRqcy12aXN1YWwiPjxwYXRoIGQ9Ik0yODIwLDMxMEwyODIwLDIzNUMyODIwLDIzMi41LDI4MjIuNSwyMzAsMjgyNSwyMzBMMjk0MCwyMzAiIHN0eWxlPSJmaWxsOiBub25lOyBzdHJva2UtbGluZWNhcDogcm91bmQ7IHN0cm9rZS1saW5lam9pbjogcm91bmQ7IHN0cm9rZTogcmdiKDM0LCAzNiwgNDIpOyBzdHJva2Utd2lkdGg6IDJweDsgbWFya2VyLWVuZDogdXJsKCcjc2VxdWVuY2VmbG93LWVuZC13aGl0ZS1oc2xfMjI1XzEwXzE1Xy1kZXhiMWpqbGFoaWZtcmVmNHgxMmt1ejkwJyk7IiBkYXRhLWNvcm5lci1yYWRpdXM9IjUiLz48L2c+PHJlY3Qgc3R5bGU9ImZpbGw6IG5vbmU7IiBjbGFzcz0iZGpzLW91dGxpbmUiIGhlaWdodD0iOTAiIHdpZHRoPSIxMzAiIHJ4PSI0IiB5PSIyMjUiIHg9IjI4MTUiLz48cGF0aCBzdHlsZT0iZmlsbDogbm9uZTsgc3Ryb2tlLW9wYWNpdHk6IDA7IHN0cm9rZTogd2hpdGU7IHN0cm9rZS13aWR0aDogMTVweDsiIGNsYXNzPSJkanMtaGl0IGRqcy1oaXQtc3Ryb2tlIiBkPSJNMjgyMCwzMTBMMjgyMCwyMzBMMjk0MCwyMzAiLz48L2c+PC9nPjxnIGNsYXNzPSJkanMtZ3JvdXAiPjxnIHN0eWxlPSJkaXNwbGF5OiBibG9jazsiIHRyYW5zZm9ybT0idHJhbnNsYXRlKDI4MzcgMjM2KSIgZGF0YS1lbGVtZW50LWlkPSJGbG93XzAyaXhtdHhfbGFiZWwiIGNsYXNzPSJkanMtZWxlbWVudCBkanMtc2hhcGUiPjxnIGNsYXNzPSJkanMtdmlzdWFsIj48dGV4dCBzdHlsZT0iZm9udC1mYW1pbHk6IEFyaWFsLCBzYW5zLXNlcmlmOyBmb250LXNpemU6IDExcHg7IGZvbnQtd2VpZ2h0OiBub3JtYWw7IGZpbGw6IHJnYigzNCwgMzYsIDQyKTsiIGNsYXNzPSJkanMtbGFiZWwiPjx0c3BhbiB5PSI5Ljg5OTk5OTk5OTk5OTk5OSIgeD0iMCI+0LTQsNC90L3Ri9C1INGD0YHQv9C10YjQvdC+0LjQt9C80LXQvdC10L3RizwvdHNwYW4+PC90ZXh0PjwvZz48cmVjdCBzdHlsZT0iZmlsbDogbm9uZTsgc3Ryb2tlLW9wYWNpdHk6IDA7IHN0cm9rZTogd2hpdGU7IHN0cm9rZS13aWR0aDogMTVweDsiIGhlaWdodD0iMjciIHdpZHRoPSI4NiIgeT0iMCIgeD0iMCIgY2xhc3M9ImRqcy1oaXQgZGpzLWhpdC1hbGwiLz48cmVjdCBzdHlsZT0iZmlsbDogbm9uZTsiIGNsYXNzPSJkanMtb3V0bGluZSIgaGVpZ2h0PSIzNyIgd2lkdGg9Ijk2IiByeD0iNCIgeT0iLTUiIHg9Ii01Ii8+PC9nPjwvZz48ZyBjbGFzcz0iZGpzLWdyb3VwIj48ZyBzdHlsZT0iZGlzcGxheTogYmxvY2s7IiBkYXRhLWVsZW1lbnQtaWQ9IkZsb3dfMHc5bmY5YSIgY2xhc3M9ImRqcy1lbGVtZW50IGRqcy1jb25uZWN0aW9uIj48ZyBjbGFzcz0iZGpzLXZpc3VhbCI+PHBhdGggZD0iTTE4MTMsMTA5MEwyNTI1LDEwOTBDMjUyNy41LDEwOTAsMjUzMCwxMDg3LjUsMjUzMCwxMDg1TDI1MzAsODU4IiBzdHlsZT0iZmlsbDogbm9uZTsgc3Ryb2tlLWxpbmVjYXA6IHJvdW5kOyBzdHJva2UtbGluZWpvaW46IHJvdW5kOyBzdHJva2U6IHJnYigzNCwgMzYsIDQyKTsgc3Ryb2tlLXdpZHRoOiAycHg7IG1hcmtlci1lbmQ6IHVybCgnI3NlcXVlbmNlZmxvdy1lbmQtd2hpdGUtaHNsXzIyNV8xMF8xNV8tZGV4YjFqamxhaGlmbXJlZjR4MTJrdXo5MCcpOyIgZGF0YS1jb3JuZXItcmFkaXVzPSI1Ii8+PC9nPjxyZWN0IHN0eWxlPSJmaWxsOiBub25lOyIgY2xhc3M9ImRqcy1vdXRsaW5lIiBoZWlnaHQ9IjI0MiIgd2lkdGg9IjcyNyIgcng9IjQiIHk9Ijg1MyIgeD0iMTgwOCIvPjxwYXRoIHN0eWxlPSJmaWxsOiBub25lOyBzdHJva2Utb3BhY2l0eTogMDsgc3Ryb2tlOiB3aGl0ZTsgc3Ryb2tlLXdpZHRoOiAxNXB4OyIgY2xhc3M9ImRqcy1oaXQgZGpzLWhpdC1zdHJva2UiIGQ9Ik0xODEzLDEwOTBMMjUzMCwxMDkwTDI1MzAsODU4Ii8+PC9nPjwvZz48ZyBjbGFzcz0iZGpzLWdyb3VwIj48ZyBzdHlsZT0iZGlzcGxheTogYmxvY2s7IiBkYXRhLWVsZW1lbnQtaWQ9IkZsb3dfMG0zdzYyNCIgY2xhc3M9ImRqcy1lbGVtZW50IGRqcy1jb25uZWN0aW9uIj48ZyBjbGFzcz0iZGpzLXZpc3VhbCI+PHBhdGggZD0iTTEyNTYsNzkwTDEyNTYsNzQwQzEyNTYsNzM3LjUsMTI1OC41LDczNSwxMjYxLDczNUwxMzQ2LDczNSIgc3R5bGU9ImZpbGw6IG5vbmU7IHN0cm9rZS1saW5lY2FwOiByb3VuZDsgc3Ryb2tlLWxpbmVqb2luOiByb3VuZDsgc3Ryb2tlOiByZ2IoMzQsIDM2LCA0Mik7IHN0cm9rZS13aWR0aDogMnB4OyBtYXJrZXItZW5kOiB1cmwoJyNzZXF1ZW5jZWZsb3ctZW5kLXdoaXRlLWhzbF8yMjVfMTBfMTVfLWRleGIxampsYWhpZm1yZWY0eDEya3V6OTAnKTsiIGRhdGEtY29ybmVyLXJhZGl1cz0iNSIvPjwvZz48cmVjdCBzdHlsZT0iZmlsbDogbm9uZTsiIGNsYXNzPSJkanMtb3V0bGluZSIgaGVpZ2h0PSI2NSIgd2lkdGg9IjEwMCIgcng9IjQiIHk9IjczMCIgeD0iMTI1MSIvPjxwYXRoIHN0eWxlPSJmaWxsOiBub25lOyBzdHJva2Utb3BhY2l0eTogMDsgc3Ryb2tlOiB3aGl0ZTsgc3Ryb2tlLXdpZHRoOiAxNXB4OyIgY2xhc3M9ImRqcy1oaXQgZGpzLWhpdC1zdHJva2UiIGQ9Ik0xMjU2LDc5MEwxMjU2LDczNUwxMzQ2LDczNSIvPjwvZz48L2c+PGcgY2xhc3M9ImRqcy1ncm91cCI+PGcgc3R5bGU9ImRpc3BsYXk6IGJsb2NrOyIgdHJhbnNmb3JtPSJ0cmFuc2xhdGUoMTI1OCA3MTgpIiBkYXRhLWVsZW1lbnQtaWQ9IkZsb3dfMG0zdzYyNF9sYWJlbCIgY2xhc3M9ImRqcy1lbGVtZW50IGRqcy1zaGFwZSI+PGcgY2xhc3M9ImRqcy12aXN1YWwiPjx0ZXh0IHN0eWxlPSJmb250LWZhbWlseTogQXJpYWwsIHNhbnMtc2VyaWY7IGZvbnQtc2l6ZTogMTFweDsgZm9udC13ZWlnaHQ6IG5vcm1hbDsgZmlsbDogcmdiKDM0LCAzNiwgNDIpOyIgY2xhc3M9ImRqcy1sYWJlbCI+PHRzcGFuIHk9IjkuODk5OTk5OTk5OTk5OTk5IiB4PSIwIj7QvdCw0LnRgiDQvdCw0LnQtNC10L0g0LrQu9C40LXQvdGCPC90c3Bhbj48L3RleHQ+PC9nPjxyZWN0IHN0eWxlPSJmaWxsOiBub25lOyBzdHJva2Utb3BhY2l0eTogMDsgc3Ryb2tlOiB3aGl0ZTsgc3Ryb2tlLXdpZHRoOiAxNXB4OyIgaGVpZ2h0PSIxNCIgd2lkdGg9Ijc1IiB5PSIwIiB4PSIwIiBjbGFzcz0iZGpzLWhpdCBkanMtaGl0LWFsbCIvPjxyZWN0IHN0eWxlPSJmaWxsOiBub25lOyIgY2xhc3M9ImRqcy1vdXRsaW5lIiBoZWlnaHQ9IjI0IiB3aWR0aD0iODUiIHJ4PSI0IiB5PSItNSIgeD0iLTUiLz48L2c+PC9nPjxnIGNsYXNzPSJkanMtZ3JvdXAiPjxnIHN0eWxlPSJkaXNwbGF5OiBibG9jazsiIGRhdGEtZWxlbWVudC1pZD0iRmxvd18wZTN5a2Z2IiBjbGFzcz0iZGpzLWVsZW1lbnQgZGpzLWNvbm5lY3Rpb24iPjxnIGNsYXNzPSJkanMtdmlzdWFsIj48cGF0aCBkPSJNMTQ0Niw3MzVMMTUzMSw3MzVDMTUzMy41LDczNSwxNTM2LDczNy41LDE1MzYsNzQwTDE1MzYsNzkwIiBzdHlsZT0iZmlsbDogbm9uZTsgc3Ryb2tlLWxpbmVjYXA6IHJvdW5kOyBzdHJva2UtbGluZWpvaW46IHJvdW5kOyBzdHJva2U6IHJnYigzNCwgMzYsIDQyKTsgc3Ryb2tlLXdpZHRoOiAycHg7IG1hcmtlci1lbmQ6IHVybCgnI3NlcXVlbmNlZmxvdy1lbmQtd2hpdGUtaHNsXzIyNV8xMF8xNV8tZGV4YjFqamxhaGlmbXJlZjR4MTJrdXo5MCcpOyIgZGF0YS1jb3JuZXItcmFkaXVzPSI1Ii8+PC9nPjxyZWN0IHN0eWxlPSJmaWxsOiBub25lOyIgY2xhc3M9ImRqcy1vdXRsaW5lIiBoZWlnaHQ9IjY1IiB3aWR0aD0iMTAwIiByeD0iNCIgeT0iNzMwIiB4PSIxNDQxIi8+PHBhdGggc3R5bGU9ImZpbGw6IG5vbmU7IHN0cm9rZS1vcGFjaXR5OiAwOyBzdHJva2U6IHdoaXRlOyBzdHJva2Utd2lkdGg6IDE1cHg7IiBjbGFzcz0iZGpzLWhpdCBkanMtaGl0LXN0cm9rZSIgZD0iTTE0NDYsNzM1TDE1MzYsNzM1TDE1MzYsNzkwIi8+PC9nPjwvZz48ZyBjbGFzcz0iZGpzLWdyb3VwIj48ZyBzdHlsZT0iZGlzcGxheTogYmxvY2s7IiBkYXRhLWVsZW1lbnQtaWQ9IkZsb3dfMG9pc3h6diIgY2xhc3M9ImRqcy1lbGVtZW50IGRqcy1jb25uZWN0aW9uIj48ZyBjbGFzcz0iZGpzLXZpc3VhbCI+PHBhdGggZD0iTTEyNTYsODQwTDEyNTYsODgwQzEyNTYsODgyLjUsMTI1OC41LDg4NSwxMjYxLDg4NUwxMzQ2LDg4NSIgc3R5bGU9ImZpbGw6IG5vbmU7IHN0cm9rZS1saW5lY2FwOiByb3VuZDsgc3Ryb2tlLWxpbmVqb2luOiByb3VuZDsgc3Ryb2tlOiByZ2IoMzQsIDM2LCA0Mik7IHN0cm9rZS13aWR0aDogMnB4OyBtYXJrZXItZW5kOiB1cmwoJyNzZXF1ZW5jZWZsb3ctZW5kLXdoaXRlLWhzbF8yMjVfMTBfMTVfLWRleGIxampsYWhpZm1yZWY0eDEya3V6OTAnKTsiIGRhdGEtY29ybmVyLXJhZGl1cz0iNSIvPjwvZz48cmVjdCBzdHlsZT0iZmlsbDogbm9uZTsiIGNsYXNzPSJkanMtb3V0bGluZSIgaGVpZ2h0PSI1NSIgd2lkdGg9IjEwMCIgcng9IjQiIHk9IjgzNSIgeD0iMTI1MSIvPjxwYXRoIHN0eWxlPSJmaWxsOiBub25lOyBzdHJva2Utb3BhY2l0eTogMDsgc3Ryb2tlOiB3aGl0ZTsgc3Ryb2tlLXdpZHRoOiAxNXB4OyIgY2xhc3M9ImRqcy1oaXQgZGpzLWhpdC1zdHJva2UiIGQ9Ik0xMjU2LDg0MEwxMjU2LDg4NUwxMzQ2LDg4NSIvPjwvZz48L2c+PGcgY2xhc3M9ImRqcy1ncm91cCI+PGcgc3R5bGU9ImRpc3BsYXk6IGJsb2NrOyIgdHJhbnNmb3JtPSJ0cmFuc2xhdGUoMTI0MSA4ODgpIiBkYXRhLWVsZW1lbnQtaWQ9IkZsb3dfMG9pc3h6dl9sYWJlbCIgY2xhc3M9ImRqcy1lbGVtZW50IGRqcy1zaGFwZSI+PGcgY2xhc3M9ImRqcy12aXN1YWwiPjx0ZXh0IHN0eWxlPSJmb250LWZhbWlseTogQXJpYWwsIHNhbnMtc2VyaWY7IGZvbnQtc2l6ZTogMTFweDsgZm9udC13ZWlnaHQ6IG5vcm1hbDsgZmlsbDogcmdiKDM0LCAzNiwgNDIpOyIgY2xhc3M9ImRqcy1sYWJlbCI+PHRzcGFuIHk9IjkuODk5OTk5OTk5OTk5OTk5IiB4PSIwIj7QutC70LjQtdC90YIg0L3QtSDQvdCw0LnQtNC10L08L3RzcGFuPjwvdGV4dD48L2c+PHJlY3Qgc3R5bGU9ImZpbGw6IG5vbmU7IHN0cm9rZS1vcGFjaXR5OiAwOyBzdHJva2U6IHdoaXRlOyBzdHJva2Utd2lkdGg6IDE1cHg7IiBoZWlnaHQ9IjE0IiB3aWR0aD0iOTAiIHk9IjAiIHg9IjAiIGNsYXNzPSJkanMtaGl0IGRqcy1oaXQtYWxsIi8+PHJlY3Qgc3R5bGU9ImZpbGw6IG5vbmU7IiBjbGFzcz0iZGpzLW91dGxpbmUiIGhlaWdodD0iMjQiIHdpZHRoPSIxMDAiIHJ4PSI0IiB5PSItNSIgeD0iLTUiLz48L2c+PC9nPjxnIGNsYXNzPSJkanMtZ3JvdXAiPjxnIHN0eWxlPSJkaXNwbGF5OiBibG9jazsiIGRhdGEtZWxlbWVudC1pZD0iRmxvd18xZHVlZXg3IiBjbGFzcz0iZGpzLWVsZW1lbnQgZGpzLWNvbm5lY3Rpb24iPjxnIGNsYXNzPSJkanMtdmlzdWFsIj48cGF0aCBkPSJNMTQ0Niw4ODVMMTUzMSw4ODVDMTUzMy41LDg4NSwxNTM2LDg4Mi41LDE1MzYsODgwTDE1MzYsODQwIiBzdHlsZT0iZmlsbDogbm9uZTsgc3Ryb2tlLWxpbmVjYXA6IHJvdW5kOyBzdHJva2UtbGluZWpvaW46IHJvdW5kOyBzdHJva2U6IHJnYigzNCwgMzYsIDQyKTsgc3Ryb2tlLXdpZHRoOiAycHg7IG1hcmtlci1lbmQ6IHVybCgnI3NlcXVlbmNlZmxvdy1lbmQtd2hpdGUtaHNsXzIyNV8xMF8xNV8tZGV4YjFqamxhaGlmbXJlZjR4MTJrdXo5MCcpOyIgZGF0YS1jb3JuZXItcmFkaXVzPSI1Ii8+PC9nPjxyZWN0IHN0eWxlPSJmaWxsOiBub25lOyIgY2xhc3M9ImRqcy1vdXRsaW5lIiBoZWlnaHQ9IjU1IiB3aWR0aD0iMTAwIiByeD0iNCIgeT0iODM1IiB4PSIxNDQxIi8+PHBhdGggc3R5bGU9ImZpbGw6IG5vbmU7IHN0cm9rZS1vcGFjaXR5OiAwOyBzdHJva2U6IHdoaXRlOyBzdHJva2Utd2lkdGg6IDE1cHg7IiBjbGFzcz0iZGpzLWhpdCBkanMtaGl0LXN0cm9rZSIgZD0iTTE0NDYsODg1TDE1MzYsODg1TDE1MzYsODQwIi8+PC9nPjwvZz48ZyBjbGFzcz0iZGpzLWdyb3VwIj48ZyBzdHlsZT0iZGlzcGxheTogYmxvY2s7IiBkYXRhLWVsZW1lbnQtaWQ9IkZsb3dfMWF1anUwMiIgY2xhc3M9ImRqcy1lbGVtZW50IGRqcy1jb25uZWN0aW9uIj48ZyBjbGFzcz0iZGpzLXZpc3VhbCI+PHBhdGggZD0iTTg4OCw5MjVMODg4LDgyMEM4ODgsODE3LjUsODkwLjUsODE1LDg5Myw4MTVMMTA2Niw4MTUiIHN0eWxlPSJmaWxsOiBub25lOyBzdHJva2UtbGluZWNhcDogcm91bmQ7IHN0cm9rZS1saW5lam9pbjogcm91bmQ7IHN0cm9rZTogcmdiKDM0LCAzNiwgNDIpOyBzdHJva2Utd2lkdGg6IDJweDsgbWFya2VyLWVuZDogdXJsKCcjc2VxdWVuY2VmbG93LWVuZC13aGl0ZS1oc2xfMjI1XzEwXzE1Xy1kZXhiMWpqbGFoaWZtcmVmNHgxMmt1ejkwJyk7IiBkYXRhLWNvcm5lci1yYWRpdXM9IjUiLz48L2c+PHJlY3Qgc3R5bGU9ImZpbGw6IG5vbmU7IiBjbGFzcz0iZGpzLW91dGxpbmUiIGhlaWdodD0iMTIwIiB3aWR0aD0iMTg4IiByeD0iNCIgeT0iODEwIiB4PSI4ODMiLz48cGF0aCBzdHlsZT0iZmlsbDogbm9uZTsgc3Ryb2tlLW9wYWNpdHk6IDA7IHN0cm9rZTogd2hpdGU7IHN0cm9rZS13aWR0aDogMTVweDsiIGNsYXNzPSJkanMtaGl0IGRqcy1oaXQtc3Ryb2tlIiBkPSJNODg4LDkyNUw4ODgsODE1TDEwNjYsODE1Ii8+PC9nPjwvZz48ZyBjbGFzcz0iZGpzLWdyb3VwIj48ZyBzdHlsZT0iZGlzcGxheTogYmxvY2s7IiB0cmFuc2Zvcm09InRyYW5zbGF0ZSg5MzkgNzkzKSIgZGF0YS1lbGVtZW50LWlkPSJGbG93XzFhdWp1MDJfbGFiZWwiIGNsYXNzPSJkanMtZWxlbWVudCBkanMtc2hhcGUiPjxnIGNsYXNzPSJkanMtdmlzdWFsIj48dGV4dCBzdHlsZT0iZm9udC1mYW1pbHk6IEFyaWFsLCBzYW5zLXNlcmlmOyBmb250LXNpemU6IDExcHg7IGZvbnQtd2VpZ2h0OiBub3JtYWw7IGZpbGw6IHJnYigzNCwgMzYsIDQyKTsiIGNsYXNzPSJkanMtbGFiZWwiPjx0c3BhbiB5PSI5Ljg5OTk5OTk5OTk5OTk5OSIgeD0iMCI+0LzQtdGC0L7QtCDRh9C40YLQsNGC0Yw8L3RzcGFuPjwvdGV4dD48L2c+PHJlY3Qgc3R5bGU9ImZpbGw6IG5vbmU7IHN0cm9rZS1vcGFjaXR5OiAwOyBzdHJva2U6IHdoaXRlOyBzdHJva2Utd2lkdGg6IDE1cHg7IiBoZWlnaHQ9IjE0IiB3aWR0aD0iNTciIHk9IjAiIHg9IjAiIGNsYXNzPSJkanMtaGl0IGRqcy1oaXQtYWxsIi8+PHJlY3Qgc3R5bGU9ImZpbGw6IG5vbmU7IiBjbGFzcz0iZGpzLW91dGxpbmUiIGhlaWdodD0iMjQiIHdpZHRoPSI2NyIgcng9IjQiIHk9Ii01IiB4PSItNSIvPjwvZz48L2c+PGcgY2xhc3M9ImRqcy1ncm91cCI+PGcgc3R5bGU9ImRpc3BsYXk6IGJsb2NrOyIgZGF0YS1lbGVtZW50LWlkPSJGbG93XzE0c2dlMWoiIGNsYXNzPSJkanMtZWxlbWVudCBkanMtY29ubmVjdGlvbiI+PGcgY2xhc3M9ImRqcy12aXN1YWwiPjxwYXRoIGQ9Ik0xMTY2LDgxNUwxMjMxLDgxNSIgc3R5bGU9ImZpbGw6IG5vbmU7IHN0cm9rZS1saW5lY2FwOiByb3VuZDsgc3Ryb2tlLWxpbmVqb2luOiByb3VuZDsgc3Ryb2tlOiByZ2IoMzQsIDM2LCA0Mik7IHN0cm9rZS13aWR0aDogMnB4OyBtYXJrZXItZW5kOiB1cmwoJyNzZXF1ZW5jZWZsb3ctZW5kLXdoaXRlLWhzbF8yMjVfMTBfMTVfLWRleGIxampsYWhpZm1yZWY0eDEya3V6OTAnKTsiIGRhdGEtY29ybmVyLXJhZGl1cz0iNSIvPjwvZz48cmVjdCBzdHlsZT0iZmlsbDogbm9uZTsiIGNsYXNzPSJkanMtb3V0bGluZSIgaGVpZ2h0PSIxMCIgd2lkdGg9Ijc1IiByeD0iNCIgeT0iODEwIiB4PSIxMTYxIi8+PHBhdGggc3R5bGU9ImZpbGw6IG5vbmU7IHN0cm9rZS1vcGFjaXR5OiAwOyBzdHJva2U6IHdoaXRlOyBzdHJva2Utd2lkdGg6IDE1cHg7IiBjbGFzcz0iZGpzLWhpdCBkanMtaGl0LXN0cm9rZSIgZD0iTTExNjYsODE1TDEyMzEsODE1Ii8+PC9nPjwvZz48ZyBjbGFzcz0iZGpzLWdyb3VwIj48ZyBzdHlsZT0iZGlzcGxheTogYmxvY2s7IiBkYXRhLWVsZW1lbnQtaWQ9IkZsb3dfMHN4ZGViZiIgY2xhc3M9ImRqcy1lbGVtZW50IGRqcy1jb25uZWN0aW9uIj48ZyBjbGFzcz0iZGpzLXZpc3VhbCI+PHBhdGggZD0iTTg4OCw5NzVMODg4LDEwODVDODg4LDEwODcuNSw4OTAuNSwxMDkwLDg5MywxMDkwTDEwNjYsMTA5MCIgc3R5bGU9ImZpbGw6IG5vbmU7IHN0cm9rZS1saW5lY2FwOiByb3VuZDsgc3Ryb2tlLWxpbmVqb2luOiByb3VuZDsgc3Ryb2tlOiByZ2IoMzQsIDM2LCA0Mik7IHN0cm9rZS13aWR0aDogMnB4OyBtYXJrZXItZW5kOiB1cmwoJyNzZXF1ZW5jZWZsb3ctZW5kLXdoaXRlLWhzbF8yMjVfMTBfMTVfLWRleGIxampsYWhpZm1yZWY0eDEya3V6OTAnKTsiIGRhdGEtY29ybmVyLXJhZGl1cz0iNSIvPjwvZz48cmVjdCBzdHlsZT0iZmlsbDogbm9uZTsiIGNsYXNzPSJkanMtb3V0bGluZSIgaGVpZ2h0PSIxMjUiIHdpZHRoPSIxODgiIHJ4PSI0IiB5PSI5NzAiIHg9Ijg4MyIvPjxwYXRoIHN0eWxlPSJmaWxsOiBub25lOyBzdHJva2Utb3BhY2l0eTogMDsgc3Ryb2tlOiB3aGl0ZTsgc3Ryb2tlLXdpZHRoOiAxNXB4OyIgY2xhc3M9ImRqcy1oaXQgZGpzLWhpdC1zdHJva2UiIGQ9Ik04ODgsOTc1TDg4OCwxMDkwTDEwNjYsMTA5MCIvPjwvZz48L2c+PGcgY2xhc3M9ImRqcy1ncm91cCI+PGcgc3R5bGU9ImRpc3BsYXk6IGJsb2NrOyIgdHJhbnNmb3JtPSJ0cmFuc2xhdGUoOTM4IDEwNzMpIiBkYXRhLWVsZW1lbnQtaWQ9IkZsb3dfMHN4ZGViZl9sYWJlbCIgY2xhc3M9ImRqcy1lbGVtZW50IGRqcy1zaGFwZSI+PGcgY2xhc3M9ImRqcy12aXN1YWwiPjx0ZXh0IHN0eWxlPSJmb250LWZhbWlseTogQXJpYWwsIHNhbnMtc2VyaWY7IGZvbnQtc2l6ZTogMTFweDsgZm9udC13ZWlnaHQ6IG5vcm1hbDsgZmlsbDogcmdiKDM0LCAzNiwgNDIpOyIgY2xhc3M9ImRqcy1sYWJlbCI+PHRzcGFuIHk9IjkuODk5OTk5OTk5OTk5OTk5IiB4PSIwIj7QvNC10YLQvtC0INC+0LHQvdC+0LLQu9C10L3QuNGPPC90c3Bhbj48L3RleHQ+PC9nPjxyZWN0IHN0eWxlPSJmaWxsOiBub25lOyBzdHJva2Utb3BhY2l0eTogMDsgc3Ryb2tlOiB3aGl0ZTsgc3Ryb2tlLXdpZHRoOiAxNXB4OyIgaGVpZ2h0PSIxNCIgd2lkdGg9IjY4IiB5PSIwIiB4PSIwIiBjbGFzcz0iZGpzLWhpdCBkanMtaGl0LWFsbCIvPjxyZWN0IHN0eWxlPSJmaWxsOiBub25lOyIgY2xhc3M9ImRqcy1vdXRsaW5lIiBoZWlnaHQ9IjI0IiB3aWR0aD0iNzgiIHJ4PSI0IiB5PSItNSIgeD0iLTUiLz48L2c+PC9nPjxnIGNsYXNzPSJkanMtZ3JvdXAiPjxnIHN0eWxlPSJkaXNwbGF5OiBibG9jazsiIGRhdGEtZWxlbWVudC1pZD0iRmxvd18wemw3aXJuIiBjbGFzcz0iZGpzLWVsZW1lbnQgZGpzLWNvbm5lY3Rpb24iPjxnIGNsYXNzPSJkanMtdmlzdWFsIj48cGF0aCBkPSJNMTE2NiwxMDkwTDEyNDMsMTA5MCIgc3R5bGU9ImZpbGw6IG5vbmU7IHN0cm9rZS1saW5lY2FwOiByb3VuZDsgc3Ryb2tlLWxpbmVqb2luOiByb3VuZDsgc3Ryb2tlOiByZ2IoMzQsIDM2LCA0Mik7IHN0cm9rZS13aWR0aDogMnB4OyBtYXJrZXItZW5kOiB1cmwoJyNzZXF1ZW5jZWZsb3ctZW5kLXdoaXRlLWhzbF8yMjVfMTBfMTVfLWRleGIxampsYWhpZm1yZWY0eDEya3V6OTAnKTsiIGRhdGEtY29ybmVyLXJhZGl1cz0iNSIvPjwvZz48cmVjdCBzdHlsZT0iZmlsbDogbm9uZTsiIGNsYXNzPSJkanMtb3V0bGluZSIgaGVpZ2h0PSIxMCIgd2lkdGg9Ijg3IiByeD0iNCIgeT0iMTA4NSIgeD0iMTE2MSIvPjxwYXRoIHN0eWxlPSJmaWxsOiBub25lOyBzdHJva2Utb3BhY2l0eTogMDsgc3Ryb2tlOiB3aGl0ZTsgc3Ryb2tlLXdpZHRoOiAxNXB4OyIgY2xhc3M9ImRqcy1oaXQgZGpzLWhpdC1zdHJva2UiIGQ9Ik0xMTY2LDEwOTBMMTI0MywxMDkwIi8+PC9nPjwvZz48ZyBjbGFzcz0iZGpzLWdyb3VwIj48ZyBzdHlsZT0iZGlzcGxheTogYmxvY2s7IiBkYXRhLWVsZW1lbnQtaWQ9IkZsb3dfMGxicGdvcCIgY2xhc3M9ImRqcy1lbGVtZW50IGRqcy1jb25uZWN0aW9uIj48ZyBjbGFzcz0iZGpzLXZpc3VhbCI+PHBhdGggZD0iTTEyNjgsMTA2NUwxMjY4LDEwMTVDMTI2OCwxMDEyLjUsMTI3MC41LDEwMTAsMTI3MywxMDEwTDE0NjgsMTAxMCIgc3R5bGU9ImZpbGw6IG5vbmU7IHN0cm9rZS1saW5lY2FwOiByb3VuZDsgc3Ryb2tlLWxpbmVqb2luOiByb3VuZDsgc3Ryb2tlOiByZ2IoMzQsIDM2LCA0Mik7IHN0cm9rZS13aWR0aDogMnB4OyBtYXJrZXItZW5kOiB1cmwoJyNzZXF1ZW5jZWZsb3ctZW5kLXdoaXRlLWhzbF8yMjVfMTBfMTVfLWRleGIxampsYWhpZm1yZWY0eDEya3V6OTAnKTsiIGRhdGEtY29ybmVyLXJhZGl1cz0iNSIvPjwvZz48cmVjdCBzdHlsZT0iZmlsbDogbm9uZTsiIGNsYXNzPSJkanMtb3V0bGluZSIgaGVpZ2h0PSI2NSIgd2lkdGg9IjIxMCIgcng9IjQiIHk9IjEwMDUiIHg9IjEyNjMiLz48cGF0aCBzdHlsZT0iZmlsbDogbm9uZTsgc3Ryb2tlLW9wYWNpdHk6IDA7IHN0cm9rZTogd2hpdGU7IHN0cm9rZS13aWR0aDogMTVweDsiIGNsYXNzPSJkanMtaGl0IGRqcy1oaXQtc3Ryb2tlIiBkPSJNMTI2OCwxMDY1TDEyNjgsMTAxMEwxNDY4LDEwMTAiLz48L2c+PC9nPjxnIGNsYXNzPSJkanMtZ3JvdXAiPjxnIHN0eWxlPSJkaXNwbGF5OiBibG9jazsiIHRyYW5zZm9ybT0idHJhbnNsYXRlKDEzMTMgOTkzKSIgZGF0YS1lbGVtZW50LWlkPSJGbG93XzBsYnBnb3BfbGFiZWwiIGNsYXNzPSJkanMtZWxlbWVudCBkanMtc2hhcGUiPjxnIGNsYXNzPSJkanMtdmlzdWFsIj48dGV4dCBzdHlsZT0iZm9udC1mYW1pbHk6IEFyaWFsLCBzYW5zLXNlcmlmOyBmb250LXNpemU6IDExcHg7IGZvbnQtd2VpZ2h0OiBub3JtYWw7IGZpbGw6IHJnYigzNCwgMzYsIDQyKTsiIGNsYXNzPSJkanMtbGFiZWwiPjx0c3BhbiB5PSI5Ljg5OTk5OTk5OTk5OTk5OSIgeD0iMCI+0LrQu9C40LXQvdGCINC90LUg0L3QsNC50LTQtdC9PC90c3Bhbj48L3RleHQ+PC9nPjxyZWN0IHN0eWxlPSJmaWxsOiBub25lOyBzdHJva2Utb3BhY2l0eTogMDsgc3Ryb2tlOiB3aGl0ZTsgc3Ryb2tlLXdpZHRoOiAxNXB4OyIgaGVpZ2h0PSIxNCIgd2lkdGg9IjkwIiB5PSIwIiB4PSIwIiBjbGFzcz0iZGpzLWhpdCBkanMtaGl0LWFsbCIvPjxyZWN0IHN0eWxlPSJmaWxsOiBub25lOyIgY2xhc3M9ImRqcy1vdXRsaW5lIiBoZWlnaHQ9IjI0IiB3aWR0aD0iMTAwIiByeD0iNCIgeT0iLTUiIHg9Ii01Ii8+PC9nPjwvZz48ZyBjbGFzcz0iZGpzLWdyb3VwIj48ZyBzdHlsZT0iZGlzcGxheTogYmxvY2s7IiBkYXRhLWVsZW1lbnQtaWQ9IkZsb3dfMGplZXd6bCIgY2xhc3M9ImRqcy1lbGVtZW50IGRqcy1jb25uZWN0aW9uIj48ZyBjbGFzcz0iZGpzLXZpc3VhbCI+PHBhdGggZD0iTTEyNjgsMTExNUwxMjY4LDExOTVDMTI2OCwxMTk3LjUsMTI3MC41LDEyMDAsMTI3MywxMjAwTDEzNzgsMTIwMCIgc3R5bGU9ImZpbGw6IG5vbmU7IHN0cm9rZS1saW5lY2FwOiByb3VuZDsgc3Ryb2tlLWxpbmVqb2luOiByb3VuZDsgc3Ryb2tlOiByZ2IoMzQsIDM2LCA0Mik7IHN0cm9rZS13aWR0aDogMnB4OyBtYXJrZXItZW5kOiB1cmwoJyNzZXF1ZW5jZWZsb3ctZW5kLXdoaXRlLWhzbF8yMjVfMTBfMTVfLWRleGIxampsYWhpZm1yZWY0eDEya3V6OTAnKTsiIGRhdGEtY29ybmVyLXJhZGl1cz0iNSIvPjwvZz48cmVjdCBzdHlsZT0iZmlsbDogbm9uZTsiIGNsYXNzPSJkanMtb3V0bGluZSIgaGVpZ2h0PSI5NSIgd2lkdGg9IjEyMCIgcng9IjQiIHk9IjExMTAiIHg9IjEyNjMiLz48cGF0aCBzdHlsZT0iZmlsbDogbm9uZTsgc3Ryb2tlLW9wYWNpdHk6IDA7IHN0cm9rZTogd2hpdGU7IHN0cm9rZS13aWR0aDogMTVweDsiIGNsYXNzPSJkanMtaGl0IGRqcy1oaXQtc3Ryb2tlIiBkPSJNMTI2OCwxMTE1TDEyNjgsMTIwMEwxMzc4LDEyMDAiLz48L2c+PC9nPjxnIGNsYXNzPSJkanMtZ3JvdXAiPjxnIHN0eWxlPSJkaXNwbGF5OiBibG9jazsiIHRyYW5zZm9ybT0idHJhbnNsYXRlKDEyNzkgMTIwMykiIGRhdGEtZWxlbWVudC1pZD0iRmxvd18wamVld3psX2xhYmVsIiBjbGFzcz0iZGpzLWVsZW1lbnQgZGpzLXNoYXBlIj48ZyBjbGFzcz0iZGpzLXZpc3VhbCI+PHRleHQgc3R5bGU9ImZvbnQtZmFtaWx5OiBBcmlhbCwgc2Fucy1zZXJpZjsgZm9udC1zaXplOiAxMXB4OyBmb250LXdlaWdodDogbm9ybWFsOyBmaWxsOiByZ2IoMzQsIDM2LCA0Mik7IiBjbGFzcz0iZGpzLWxhYmVsIj48dHNwYW4geT0iOS44OTk5OTk5OTk5OTk5OTkiIHg9IjAiPtC90LDQudGCINC90LDQudC00LXQvSDQutC70LjQtdC90YI8L3RzcGFuPjwvdGV4dD48L2c+PHJlY3Qgc3R5bGU9ImZpbGw6IG5vbmU7IHN0cm9rZS1vcGFjaXR5OiAwOyBzdHJva2U6IHdoaXRlOyBzdHJva2Utd2lkdGg6IDE1cHg7IiBoZWlnaHQ9IjE0IiB3aWR0aD0iNzgiIHk9IjAiIHg9IjAiIGNsYXNzPSJkanMtaGl0IGRqcy1oaXQtYWxsIi8+PHJlY3Qgc3R5bGU9ImZpbGw6IG5vbmU7IiBjbGFzcz0iZGpzLW91dGxpbmUiIGhlaWdodD0iMjQiIHdpZHRoPSI4OCIgcng9IjQiIHk9Ii01IiB4PSItNSIvPjwvZz48L2c+PGcgY2xhc3M9ImRqcy1ncm91cCI+PGcgc3R5bGU9ImRpc3BsYXk6IGJsb2NrOyIgZGF0YS1lbGVtZW50LWlkPSJGbG93XzFsejRsbGwiIGNsYXNzPSJkanMtZWxlbWVudCBkanMtY29ubmVjdGlvbiI+PGcgY2xhc3M9ImRqcy12aXN1YWwiPjxwYXRoIGQ9Ik0xNTY4LDEwMTBMMTc4MywxMDEwQzE3ODUuNSwxMDEwLDE3ODgsMTAxMi41LDE3ODgsMTAxNUwxNzg4LDEwNjUiIHN0eWxlPSJmaWxsOiBub25lOyBzdHJva2UtbGluZWNhcDogcm91bmQ7IHN0cm9rZS1saW5lam9pbjogcm91bmQ7IHN0cm9rZTogcmdiKDM0LCAzNiwgNDIpOyBzdHJva2Utd2lkdGg6IDJweDsgbWFya2VyLWVuZDogdXJsKCcjc2VxdWVuY2VmbG93LWVuZC13aGl0ZS1oc2xfMjI1XzEwXzE1Xy1kZXhiMWpqbGFoaWZtcmVmNHgxMmt1ejkwJyk7IiBkYXRhLWNvcm5lci1yYWRpdXM9IjUiLz48L2c+PHJlY3Qgc3R5bGU9ImZpbGw6IG5vbmU7IiBjbGFzcz0iZGpzLW91dGxpbmUiIGhlaWdodD0iNjUiIHdpZHRoPSIyMzAiIHJ4PSI0IiB5PSIxMDA1IiB4PSIxNTYzIi8+PHBhdGggc3R5bGU9ImZpbGw6IG5vbmU7IHN0cm9rZS1vcGFjaXR5OiAwOyBzdHJva2U6IHdoaXRlOyBzdHJva2Utd2lkdGg6IDE1cHg7IiBjbGFzcz0iZGpzLWhpdCBkanMtaGl0LXN0cm9rZSIgZD0iTTE1NjgsMTAxMEwxNzg4LDEwMTBMMTc4OCwxMDY1Ii8+PC9nPjwvZz48ZyBjbGFzcz0iZGpzLWdyb3VwIj48ZyBzdHlsZT0iZGlzcGxheTogYmxvY2s7IiBkYXRhLWVsZW1lbnQtaWQ9IkZsb3dfMGhud3liZiIgY2xhc3M9ImRqcy1lbGVtZW50IGRqcy1jb25uZWN0aW9uIj48ZyBjbGFzcz0iZGpzLXZpc3VhbCI+PHBhdGggZD0iTTE2NjgsMTIwMEwxNzgzLDEyMDBDMTc4NS41LDEyMDAsMTc4OCwxMTk3LjUsMTc4OCwxMTk1TDE3ODgsMTExNSIgc3R5bGU9ImZpbGw6IG5vbmU7IHN0cm9rZS1saW5lY2FwOiByb3VuZDsgc3Ryb2tlLWxpbmVqb2luOiByb3VuZDsgc3Ryb2tlOiByZ2IoMzQsIDM2LCA0Mik7IHN0cm9rZS13aWR0aDogMnB4OyBtYXJrZXItZW5kOiB1cmwoJyNzZXF1ZW5jZWZsb3ctZW5kLXdoaXRlLWhzbF8yMjVfMTBfMTVfLWRleGIxampsYWhpZm1yZWY0eDEya3V6OTAnKTsiIGRhdGEtY29ybmVyLXJhZGl1cz0iNSIvPjwvZz48cmVjdCBzdHlsZT0iZmlsbDogbm9uZTsiIGNsYXNzPSJkanMtb3V0bGluZSIgaGVpZ2h0PSI5NSIgd2lkdGg9IjEzMCIgcng9IjQiIHk9IjExMTAiIHg9IjE2NjMiLz48cGF0aCBzdHlsZT0iZmlsbDogbm9uZTsgc3Ryb2tlLW9wYWNpdHk6IDA7IHN0cm9rZTogd2hpdGU7IHN0cm9rZS13aWR0aDogMTVweDsiIGNsYXNzPSJkanMtaGl0IGRqcy1oaXQtc3Ryb2tlIiBkPSJNMTY2OCwxMjAwTDE3ODgsMTIwMEwxNzg4LDExMTUiLz48L2c+PC9nPjxnIGNsYXNzPSJkanMtZ3JvdXAiPjxnIHN0eWxlPSJkaXNwbGF5OiBibG9jazsiIGRhdGEtZWxlbWVudC1pZD0iRmxvd18xb2V0dDI0IiBjbGFzcz0iZGpzLWVsZW1lbnQgZGpzLWNvbm5lY3Rpb24iPjxnIGNsYXNzPSJkanMtdmlzdWFsIj48cGF0aCBkPSJNMTQ3OCwxMjAwTDE1NjgsMTIwMCIgc3R5bGU9ImZpbGw6IG5vbmU7IHN0cm9rZS1saW5lY2FwOiByb3VuZDsgc3Ryb2tlLWxpbmVqb2luOiByb3VuZDsgc3Ryb2tlOiByZ2IoMzQsIDM2LCA0Mik7IHN0cm9rZS13aWR0aDogMnB4OyBtYXJrZXItZW5kOiB1cmwoJyNzZXF1ZW5jZWZsb3ctZW5kLXdoaXRlLWhzbF8yMjVfMTBfMTVfLWRleGIxampsYWhpZm1yZWY0eDEya3V6OTAnKTsiIGRhdGEtY29ybmVyLXJhZGl1cz0iNSIvPjwvZz48cmVjdCBzdHlsZT0iZmlsbDogbm9uZTsiIGNsYXNzPSJkanMtb3V0bGluZSIgaGVpZ2h0PSIxMCIgd2lkdGg9IjEwMCIgcng9IjQiIHk9IjExOTUiIHg9IjE0NzMiLz48cGF0aCBzdHlsZT0iZmlsbDogbm9uZTsgc3Ryb2tlLW9wYWNpdHk6IDA7IHN0cm9rZTogd2hpdGU7IHN0cm9rZS13aWR0aDogMTVweDsiIGNsYXNzPSJkanMtaGl0IGRqcy1oaXQtc3Ryb2tlIiBkPSJNMTQ3OCwxMjAwTDE1NjgsMTIwMCIvPjwvZz48L2c+PGcgY2xhc3M9ImRqcy1ncm91cCI+PGcgc3R5bGU9ImRpc3BsYXk6IGJsb2NrOyIgZGF0YS1lbGVtZW50LWlkPSJGbG93XzFoc21lM2giIGNsYXNzPSJkanMtZWxlbWVudCBkanMtY29ubmVjdGlvbiI+PGcgY2xhc3M9ImRqcy12aXN1YWwiPjxwYXRoIGQ9Ik03NTYsODU1TDc1Niw5NDVDNzU2LDk0Ny41LDc1OC41LDk1MCw3NjEsOTUwTDg2Myw5NTAiIHN0eWxlPSJmaWxsOiBub25lOyBzdHJva2UtbGluZWNhcDogcm91bmQ7IHN0cm9rZS1saW5lam9pbjogcm91bmQ7IHN0cm9rZTogcmdiKDM0LCAzNiwgNDIpOyBzdHJva2Utd2lkdGg6IDJweDsgbWFya2VyLWVuZDogdXJsKCcjc2VxdWVuY2VmbG93LWVuZC13aGl0ZS1oc2xfMjI1XzEwXzE1Xy1kZXhiMWpqbGFoaWZtcmVmNHgxMmt1ejkwJyk7IiBkYXRhLWNvcm5lci1yYWRpdXM9IjUiLz48L2c+PHJlY3Qgc3R5bGU9ImZpbGw6IG5vbmU7IiBjbGFzcz0iZGpzLW91dGxpbmUiIGhlaWdodD0iMTA1IiB3aWR0aD0iMTE3IiByeD0iNCIgeT0iODUwIiB4PSI3NTEiLz48cGF0aCBzdHlsZT0iZmlsbDogbm9uZTsgc3Ryb2tlLW9wYWNpdHk6IDA7IHN0cm9rZTogd2hpdGU7IHN0cm9rZS13aWR0aDogMTVweDsiIGNsYXNzPSJkanMtaGl0IGRqcy1oaXQtc3Ryb2tlIiBkPSJNNzU2LDg1NUw3NTYsOTUwTDg2Myw5NTAiLz48L2c+PC9nPjxnIGNsYXNzPSJkanMtZ3JvdXAiPjxnIHN0eWxlPSJkaXNwbGF5OiBibG9jazsiIGRhdGEtZWxlbWVudC1pZD0iRmxvd18wdDNxcWQ2IiBjbGFzcz0iZGpzLWVsZW1lbnQgZGpzLWNvbm5lY3Rpb24iPjxnIGNsYXNzPSJkanMtdmlzdWFsIj48cGF0aCBkPSJNMjczMCwzMzVMMjc5NSwzMzUiIHN0eWxlPSJmaWxsOiBub25lOyBzdHJva2UtbGluZWNhcDogcm91bmQ7IHN0cm9rZS1saW5lam9pbjogcm91bmQ7IHN0cm9rZTogcmdiKDM0LCAzNiwgNDIpOyBzdHJva2Utd2lkdGg6IDJweDsgbWFya2VyLWVuZDogdXJsKCcjc2VxdWVuY2VmbG93LWVuZC13aGl0ZS1oc2xfMjI1XzEwXzE1Xy1kZXhiMWpqbGFoaWZtcmVmNHgxMmt1ejkwJyk7IiBkYXRhLWNvcm5lci1yYWRpdXM9IjUiLz48L2c+PHJlY3Qgc3R5bGU9ImZpbGw6IG5vbmU7IiBjbGFzcz0iZGpzLW91dGxpbmUiIGhlaWdodD0iMTAiIHdpZHRoPSI3NSIgcng9IjQiIHk9IjMzMCIgeD0iMjcyNSIvPjxwYXRoIHN0eWxlPSJmaWxsOiBub25lOyBzdHJva2Utb3BhY2l0eTogMDsgc3Ryb2tlOiB3aGl0ZTsgc3Ryb2tlLXdpZHRoOiAxNXB4OyIgY2xhc3M9ImRqcy1oaXQgZGpzLWhpdC1zdHJva2UiIGQ9Ik0yNzMwLDMzNUwyNzk1LDMzNSIvPjwvZz48L2c+PGcgY2xhc3M9ImRqcy1ncm91cCI+PGcgc3R5bGU9ImRpc3BsYXk6IGJsb2NrOyIgZGF0YS1lbGVtZW50LWlkPSJGbG93XzF0b2l0eWsiIGNsYXNzPSJkanMtZWxlbWVudCBkanMtY29ubmVjdGlvbiI+PGcgY2xhc3M9ImRqcy12aXN1YWwiPjxwYXRoIGQ9Ik0yODIwLDM2MEwyODIwLDQ0NUMyODIwLDQ0Ny41LDI4MjIuNSw0NTAsMjgyNSw0NTBMMjk0MCw0NTAiIHN0eWxlPSJmaWxsOiBub25lOyBzdHJva2UtbGluZWNhcDogcm91bmQ7IHN0cm9rZS1saW5lam9pbjogcm91bmQ7IHN0cm9rZTogcmdiKDM0LCAzNiwgNDIpOyBzdHJva2Utd2lkdGg6IDJweDsgbWFya2VyLWVuZDogdXJsKCcjc2VxdWVuY2VmbG93LWVuZC13aGl0ZS1oc2xfMjI1XzEwXzE1Xy1kZXhiMWpqbGFoaWZtcmVmNHgxMmt1ejkwJyk7IiBkYXRhLWNvcm5lci1yYWRpdXM9IjUiLz48L2c+PHJlY3Qgc3R5bGU9ImZpbGw6IG5vbmU7IiBjbGFzcz0iZGpzLW91dGxpbmUiIGhlaWdodD0iMTAwIiB3aWR0aD0iMTMwIiByeD0iNCIgeT0iMzU1IiB4PSIyODE1Ii8+PHBhdGggc3R5bGU9ImZpbGw6IG5vbmU7IHN0cm9rZS1vcGFjaXR5OiAwOyBzdHJva2U6IHdoaXRlOyBzdHJva2Utd2lkdGg6IDE1cHg7IiBjbGFzcz0iZGpzLWhpdCBkanMtaGl0LXN0cm9rZSIgZD0iTTI4MjAsMzYwTDI4MjAsNDUwTDI5NDAsNDUwIi8+PC9nPjwvZz48ZyBjbGFzcz0iZGpzLWdyb3VwIj48ZyBzdHlsZT0iZGlzcGxheTogYmxvY2s7IiB0cmFuc2Zvcm09InRyYW5zbGF0ZSgyODQ1IDQ1MykiIGRhdGEtZWxlbWVudC1pZD0iRmxvd18xdG9pdHlrX2xhYmVsIiBjbGFzcz0iZGpzLWVsZW1lbnQgZGpzLXNoYXBlIj48ZyBjbGFzcz0iZGpzLXZpc3VhbCI+PHRleHQgc3R5bGU9ImZvbnQtZmFtaWx5OiBBcmlhbCwgc2Fucy1zZXJpZjsgZm9udC1zaXplOiAxMXB4OyBmb250LXdlaWdodDogbm9ybWFsOyBmaWxsOiByZ2IoMzQsIDM2LCA0Mik7IiBjbGFzcz0iZGpzLWxhYmVsIj48dHNwYW4geT0iOS44OTk5OTk5OTk5OTk5OTkiIHg9IjAiPtC+0YjQuNCx0LrQsDwvdHNwYW4+PC90ZXh0PjwvZz48cmVjdCBzdHlsZT0iZmlsbDogbm9uZTsgc3Ryb2tlLW9wYWNpdHk6IDA7IHN0cm9rZTogd2hpdGU7IHN0cm9rZS13aWR0aDogMTVweDsiIGhlaWdodD0iMTQiIHdpZHRoPSIzOSIgeT0iMCIgeD0iMCIgY2xhc3M9ImRqcy1oaXQgZGpzLWhpdC1hbGwiLz48cmVjdCBzdHlsZT0iZmlsbDogbm9uZTsiIGNsYXNzPSJkanMtb3V0bGluZSIgaGVpZ2h0PSIyNCIgd2lkdGg9IjQ5IiByeD0iNCIgeT0iLTUiIHg9Ii01Ii8+PC9nPjwvZz48ZyBjbGFzcz0iZGpzLWdyb3VwIj48ZyBzdHlsZT0iZGlzcGxheTogYmxvY2s7IiBkYXRhLWVsZW1lbnQtaWQ9IkZsb3dfMXFyajRwMSIgY2xhc3M9ImRqcy1lbGVtZW50IGRqcy1jb25uZWN0aW9uIj48ZyBjbGFzcz0iZGpzLXZpc3VhbCI+PHBhdGggZD0iTTI1MzAsODIyTDI1MzAsMzQwQzI1MzAsMzM3LjUsMjUzMi41LDMzNSwyNTM1LDMzNUwyNjMwLDMzNSIgc3R5bGU9ImZpbGw6IG5vbmU7IHN0cm9rZS1saW5lY2FwOiByb3VuZDsgc3Ryb2tlLWxpbmVqb2luOiByb3VuZDsgc3Ryb2tlOiByZ2IoMzQsIDM2LCA0Mik7IHN0cm9rZS13aWR0aDogMnB4OyBtYXJrZXItZW5kOiB1cmwoJyNzZXF1ZW5jZWZsb3ctZW5kLXdoaXRlLWhzbF8yMjVfMTBfMTVfLWRleGIxampsYWhpZm1yZWY0eDEya3V6OTAnKTsiIGRhdGEtY29ybmVyLXJhZGl1cz0iNSIvPjwvZz48cmVjdCBzdHlsZT0iZmlsbDogbm9uZTsiIGNsYXNzPSJkanMtb3V0bGluZSIgaGVpZ2h0PSI0OTciIHdpZHRoPSIxMTAiIHJ4PSI0IiB5PSIzMzAiIHg9IjI1MjUiLz48cGF0aCBzdHlsZT0iZmlsbDogbm9uZTsgc3Ryb2tlLW9wYWNpdHk6IDA7IHN0cm9rZTogd2hpdGU7IHN0cm9rZS13aWR0aDogMTVweDsiIGNsYXNzPSJkanMtaGl0IGRqcy1oaXQtc3Ryb2tlIiBkPSJNMjUzMCw4MjJMMjUzMCwzMzVMMjYzMCwzMzUiLz48L2c+PC9nPjxnIGNsYXNzPSJkanMtZ3JvdXAiPjxnIHN0eWxlPSJkaXNwbGF5OiBibG9jazsiIGRhdGEtZWxlbWVudC1pZD0iRmxvd18xZGh6eDh1IiBjbGFzcz0iZGpzLWVsZW1lbnQgZGpzLWNvbm5lY3Rpb24iPjxnIGNsYXNzPSJkanMtdmlzdWFsIj48cGF0aCBkPSJNMzA0MCw0NTBMMzE0Miw0NTAiIHN0eWxlPSJmaWxsOiBub25lOyBzdHJva2UtbGluZWNhcDogcm91bmQ7IHN0cm9rZS1saW5lam9pbjogcm91bmQ7IHN0cm9rZTogcmdiKDM0LCAzNiwgNDIpOyBzdHJva2Utd2lkdGg6IDJweDsgbWFya2VyLWVuZDogdXJsKCcjc2VxdWVuY2VmbG93LWVuZC13aGl0ZS1oc2xfMjI1XzEwXzE1Xy1kZXhiMWpqbGFoaWZtcmVmNHgxMmt1ejkwJyk7IiBkYXRhLWNvcm5lci1yYWRpdXM9IjUiLz48L2c+PHJlY3Qgc3R5bGU9ImZpbGw6IG5vbmU7IiBjbGFzcz0iZGpzLW91dGxpbmUiIGhlaWdodD0iMTAiIHdpZHRoPSIxMTIiIHJ4PSI0IiB5PSI0NDUiIHg9IjMwMzUiLz48cGF0aCBzdHlsZT0iZmlsbDogbm9uZTsgc3Ryb2tlLW9wYWNpdHk6IDA7IHN0cm9rZTogd2hpdGU7IHN0cm9rZS13aWR0aDogMTVweDsiIGNsYXNzPSJkanMtaGl0IGRqcy1oaXQtc3Ryb2tlIiBkPSJNMzA0MCw0NTBMMzE0Miw0NTAiLz48L2c+PC9nPjxnIGNsYXNzPSJkanMtZ3JvdXAiPjxnIHN0eWxlPSJkaXNwbGF5OiBibG9jazsiIGRhdGEtZWxlbWVudC1pZD0iRmxvd18xNjFzdzVjIiBjbGFzcz0iZGpzLWVsZW1lbnQgZGpzLWNvbm5lY3Rpb24iPjxnIGNsYXNzPSJkanMtdmlzdWFsIj48cGF0aCBkPSJNMTYwMCw2OTJMMTYwMCw0MDBDMTYwMCwzOTcuNSwxNjAyLjUsMzk1LDE2MDUsMzk1TDE2NDAsMzk1IiBzdHlsZT0iZmlsbDogbm9uZTsgc3Ryb2tlLWxpbmVjYXA6IHJvdW5kOyBzdHJva2UtbGluZWpvaW46IHJvdW5kOyBzdHJva2U6IHJnYigzNCwgMzYsIDQyKTsgc3Ryb2tlLXdpZHRoOiAycHg7IG1hcmtlci1lbmQ6IHVybCgnI3NlcXVlbmNlZmxvdy1lbmQtd2hpdGUtaHNsXzIyNV8xMF8xNV8tZGV4YjFqamxhaGlmbXJlZjR4MTJrdXo5MCcpOyIgZGF0YS1jb3JuZXItcmFkaXVzPSI1Ii8+PC9nPjxyZWN0IHN0eWxlPSJmaWxsOiBub25lOyIgY2xhc3M9ImRqcy1vdXRsaW5lIiBoZWlnaHQ9IjMwNyIgd2lkdGg9IjUwIiByeD0iNCIgeT0iMzkwIiB4PSIxNTk1Ii8+PHBhdGggc3R5bGU9ImZpbGw6IG5vbmU7IHN0cm9rZS1vcGFjaXR5OiAwOyBzdHJva2U6IHdoaXRlOyBzdHJva2Utd2lkdGg6IDE1cHg7IiBjbGFzcz0iZGpzLWhpdCBkanMtaGl0LXN0cm9rZSIgZD0iTTE2MDAsNjkyTDE2MDAsMzk1TDE2NDAsMzk1Ii8+PC9nPjwvZz48ZyBjbGFzcz0iZGpzLWdyb3VwIj48ZyBzdHlsZT0iZGlzcGxheTogYmxvY2s7IiBkYXRhLWVsZW1lbnQtaWQ9IkZsb3dfMDZ4eGh4aCIgY2xhc3M9ImRqcy1lbGVtZW50IGRqcy1jb25uZWN0aW9uIj48ZyBjbGFzcz0iZGpzLXZpc3VhbCI+PHBhdGggZD0iTTE3NDAsMzk1TDE3NjUsMzk1IiBzdHlsZT0iZmlsbDogbm9uZTsgc3Ryb2tlLWxpbmVjYXA6IHJvdW5kOyBzdHJva2UtbGluZWpvaW46IHJvdW5kOyBzdHJva2U6IHJnYigzNCwgMzYsIDQyKTsgc3Ryb2tlLXdpZHRoOiAycHg7IG1hcmtlci1lbmQ6IHVybCgnI3NlcXVlbmNlZmxvdy1lbmQtd2hpdGUtaHNsXzIyNV8xMF8xNV8tZGV4YjFqamxhaGlmbXJlZjR4MTJrdXo5MCcpOyIgZGF0YS1jb3JuZXItcmFkaXVzPSI1Ii8+PC9nPjxyZWN0IHN0eWxlPSJmaWxsOiBub25lOyIgY2xhc3M9ImRqcy1vdXRsaW5lIiBoZWlnaHQ9IjEwIiB3aWR0aD0iMzUiIHJ4PSI0IiB5PSIzOTAiIHg9IjE3MzUiLz48cGF0aCBzdHlsZT0iZmlsbDogbm9uZTsgc3Ryb2tlLW9wYWNpdHk6IDA7IHN0cm9rZTogd2hpdGU7IHN0cm9rZS13aWR0aDogMTVweDsiIGNsYXNzPSJkanMtaGl0IGRqcy1oaXQtc3Ryb2tlIiBkPSJNMTc0MCwzOTVMMTc2NSwzOTUiLz48L2c+PC9nPjxnIGNsYXNzPSJkanMtZ3JvdXAiPjxnIHN0eWxlPSJkaXNwbGF5OiBibG9jazsiIGRhdGEtZWxlbWVudC1pZD0iRmxvd18xdGhxcDN3IiBjbGFzcz0iZGpzLWVsZW1lbnQgZGpzLWNvbm5lY3Rpb24iPjxnIGNsYXNzPSJkanMtdmlzdWFsIj48cGF0aCBkPSJNMTc5MCw0MjBMMTc5MCw0NjBDMTc5MCw0NjIuNSwxNzkyLjUsNDY1LDE3OTUsNDY1TDE5MjAsNDY1IiBzdHlsZT0iZmlsbDogbm9uZTsgc3Ryb2tlLWxpbmVjYXA6IHJvdW5kOyBzdHJva2UtbGluZWpvaW46IHJvdW5kOyBzdHJva2U6IHJnYigzNCwgMzYsIDQyKTsgc3Ryb2tlLXdpZHRoOiAycHg7IG1hcmtlci1lbmQ6IHVybCgnI3NlcXVlbmNlZmxvdy1lbmQtd2hpdGUtaHNsXzIyNV8xMF8xNV8tZGV4YjFqamxhaGlmbXJlZjR4MTJrdXo5MCcpOyIgZGF0YS1jb3JuZXItcmFkaXVzPSI1Ii8+PC9nPjxyZWN0IHN0eWxlPSJmaWxsOiBub25lOyIgY2xhc3M9ImRqcy1vdXRsaW5lIiBoZWlnaHQ9IjU1IiB3aWR0aD0iMTQwIiByeD0iNCIgeT0iNDE1IiB4PSIxNzg1Ii8+PHBhdGggc3R5bGU9ImZpbGw6IG5vbmU7IHN0cm9rZS1vcGFjaXR5OiAwOyBzdHJva2U6IHdoaXRlOyBzdHJva2Utd2lkdGg6IDE1cHg7IiBjbGFzcz0iZGpzLWhpdCBkanMtaGl0LXN0cm9rZSIgZD0iTTE3OTAsNDIwTDE3OTAsNDY1TDE5MjAsNDY1Ii8+PC9nPjwvZz48ZyBjbGFzcz0iZGpzLWdyb3VwIj48ZyBzdHlsZT0iZGlzcGxheTogYmxvY2s7IiB0cmFuc2Zvcm09InRyYW5zbGF0ZSgxODEzIDQ2OCkiIGRhdGEtZWxlbWVudC1pZD0iRmxvd18xdGhxcDN3X2xhYmVsIiBjbGFzcz0iZGpzLWVsZW1lbnQgZGpzLXNoYXBlIj48ZyBjbGFzcz0iZGpzLXZpc3VhbCI+PHRleHQgc3R5bGU9ImZvbnQtZmFtaWx5OiBBcmlhbCwgc2Fucy1zZXJpZjsgZm9udC1zaXplOiAxMXB4OyBmb250LXdlaWdodDogbm9ybWFsOyBmaWxsOiByZ2IoMzQsIDM2LCA0Mik7IiBjbGFzcz0iZGpzLWxhYmVsIj48dHNwYW4geT0iOS44OTk5OTk5OTk5OTk5OTkiIHg9IjAiPtC90LDQudGCINC90LDQudC00LXQvSDQutC70LjQtdC90YI8L3RzcGFuPjwvdGV4dD48L2c+PHJlY3Qgc3R5bGU9ImZpbGw6IG5vbmU7IHN0cm9rZS1vcGFjaXR5OiAwOyBzdHJva2U6IHdoaXRlOyBzdHJva2Utd2lkdGg6IDE1cHg7IiBoZWlnaHQ9IjE0IiB3aWR0aD0iNzUiIHk9IjAiIHg9IjAiIGNsYXNzPSJkanMtaGl0IGRqcy1oaXQtYWxsIi8+PHJlY3Qgc3R5bGU9ImZpbGw6IG5vbmU7IiBjbGFzcz0iZGpzLW91dGxpbmUiIGhlaWdodD0iMjQiIHdpZHRoPSI4NSIgcng9IjQiIHk9Ii01IiB4PSItNSIvPjwvZz48L2c+PGcgY2xhc3M9ImRqcy1ncm91cCI+PGcgc3R5bGU9ImRpc3BsYXk6IGJsb2NrOyIgZGF0YS1lbGVtZW50LWlkPSJGbG93XzFhNzFhczciIGNsYXNzPSJkanMtZWxlbWVudCBkanMtY29ubmVjdGlvbiI+PGcgY2xhc3M9ImRqcy12aXN1YWwiPjxwYXRoIGQ9Ik0xNzkwLDM3MEwxNzkwLDMzMEMxNzkwLDMyNy41LDE3OTIuNSwzMjUsMTc5NSwzMjVMMTkyMCwzMjUiIHN0eWxlPSJmaWxsOiBub25lOyBzdHJva2UtbGluZWNhcDogcm91bmQ7IHN0cm9rZS1saW5lam9pbjogcm91bmQ7IHN0cm9rZTogcmdiKDM0LCAzNiwgNDIpOyBzdHJva2Utd2lkdGg6IDJweDsgbWFya2VyLWVuZDogdXJsKCcjc2VxdWVuY2VmbG93LWVuZC13aGl0ZS1oc2xfMjI1XzEwXzE1Xy1kZXhiMWpqbGFoaWZtcmVmNHgxMmt1ejkwJyk7IiBkYXRhLWNvcm5lci1yYWRpdXM9IjUiLz48L2c+PHJlY3Qgc3R5bGU9ImZpbGw6IG5vbmU7IiBjbGFzcz0iZGpzLW91dGxpbmUiIGhlaWdodD0iNTUiIHdpZHRoPSIxNDAiIHJ4PSI0IiB5PSIzMjAiIHg9IjE3ODUiLz48cGF0aCBzdHlsZT0iZmlsbDogbm9uZTsgc3Ryb2tlLW9wYWNpdHk6IDA7IHN0cm9rZTogd2hpdGU7IHN0cm9rZS13aWR0aDogMTVweDsiIGNsYXNzPSJkanMtaGl0IGRqcy1oaXQtc3Ryb2tlIiBkPSJNMTc5MCwzNzBMMTc5MCwzMjVMMTkyMCwzMjUiLz48L2c+PC9nPjxnIGNsYXNzPSJkanMtZ3JvdXAiPjxnIHN0eWxlPSJkaXNwbGF5OiBibG9jazsiIHRyYW5zZm9ybT0idHJhbnNsYXRlKDE4MDUgMzA4KSIgZGF0YS1lbGVtZW50LWlkPSJGbG93XzFhNzFhczdfbGFiZWwiIGNsYXNzPSJkanMtZWxlbWVudCBkanMtc2hhcGUiPjxnIGNsYXNzPSJkanMtdmlzdWFsIj48dGV4dCBzdHlsZT0iZm9udC1mYW1pbHk6IEFyaWFsLCBzYW5zLXNlcmlmOyBmb250LXNpemU6IDExcHg7IGZvbnQtd2VpZ2h0OiBub3JtYWw7IGZpbGw6IHJnYigzNCwgMzYsIDQyKTsiIGNsYXNzPSJkanMtbGFiZWwiPjx0c3BhbiB5PSI5Ljg5OTk5OTk5OTk5OTk5OSIgeD0iMCI+0LrQu9C40LXQvdGCINC90LUg0L3QsNC50LTQtdC9PC90c3Bhbj48L3RleHQ+PC9nPjxyZWN0IHN0eWxlPSJmaWxsOiBub25lOyBzdHJva2Utb3BhY2l0eTogMDsgc3Ryb2tlOiB3aGl0ZTsgc3Ryb2tlLXdpZHRoOiAxNXB4OyIgaGVpZ2h0PSIxNCIgd2lkdGg9IjkwIiB5PSIwIiB4PSIwIiBjbGFzcz0iZGpzLWhpdCBkanMtaGl0LWFsbCIvPjxyZWN0IHN0eWxlPSJmaWxsOiBub25lOyIgY2xhc3M9ImRqcy1vdXRsaW5lIiBoZWlnaHQ9IjI0IiB3aWR0aD0iMTAwIiByeD0iNCIgeT0iLTUiIHg9Ii01Ii8+PC9nPjwvZz48ZyBjbGFzcz0iZGpzLWdyb3VwIj48ZyBzdHlsZT0iZGlzcGxheTogYmxvY2s7IiBkYXRhLWVsZW1lbnQtaWQ9IkZsb3dfMW55cXJobiIgY2xhc3M9ImRqcy1lbGVtZW50IGRqcy1jb25uZWN0aW9uIj48ZyBjbGFzcz0iZGpzLXZpc3VhbCI+PHBhdGggZD0iTTIwMjAsNDY1TDIxMzAsNDY1IiBzdHlsZT0iZmlsbDogbm9uZTsgc3Ryb2tlLWxpbmVjYXA6IHJvdW5kOyBzdHJva2UtbGluZWpvaW46IHJvdW5kOyBzdHJva2U6IHJnYigzNCwgMzYsIDQyKTsgc3Ryb2tlLXdpZHRoOiAycHg7IG1hcmtlci1lbmQ6IHVybCgnI3NlcXVlbmNlZmxvdy1lbmQtd2hpdGUtaHNsXzIyNV8xMF8xNV8tZGV4YjFqamxhaGlmbXJlZjR4MTJrdXo5MCcpOyIgZGF0YS1jb3JuZXItcmFkaXVzPSI1Ii8+PC9nPjxyZWN0IHN0eWxlPSJmaWxsOiBub25lOyIgY2xhc3M9ImRqcy1vdXRsaW5lIiBoZWlnaHQ9IjEwIiB3aWR0aD0iMTIwIiByeD0iNCIgeT0iNDYwIiB4PSIyMDE1Ii8+PHBhdGggc3R5bGU9ImZpbGw6IG5vbmU7IHN0cm9rZS1vcGFjaXR5OiAwOyBzdHJva2U6IHdoaXRlOyBzdHJva2Utd2lkdGg6IDE1cHg7IiBjbGFzcz0iZGpzLWhpdCBkanMtaGl0LXN0cm9rZSIgZD0iTTIwMjAsNDY1TDIxMzAsNDY1Ii8+PC9nPjwvZz48ZyBjbGFzcz0iZGpzLWdyb3VwIj48ZyBzdHlsZT0iZGlzcGxheTogYmxvY2s7IiBkYXRhLWVsZW1lbnQtaWQ9IkZsb3dfMGpmeXhsdiIgY2xhc3M9ImRqcy1lbGVtZW50IGRqcy1jb25uZWN0aW9uIj48ZyBjbGFzcz0iZGpzLXZpc3VhbCI+PHBhdGggZD0iTTIwMjAsMzI1TDIwODQsMzI1IiBzdHlsZT0iZmlsbDogbm9uZTsgc3Ryb2tlLWxpbmVjYXA6IHJvdW5kOyBzdHJva2UtbGluZWpvaW46IHJvdW5kOyBzdHJva2U6IHJnYigzNCwgMzYsIDQyKTsgc3Ryb2tlLXdpZHRoOiAycHg7IG1hcmtlci1lbmQ6IHVybCgnI3NlcXVlbmNlZmxvdy1lbmQtd2hpdGUtaHNsXzIyNV8xMF8xNV8tZGV4YjFqamxhaGlmbXJlZjR4MTJrdXo5MCcpOyIgZGF0YS1jb3JuZXItcmFkaXVzPSI1Ii8+PC9nPjxyZWN0IHN0eWxlPSJmaWxsOiBub25lOyIgY2xhc3M9ImRqcy1vdXRsaW5lIiBoZWlnaHQ9IjEwIiB3aWR0aD0iNzQiIHJ4PSI0IiB5PSIzMjAiIHg9IjIwMTUiLz48cGF0aCBzdHlsZT0iZmlsbDogbm9uZTsgc3Ryb2tlLW9wYWNpdHk6IDA7IHN0cm9rZTogd2hpdGU7IHN0cm9rZS13aWR0aDogMTVweDsiIGNsYXNzPSJkanMtaGl0IGRqcy1oaXQtc3Ryb2tlIiBkPSJNMjAyMCwzMjVMMjA4NCwzMjUiLz48L2c+PC9nPjxnIGNsYXNzPSJkanMtZ3JvdXAiPjxnIHN0eWxlPSJkaXNwbGF5OiBibG9jazsiIGRhdGEtZWxlbWVudC1pZD0iRmxvd18xMzFoZ2J1IiBjbGFzcz0iZGpzLWVsZW1lbnQgZGpzLWNvbm5lY3Rpb24iPjxnIGNsYXNzPSJkanMtdmlzdWFsIj48cGF0aCBkPSJNMjIzMCw0NjVMMjMwMiw0NjUiIHN0eWxlPSJmaWxsOiBub25lOyBzdHJva2UtbGluZWNhcDogcm91bmQ7IHN0cm9rZS1saW5lam9pbjogcm91bmQ7IHN0cm9rZTogcmdiKDM0LCAzNiwgNDIpOyBzdHJva2Utd2lkdGg6IDJweDsgbWFya2VyLWVuZDogdXJsKCcjc2VxdWVuY2VmbG93LWVuZC13aGl0ZS1oc2xfMjI1XzEwXzE1Xy1kZXhiMWpqbGFoaWZtcmVmNHgxMmt1ejkwJyk7IiBkYXRhLWNvcm5lci1yYWRpdXM9IjUiLz48L2c+PHJlY3Qgc3R5bGU9ImZpbGw6IG5vbmU7IiBjbGFzcz0iZGpzLW91dGxpbmUiIGhlaWdodD0iMTAiIHdpZHRoPSI4MiIgcng9IjQiIHk9IjQ2MCIgeD0iMjIyNSIvPjxwYXRoIHN0eWxlPSJmaWxsOiBub25lOyBzdHJva2Utb3BhY2l0eTogMDsgc3Ryb2tlOiB3aGl0ZTsgc3Ryb2tlLXdpZHRoOiAxNXB4OyIgY2xhc3M9ImRqcy1oaXQgZGpzLWhpdC1zdHJva2UiIGQ9Ik0yMjMwLDQ2NUwyMzAyLDQ2NSIvPjwvZz48L2c+PGcgY2xhc3M9ImRqcy1ncm91cCI+PGcgc3R5bGU9ImRpc3BsYXk6IGJsb2NrOyIgZGF0YS1lbGVtZW50LWlkPSJGbG93XzE2b254eTMiIGNsYXNzPSJkanMtZWxlbWVudCBkanMtY29ubmVjdGlvbiI+PGcgY2xhc3M9ImRqcy12aXN1YWwiPjxwYXRoIGQ9Ik0zMDQwLDIzMEwzMTAyLDIzMCIgc3R5bGU9ImZpbGw6IG5vbmU7IHN0cm9rZS1saW5lY2FwOiByb3VuZDsgc3Ryb2tlLWxpbmVqb2luOiByb3VuZDsgc3Ryb2tlOiByZ2IoMzQsIDM2LCA0Mik7IHN0cm9rZS13aWR0aDogMnB4OyBtYXJrZXItZW5kOiB1cmwoJyNzZXF1ZW5jZWZsb3ctZW5kLXdoaXRlLWhzbF8yMjVfMTBfMTVfLWRleGIxampsYWhpZm1yZWY0eDEya3V6OTAnKTsiIGRhdGEtY29ybmVyLXJhZGl1cz0iNSIvPjwvZz48cmVjdCBzdHlsZT0iZmlsbDogbm9uZTsiIGNsYXNzPSJkanMtb3V0bGluZSIgaGVpZ2h0PSIxMCIgd2lkdGg9IjcyIiByeD0iNCIgeT0iMjI1IiB4PSIzMDM1Ii8+PHBhdGggc3R5bGU9ImZpbGw6IG5vbmU7IHN0cm9rZS1vcGFjaXR5OiAwOyBzdHJva2U6IHdoaXRlOyBzdHJva2Utd2lkdGg6IDE1cHg7IiBjbGFzcz0iZGpzLWhpdCBkanMtaGl0LXN0cm9rZSIgZD0iTTMwNDAsMjMwTDMxMDIsMjMwIi8+PC9nPjwvZz48ZyBjbGFzcz0iZGpzLWdyb3VwIj48ZyBzdHlsZT0iZGlzcGxheTogYmxvY2s7IiBkYXRhLWVsZW1lbnQtaWQ9IkFzc29jaWF0aW9uXzFudTdsazgiIGNsYXNzPSJkanMtZWxlbWVudCBkanMtY29ubmVjdGlvbiI+PGcgY2xhc3M9ImRqcy12aXN1YWwiPjxwYXRoIGQ9Ik02NjEsMzg4TDY5MCwzNzYiIHN0eWxlPSJmaWxsOiBub25lOyBzdHJva2UtbGluZWNhcDogcm91bmQ7IHN0cm9rZS1saW5lam9pbjogcm91bmQ7IHN0cm9rZTogcmdiKDM0LCAzNiwgNDIpOyBzdHJva2Utd2lkdGg6IDJweDsgc3Ryb2tlLWRhc2hhcnJheTogMCwgNTsiIGRhdGEtY29ybmVyLXJhZGl1cz0iNSIvPjwvZz48cmVjdCBzdHlsZT0iZmlsbDogbm9uZTsiIGNsYXNzPSJkanMtb3V0bGluZSIgaGVpZ2h0PSIyMiIgd2lkdGg9IjM5IiByeD0iNCIgeT0iMzcxIiB4PSI2NTYiLz48cGF0aCBzdHlsZT0iZmlsbDogbm9uZTsgc3Ryb2tlLW9wYWNpdHk6IDA7IHN0cm9rZTogd2hpdGU7IHN0cm9rZS13aWR0aDogMTVweDsiIGNsYXNzPSJkanMtaGl0IGRqcy1oaXQtc3Ryb2tlIiBkPSJNNjYxLDM4OEw2OTAsMzc2Ii8+PC9nPjwvZz48ZyBjbGFzcz0iZGpzLWdyb3VwIj48ZyBzdHlsZT0iZGlzcGxheTogYmxvY2s7IiBkYXRhLWVsZW1lbnQtaWQ9IkFzc29jaWF0aW9uXzFjOGhhNWIiIGNsYXNzPSJkanMtZWxlbWVudCBkanMtY29ubmVjdGlvbiI+PGcgY2xhc3M9ImRqcy12aXN1YWwiPjxwYXRoIGQ9Ik0yMzMzLDQ1M0wyMzU2LDQzMyIgc3R5bGU9ImZpbGw6IG5vbmU7IHN0cm9rZS1saW5lY2FwOiByb3VuZDsgc3Ryb2tlLWxpbmVqb2luOiByb3VuZDsgc3Ryb2tlOiByZ2IoMzQsIDM2LCA0Mik7IHN0cm9rZS13aWR0aDogMnB4OyBzdHJva2UtZGFzaGFycmF5OiAwLCA1OyIgZGF0YS1jb3JuZXItcmFkaXVzPSI1Ii8+PC9nPjxyZWN0IHN0eWxlPSJmaWxsOiBub25lOyIgY2xhc3M9ImRqcy1vdXRsaW5lIiBoZWlnaHQ9IjMwIiB3aWR0aD0iMzMiIHJ4PSI0IiB5PSI0MjgiIHg9IjIzMjgiLz48cGF0aCBzdHlsZT0iZmlsbDogbm9uZTsgc3Ryb2tlLW9wYWNpdHk6IDA7IHN0cm9rZTogd2hpdGU7IHN0cm9rZS13aWR0aDogMTVweDsiIGNsYXNzPSJkanMtaGl0IGRqcy1oaXQtc3Ryb2tlIiBkPSJNMjMzMyw0NTNMMjM1Niw0MzMiLz48L2c+PC9nPjwvZz48L2c+PGcgY2xhc3M9ImRqcy1ncm91cCI+PGcgc3R5bGU9ImRpc3BsYXk6IGJsb2NrOyIgdHJhbnNmb3JtPSJ0cmFuc2xhdGUoMTYwIDgwKSIgZGF0YS1lbGVtZW50LWlkPSJQYXJ0aWNpcGFudF8wd2N5cmc0IiBjbGFzcz0iZGpzLWVsZW1lbnQgZGpzLXNoYXBlIj48ZyBjbGFzcz0iZGpzLXZpc3VhbCI+PHJlY3Qgc3R5bGU9InN0cm9rZS1saW5lY2FwOiByb3VuZDsgc3Ryb2tlLWxpbmVqb2luOiByb3VuZDsgc3Ryb2tlOiByZ2IoMzQsIDM2LCA0Mik7IHN0cm9rZS13aWR0aDogMS41cHg7IGZpbGw6IHdoaXRlOyBmaWxsLW9wYWNpdHk6IDAuOTU7IiByeT0iMCIgcng9IjAiIGhlaWdodD0iNjAiIHdpZHRoPSIzMTAwIiB5PSIwIiB4PSIwIi8+PHRleHQgc3R5bGU9ImZvbnQtZmFtaWx5OiBBcmlhbCwgc2Fucy1zZXJpZjsgZm9udC1zaXplOiAxMnB4OyBmb250LXdlaWdodDogbm9ybWFsOyBmaWxsOiByZ2IoMzQsIDM2LCA0Mik7IiBjbGFzcz0iZGpzLWxhYmVsIj48dHNwYW4geT0iMzMuNiIgeD0iMTUzMS4xMTcxODc1Ij4g0LrQu9C40LXQvdGCPC90c3Bhbj48L3RleHQ+PC9nPjxyZWN0IHN0eWxlPSJmaWxsOiBub25lOyBzdHJva2Utb3BhY2l0eTogMDsgc3Ryb2tlOiB3aGl0ZTsgc3Ryb2tlLXdpZHRoOiAxNXB4OyIgaGVpZ2h0PSI2MCIgd2lkdGg9IjMxMDAiIHk9IjAiIHg9IjAiIGNsYXNzPSJkanMtaGl0IGRqcy1oaXQtYWxsIi8+PHJlY3Qgc3R5bGU9ImZpbGw6IG5vbmU7IiBjbGFzcz0iZGpzLW91dGxpbmUiIGhlaWdodD0iNzAiIHdpZHRoPSIzMTEwIiByeD0iNCIgeT0iLTUiIHg9Ii01Ii8+PC9nPjwvZz48ZyBjbGFzcz0iZGpzLWdyb3VwIj48ZyBzdHlsZT0iZGlzcGxheTogYmxvY2s7IiB0cmFuc2Zvcm09InRyYW5zbGF0ZSg2OTAgMzQwKSIgZGF0YS1lbGVtZW50LWlkPSJUZXh0QW5ub3RhdGlvbl8xbzM0NnIwIiBjbGFzcz0iZGpzLWVsZW1lbnQgZGpzLXNoYXBlIj48ZyBjbGFzcz0iZGpzLXZpc3VhbCI+PHJlY3Qgc3R5bGU9InN0cm9rZS1saW5lY2FwOiByb3VuZDsgc3Ryb2tlLWxpbmVqb2luOiByb3VuZDsgc3Ryb2tlOiBub25lOyBzdHJva2Utd2lkdGg6IDJweDsgZmlsbDogbm9uZTsiIHJ5PSIwIiByeD0iMCIgaGVpZ2h0PSI1MyIgd2lkdGg9IjEwMCIgeT0iMCIgeD0iMCIvPjxwYXRoIHN0eWxlPSJmaWxsOiBub25lOyBzdHJva2UtbGluZWNhcDogcm91bmQ7IHN0cm9rZS1saW5lam9pbjogcm91bmQ7IHN0cm9rZTogcmdiKDM0LCAzNiwgNDIpOyBzdHJva2Utd2lkdGg6IDJweDsiIGQ9Im0gMCwgMCBtIDEwLDAgbCAtMTAsMCBsIDAsNTMgbCAxMCwwIi8+PHRleHQgc3R5bGU9ImZvbnQtZmFtaWx5OiBBcmlhbCwgc2Fucy1zZXJpZjsgZm9udC1zaXplOiAxMnB4OyBmb250LXdlaWdodDogbm9ybWFsOyBmaWxsOiByZ2IoMzQsIDM2LCA0Mik7IiBjbGFzcz0iZGpzLWxhYmVsIj48dHNwYW4geT0iMTcuNzk5OTk5OTk5OTk5OTk3IiB4PSI3Ij7QlNCw0L3QvdGL0LUg0LIgPC90c3Bhbj48dHNwYW4geT0iMzIuMTk5OTk5OTk5OTk5OTk2IiB4PSI3Ij7RhNC+0YDQvNCw0YLQtSBKU09O0LzQtdGC0L7QtDwvdHNwYW4+PHRzcGFuIHk9IjQ2LjU5OTk5OTk5OTk5OTk5NCIgeD0iNyI+IHJlYWQ8L3RzcGFuPjwvdGV4dD48L2c+PHJlY3Qgc3R5bGU9ImZpbGw6IG5vbmU7IHN0cm9rZS1vcGFjaXR5OiAwOyBzdHJva2U6IHdoaXRlOyBzdHJva2Utd2lkdGg6IDE1cHg7IiBoZWlnaHQ9IjUzIiB3aWR0aD0iMTAwIiB5PSIwIiB4PSIwIiBjbGFzcz0iZGpzLWhpdCBkanMtaGl0LWFsbCIvPjxyZWN0IHN0eWxlPSJmaWxsOiBub25lOyIgY2xhc3M9ImRqcy1vdXRsaW5lIiBoZWlnaHQ9IjYzIiB3aWR0aD0iMTEwIiByeD0iNCIgeT0iLTUiIHg9Ii01Ii8+PC9nPjwvZz48ZyBjbGFzcz0iZGpzLWdyb3VwIj48ZyBzdHlsZT0iZGlzcGxheTogYmxvY2s7IiB0cmFuc2Zvcm09InRyYW5zbGF0ZSgyMzQ2IDM4MCkiIGRhdGEtZWxlbWVudC1pZD0iVGV4dEFubm90YXRpb25fMDZnNWNxMyIgY2xhc3M9ImRqcy1lbGVtZW50IGRqcy1zaGFwZSI+PGcgY2xhc3M9ImRqcy12aXN1YWwiPjxyZWN0IHN0eWxlPSJzdHJva2UtbGluZWNhcDogcm91bmQ7IHN0cm9rZS1saW5lam9pbjogcm91bmQ7IHN0cm9rZTogbm9uZTsgc3Ryb2tlLXdpZHRoOiAycHg7IGZpbGw6IG5vbmU7IiByeT0iMCIgcng9IjAiIGhlaWdodD0iNTMiIHdpZHRoPSIxMDAiIHk9IjAiIHg9IjAiLz48cGF0aCBzdHlsZT0iZmlsbDogbm9uZTsgc3Ryb2tlLWxpbmVjYXA6IHJvdW5kOyBzdHJva2UtbGluZWpvaW46IHJvdW5kOyBzdHJva2U6IHJnYigzNCwgMzYsIDQyKTsgc3Ryb2tlLXdpZHRoOiAycHg7IiBkPSJtIDAsIDAgbSAxMCwwIGwgLTEwLDAgbCAwLDUzIGwgMTAsMCIvPjx0ZXh0IHN0eWxlPSJmb250LWZhbWlseTogQXJpYWwsIHNhbnMtc2VyaWY7IGZvbnQtc2l6ZTogMTJweDsgZm9udC13ZWlnaHQ6IG5vcm1hbDsgZmlsbDogcmdiKDM0LCAzNiwgNDIpOyIgY2xhc3M9ImRqcy1sYWJlbCI+PHRzcGFuIHk9IjE3Ljc5OTk5OTk5OTk5OTk5NyIgeD0iNyI+0JTQsNC90L3Ri9C1INCyIDwvdHNwYW4+PHRzcGFuIHk9IjMyLjE5OTk5OTk5OTk5OTk5NiIgeD0iNyI+0YTQvtGA0LzQsNGC0LUgSlNPTtC80LXRgtC+0LQ8L3RzcGFuPjx0c3BhbiB5PSI0Ni41OTk5OTk5OTk5OTk5OTQiIHg9IjciPiB1cGRhdGU8L3RzcGFuPjwvdGV4dD48L2c+PHJlY3Qgc3R5bGU9ImZpbGw6IG5vbmU7IHN0cm9rZS1vcGFjaXR5OiAwOyBzdHJva2U6IHdoaXRlOyBzdHJva2Utd2lkdGg6IDE1cHg7IiBoZWlnaHQ9IjUzIiB3aWR0aD0iMTAwIiB5PSIwIiB4PSIwIiBjbGFzcz0iZGpzLWhpdCBkanMtaGl0LWFsbCIvPjxyZWN0IHN0eWxlPSJmaWxsOiBub25lOyIgY2xhc3M9ImRqcy1vdXRsaW5lIiBoZWlnaHQ9IjYzIiB3aWR0aD0iMTEwIiByeD0iNCIgeT0iLTUiIHg9Ii01Ii8+PC9nPjwvZz48ZyBjbGFzcz0iZGpzLWdyb3VwIj48ZyBzdHlsZT0iZGlzcGxheTogYmxvY2s7IiBkYXRhLWVsZW1lbnQtaWQ9IkRhdGFPdXRwdXRBc3NvY2lhdGlvbl8waW12MnpyIiBjbGFzcz0iZGpzLWVsZW1lbnQgZGpzLWNvbm5lY3Rpb24iPjxnIGNsYXNzPSJkanMtdmlzdWFsIj48cGF0aCBkPSJNMTExNiw4NTVMMTExNiw5MjUiIHN0eWxlPSJmaWxsOiBub25lOyBzdHJva2UtbGluZWNhcDogcm91bmQ7IHN0cm9rZS1saW5lam9pbjogcm91bmQ7IHN0cm9rZTogcmdiKDM0LCAzNiwgNDIpOyBzdHJva2Utd2lkdGg6IDJweDsgbWFya2VyLWVuZDogdXJsKCcjYXNzb2NpYXRpb24tZW5kLXdoaXRlLWhzbF8yMjVfMTBfMTVfLWRleGIxampsYWhpZm1yZWY0eDEya3V6OTAnKTsgc3Ryb2tlLWRhc2hhcnJheTogMCwgNTsiIGRhdGEtY29ybmVyLXJhZGl1cz0iNSIvPjwvZz48cmVjdCBzdHlsZT0iZmlsbDogbm9uZTsiIGNsYXNzPSJkanMtb3V0bGluZSIgaGVpZ2h0PSI4MCIgd2lkdGg9IjEwIiByeD0iNCIgeT0iODUwIiB4PSIxMTExIi8+PHBhdGggc3R5bGU9ImZpbGw6IG5vbmU7IHN0cm9rZS1vcGFjaXR5OiAwOyBzdHJva2U6IHdoaXRlOyBzdHJva2Utd2lkdGg6IDE1cHg7IiBjbGFzcz0iZGpzLWhpdCBkanMtaGl0LXN0cm9rZSIgZD0iTTExMTYsODU1TDExMTYsOTI1Ii8+PC9nPjwvZz48ZyBjbGFzcz0iZGpzLWdyb3VwIj48ZyBzdHlsZT0iZGlzcGxheTogYmxvY2s7IiBkYXRhLWVsZW1lbnQtaWQ9IkRhdGFPdXRwdXRBc3NvY2lhdGlvbl8xYzFvOWs3IiBjbGFzcz0iZGpzLWVsZW1lbnQgZGpzLWNvbm5lY3Rpb24iPjxnIGNsYXNzPSJkanMtdmlzdWFsIj48cGF0aCBkPSJNMzA0MCwyNTdMMzEwMiwyOTAiIHN0eWxlPSJmaWxsOiBub25lOyBzdHJva2UtbGluZWNhcDogcm91bmQ7IHN0cm9rZS1saW5lam9pbjogcm91bmQ7IHN0cm9rZTogcmdiKDM0LCAzNiwgNDIpOyBzdHJva2Utd2lkdGg6IDJweDsgbWFya2VyLWVuZDogdXJsKCcjYXNzb2NpYXRpb24tZW5kLXdoaXRlLWhzbF8yMjVfMTBfMTVfLWRleGIxampsYWhpZm1yZWY0eDEya3V6OTAnKTsgc3Ryb2tlLWRhc2hhcnJheTogMCwgNTsiIGRhdGEtY29ybmVyLXJhZGl1cz0iNSIvPjwvZz48cmVjdCBzdHlsZT0iZmlsbDogbm9uZTsiIGNsYXNzPSJkanMtb3V0bGluZSIgaGVpZ2h0PSI0MyIgd2lkdGg9IjcyIiByeD0iNCIgeT0iMjUyIiB4PSIzMDM1Ii8+PHBhdGggc3R5bGU9ImZpbGw6IG5vbmU7IHN0cm9rZS1vcGFjaXR5OiAwOyBzdHJva2U6IHdoaXRlOyBzdHJva2Utd2lkdGg6IDE1cHg7IiBjbGFzcz0iZGpzLWhpdCBkanMtaGl0LXN0cm9rZSIgZD0iTTMwNDAsMjU3TDMxMDIsMjkwIi8+PC9nPjwvZz48ZyBjbGFzcz0iZGpzLWdyb3VwIj48ZyBzdHlsZT0iZGlzcGxheTogYmxvY2s7IiBkYXRhLWVsZW1lbnQtaWQ9IkRhdGFPdXRwdXRBc3NvY2lhdGlvbl8xZ3BtejluIiBjbGFzcz0iZGpzLWVsZW1lbnQgZGpzLWNvbm5lY3Rpb24iPjxnIGNsYXNzPSJkanMtdmlzdWFsIj48cGF0aCBkPSJNMTExNywxMDUwTDExMTgsOTc1IiBzdHlsZT0iZmlsbDogbm9uZTsgc3Ryb2tlLWxpbmVjYXA6IHJvdW5kOyBzdHJva2UtbGluZWpvaW46IHJvdW5kOyBzdHJva2U6IHJnYigzNCwgMzYsIDQyKTsgc3Ryb2tlLXdpZHRoOiAycHg7IG1hcmtlci1lbmQ6IHVybCgnI2Fzc29jaWF0aW9uLWVuZC13aGl0ZS1oc2xfMjI1XzEwXzE1Xy1kZXhiMWpqbGFoaWZtcmVmNHgxMmt1ejkwJyk7IHN0cm9rZS1kYXNoYXJyYXk6IDAsIDU7IiBkYXRhLWNvcm5lci1yYWRpdXM9IjUiLz48L2c+PHJlY3Qgc3R5bGU9ImZpbGw6IG5vbmU7IiBjbGFzcz0iZGpzLW91dGxpbmUiIGhlaWdodD0iODUiIHdpZHRoPSIxMSIgcng9IjQiIHk9Ijk3MCIgeD0iMTExMiIvPjxwYXRoIHN0eWxlPSJmaWxsOiBub25lOyBzdHJva2Utb3BhY2l0eTogMDsgc3Ryb2tlOiB3aGl0ZTsgc3Ryb2tlLXdpZHRoOiAxNXB4OyIgY2xhc3M9ImRqcy1oaXQgZGpzLWhpdC1zdHJva2UiIGQ9Ik0xMTE3LDEwNTBMMTExOCw5NzUiLz48L2c+PC9nPjxnIGNsYXNzPSJkanMtZ3JvdXAiPjxnIHN0eWxlPSJkaXNwbGF5OiBibG9jazsiIGRhdGEtZWxlbWVudC1pZD0iRmxvd18xMnp3aTB0IiBjbGFzcz0iZGpzLWVsZW1lbnQgZGpzLWNvbm5lY3Rpb24iPjxnIGNsYXNzPSJkanMtdmlzdWFsIj48cGF0aCBkPSJNMjQ0LDE0MEwyNDQsMzc3IiBzdHlsZT0iZmlsbDogbm9uZTsgc3Ryb2tlLWxpbmVjYXA6IHJvdW5kOyBzdHJva2UtbGluZWpvaW46IHJvdW5kOyBzdHJva2U6IHJnYigzNCwgMzYsIDQyKTsgc3Ryb2tlLXdpZHRoOiAxLjVweDsgbWFya2VyLWVuZDogdXJsKCcjbWVzc2FnZWZsb3ctZW5kLXdoaXRlLWhzbF8yMjVfMTBfMTVfLWRleGIxampsYWhpZm1yZWY0eDEya3V6OTAnKTsgbWFya2VyLXN0YXJ0OiB1cmwoJyNtZXNzYWdlZmxvdy1zdGFydC13aGl0ZS1oc2xfMjI1XzEwXzE1Xy1kZXhiMWpqbGFoaWZtcmVmNHgxMmt1ejkwJyk7IHN0cm9rZS1kYXNoYXJyYXk6IDEwLCAxMTsiIGRhdGEtY29ybmVyLXJhZGl1cz0iNSIvPjwvZz48cmVjdCBzdHlsZT0iZmlsbDogbm9uZTsiIGNsYXNzPSJkanMtb3V0bGluZSIgaGVpZ2h0PSIyNDciIHdpZHRoPSIxMCIgcng9IjQiIHk9IjEzNSIgeD0iMjM5Ii8+PHBhdGggc3R5bGU9ImZpbGw6IG5vbmU7IHN0cm9rZS1vcGFjaXR5OiAwOyBzdHJva2U6IHdoaXRlOyBzdHJva2Utd2lkdGg6IDE1cHg7IiBjbGFzcz0iZGpzLWhpdCBkanMtaGl0LXN0cm9rZSIgZD0iTTI0NCwxNDBMMjQ0LDM3NyIvPjwvZz48L2c+PGcgY2xhc3M9ImRqcy1ncm91cCI+PGcgc3R5bGU9ImRpc3BsYXk6IGJsb2NrOyIgZGF0YS1lbGVtZW50LWlkPSJGbG93XzBldTVmaGEiIGNsYXNzPSJkanMtZWxlbWVudCBkanMtY29ubmVjdGlvbiI+PGcgY2xhc3M9ImRqcy12aXN1YWwiPjxwYXRoIGQ9Ik0xOTcwLDI4NUwxOTcwLDE0MCIgc3R5bGU9ImZpbGw6IG5vbmU7IHN0cm9rZS1saW5lY2FwOiByb3VuZDsgc3Ryb2tlLWxpbmVqb2luOiByb3VuZDsgc3Ryb2tlOiByZ2IoMzQsIDM2LCA0Mik7IHN0cm9rZS13aWR0aDogMS41cHg7IG1hcmtlci1lbmQ6IHVybCgnI21lc3NhZ2VmbG93LWVuZC13aGl0ZS1oc2xfMjI1XzEwXzE1Xy1kZXhiMWpqbGFoaWZtcmVmNHgxMmt1ejkwJyk7IG1hcmtlci1zdGFydDogdXJsKCcjbWVzc2FnZWZsb3ctc3RhcnQtd2hpdGUtaHNsXzIyNV8xMF8xNV8tZGV4YjFqamxhaGlmbXJlZjR4MTJrdXo5MCcpOyBzdHJva2UtZGFzaGFycmF5OiAxMCwgMTE7IiBkYXRhLWNvcm5lci1yYWRpdXM9IjUiLz48L2c+PHJlY3Qgc3R5bGU9ImZpbGw6IG5vbmU7IiBjbGFzcz0iZGpzLW91dGxpbmUiIGhlaWdodD0iMTU1IiB3aWR0aD0iMTAiIHJ4PSI0IiB5PSIxMzUiIHg9IjE5NjUiLz48cGF0aCBzdHlsZT0iZmlsbDogbm9uZTsgc3Ryb2tlLW9wYWNpdHk6IDA7IHN0cm9rZTogd2hpdGU7IHN0cm9rZS13aWR0aDogMTVweDsiIGNsYXNzPSJkanMtaGl0IGRqcy1oaXQtc3Ryb2tlIiBkPSJNMTk3MCwyODVMMTk3MCwxNDAiLz48L2c+PC9nPjxnIGNsYXNzPSJkanMtZ3JvdXAiPjxnIHN0eWxlPSJkaXNwbGF5OiBibG9jazsiIGRhdGEtZWxlbWVudC1pZD0iRmxvd18xa3k3d2N0IiBjbGFzcz0iZGpzLWVsZW1lbnQgZGpzLWNvbm5lY3Rpb24iPjxnIGNsYXNzPSJkanMtdmlzdWFsIj48cGF0aCBkPSJNMjE4MCwxNDBMMjE4MCw0MjUiIHN0eWxlPSJmaWxsOiBub25lOyBzdHJva2UtbGluZWNhcDogcm91bmQ7IHN0cm9rZS1saW5lam9pbjogcm91bmQ7IHN0cm9rZTogcmdiKDM0LCAzNiwgNDIpOyBzdHJva2Utd2lkdGg6IDEuNXB4OyBtYXJrZXItZW5kOiB1cmwoJyNtZXNzYWdlZmxvdy1lbmQtd2hpdGUtaHNsXzIyNV8xMF8xNV8tZGV4YjFqamxhaGlmbXJlZjR4MTJrdXo5MCcpOyBtYXJrZXItc3RhcnQ6IHVybCgnI21lc3NhZ2VmbG93LXN0YXJ0LXdoaXRlLWhzbF8yMjVfMTBfMTVfLWRleGIxampsYWhpZm1yZWY0eDEya3V6OTAnKTsgc3Ryb2tlLWRhc2hhcnJheTogMTAsIDExOyIgZGF0YS1jb3JuZXItcmFkaXVzPSI1Ii8+PC9nPjxyZWN0IHN0eWxlPSJmaWxsOiBub25lOyIgY2xhc3M9ImRqcy1vdXRsaW5lIiBoZWlnaHQ9IjI5NSIgd2lkdGg9IjEwIiByeD0iNCIgeT0iMTM1IiB4PSIyMTc1Ii8+PHBhdGggc3R5bGU9ImZpbGw6IG5vbmU7IHN0cm9rZS1vcGFjaXR5OiAwOyBzdHJva2U6IHdoaXRlOyBzdHJva2Utd2lkdGg6IDE1cHg7IiBjbGFzcz0iZGpzLWhpdCBkanMtaGl0LXN0cm9rZSIgZD0iTTIxODAsMTQwTDIxODAsNDI1Ii8+PC9nPjwvZz48ZyBjbGFzcz0iZGpzLWdyb3VwIj48ZyBzdHlsZT0iZGlzcGxheTogYmxvY2s7IiBkYXRhLWVsZW1lbnQtaWQ9IkZsb3dfMXMzOTY2byIgY2xhc3M9ImRqcy1lbGVtZW50IGRqcy1jb25uZWN0aW9uIj48ZyBjbGFzcz0iZGpzLXZpc3VhbCI+PHBhdGggZD0iTTI5OTAsMTkwTDI5OTAsMTQwIiBzdHlsZT0iZmlsbDogbm9uZTsgc3Ryb2tlLWxpbmVjYXA6IHJvdW5kOyBzdHJva2UtbGluZWpvaW46IHJvdW5kOyBzdHJva2U6IHJnYigzNCwgMzYsIDQyKTsgc3Ryb2tlLXdpZHRoOiAxLjVweDsgbWFya2VyLWVuZDogdXJsKCcjbWVzc2FnZWZsb3ctZW5kLXdoaXRlLWhzbF8yMjVfMTBfMTVfLWRleGIxampsYWhpZm1yZWY0eDEya3V6OTAnKTsgbWFya2VyLXN0YXJ0OiB1cmwoJyNtZXNzYWdlZmxvdy1zdGFydC13aGl0ZS1oc2xfMjI1XzEwXzE1Xy1kZXhiMWpqbGFoaWZtcmVmNHgxMmt1ejkwJyk7IHN0cm9rZS1kYXNoYXJyYXk6IDEwLCAxMTsiIGRhdGEtY29ybmVyLXJhZGl1cz0iNSIvPjwvZz48cmVjdCBzdHlsZT0iZmlsbDogbm9uZTsiIGNsYXNzPSJkanMtb3V0bGluZSIgaGVpZ2h0PSI2MCIgd2lkdGg9IjEwIiByeD0iNCIgeT0iMTM1IiB4PSIyOTg1Ii8+PHBhdGggc3R5bGU9ImZpbGw6IG5vbmU7IHN0cm9rZS1vcGFjaXR5OiAwOyBzdHJva2U6IHdoaXRlOyBzdHJva2Utd2lkdGg6IDE1cHg7IiBjbGFzcz0iZGpzLWhpdCBkanMtaGl0LXN0cm9rZSIgZD0iTTI5OTAsMTkwTDI5OTAsMTQwIi8+PC9nPjwvZz48ZyBjbGFzcz0iZGpzLWdyb3VwIj48ZyBzdHlsZT0iZGlzcGxheTogYmxvY2s7IiBkYXRhLWVsZW1lbnQtaWQ9IkZsb3dfMTJkY3BibCIgY2xhc3M9ImRqcy1lbGVtZW50IGRqcy1jb25uZWN0aW9uIj48ZyBjbGFzcz0iZGpzLXZpc3VhbCI+PHBhdGggZD0iTTMwNDAsNDI4TDMyMDUuMDI3Nzk0MTk2NzE0LDQxMC41MjY0Njg4NDk3NTk3NEMzMjA3LjUxMzg5NzA5ODM1Nyw0MTAuMjYzMjM0NDI0ODc5ODQsMzIxMCw0MDcuNSwzMjEwLDQwNUwzMjEwLDE0MCIgc3R5bGU9ImZpbGw6IG5vbmU7IHN0cm9rZS1saW5lY2FwOiByb3VuZDsgc3Ryb2tlLWxpbmVqb2luOiByb3VuZDsgc3Ryb2tlOiByZ2IoMzQsIDM2LCA0Mik7IHN0cm9rZS13aWR0aDogMS41cHg7IG1hcmtlci1lbmQ6IHVybCgnI21lc3NhZ2VmbG93LWVuZC13aGl0ZS1oc2xfMjI1XzEwXzE1Xy1kZXhiMWpqbGFoaWZtcmVmNHgxMmt1ejkwJyk7IG1hcmtlci1zdGFydDogdXJsKCcjbWVzc2FnZWZsb3ctc3RhcnQtd2hpdGUtaHNsXzIyNV8xMF8xNV8tZGV4YjFqamxhaGlmbXJlZjR4MTJrdXo5MCcpOyBzdHJva2UtZGFzaGFycmF5OiAxMCwgMTE7IiBkYXRhLWNvcm5lci1yYWRpdXM9IjUiLz48L2c+PHJlY3Qgc3R5bGU9ImZpbGw6IG5vbmU7IiBjbGFzcz0iZGpzLW91dGxpbmUiIGhlaWdodD0iMjk4IiB3aWR0aD0iMTgwIiByeD0iNCIgeT0iMTM1IiB4PSIzMDM1Ii8+PHBhdGggc3R5bGU9ImZpbGw6IG5vbmU7IHN0cm9rZS1vcGFjaXR5OiAwOyBzdHJva2U6IHdoaXRlOyBzdHJva2Utd2lkdGg6IDE1cHg7IiBjbGFzcz0iZGpzLWhpdCBkanMtaGl0LXN0cm9rZSIgZD0iTTMwNDAsNDI4TDMyMTAsNDEwTDMyMTAsMTQwIi8+PC9nPjwvZz48ZyBjbGFzcz0iZGpzLWdyb3VwIj48ZyBzdHlsZT0iZGlzcGxheTogYmxvY2s7IiBkYXRhLWVsZW1lbnQtaWQ9IkZsb3dfMDZvM29hbiIgY2xhc3M9ImRqcy1lbGVtZW50IGRqcy1jb25uZWN0aW9uIj48ZyBjbGFzcz0iZGpzLXZpc3VhbCI+PHBhdGggZD0iTTUyMCwxNDBMNTIwLDM1NSIgc3R5bGU9ImZpbGw6IG5vbmU7IHN0cm9rZS1saW5lY2FwOiByb3VuZDsgc3Ryb2tlLWxpbmVqb2luOiByb3VuZDsgc3Ryb2tlOiByZ2IoMzQsIDM2LCA0Mik7IHN0cm9rZS13aWR0aDogMS41cHg7IG1hcmtlci1lbmQ6IHVybCgnI21lc3NhZ2VmbG93LWVuZC13aGl0ZS1oc2xfMjI1XzEwXzE1Xy1kZXhiMWpqbGFoaWZtcmVmNHgxMmt1ejkwJyk7IG1hcmtlci1zdGFydDogdXJsKCcjbWVzc2FnZWZsb3ctc3RhcnQtd2hpdGUtaHNsXzIyNV8xMF8xNV8tZGV4YjFqamxhaGlmbXJlZjR4MTJrdXo5MCcpOyBzdHJva2UtZGFzaGFycmF5OiAxMCwgMTE7IiBkYXRhLWNvcm5lci1yYWRpdXM9IjUiLz48L2c+PHJlY3Qgc3R5bGU9ImZpbGw6IG5vbmU7IiBjbGFzcz0iZGpzLW91dGxpbmUiIGhlaWdodD0iMjI1IiB3aWR0aD0iMTAiIHJ4PSI0IiB5PSIxMzUiIHg9IjUxNSIvPjxwYXRoIHN0eWxlPSJmaWxsOiBub25lOyBzdHJva2Utb3BhY2l0eTogMDsgc3Ryb2tlOiB3aGl0ZTsgc3Ryb2tlLXdpZHRoOiAxNXB4OyIgY2xhc3M9ImRqcy1oaXQgZGpzLWhpdC1zdHJva2UiIGQ9Ik01MjAsMTQwTDUyMCwzNTUiLz48L2c+PC9nPjwvc3ZnPg==;" vertex="1" parent="1">
          <mxGeometry x="10" y="20" width="1200" height="509" as="geometry" />
        </mxCell>
      </root>
    </mxGraphModel>
  </diagram>
</mxfile>
